<?xml version="1.0" encoding="utf-8" standalone="no"?>
<!DOCTYPE svg PUBLIC "-//W3C//DTD SVG 1.1//EN"
  "http://www.w3.org/Graphics/SVG/1.1/DTD/svg11.dtd">
<!-- Created with matplotlib (https://matplotlib.org/) -->
<svg height="432pt" version="1.1" viewBox="0 0 576 432" width="576pt" xmlns="http://www.w3.org/2000/svg" xmlns:xlink="http://www.w3.org/1999/xlink">
 <defs>
  <style type="text/css">
*{stroke-linecap:butt;stroke-linejoin:round;}
  </style>
 </defs>
 <g id="figure_1">
  <g id="patch_1">
   <path d="M 0 432 
L 576 432 
L 576 0 
L 0 0 
z
" style="fill:#ffffff;"/>
  </g>
  <g id="axes_1">
   <g id="patch_2">
    <path d="M 99.29 350.44 
L 547.56 350.44 
L 547.56 28.44 
L 99.29 28.44 
z
" style="fill:#ffffff;"/>
   </g>
   <g id="matplotlib.axis_1">
    <g id="xtick_1">
     <g id="line2d_1">
      <defs>
       <path d="M 0 0 
L 0 3.5 
" id="mb34b90e54c" style="stroke:#000000;stroke-width:0.8;"/>
      </defs>
      <g>
       <use style="stroke:#000000;stroke-width:0.8;" x="99.29" xlink:href="#mb34b90e54c" y="350.44"/>
      </g>
     </g>
     <g id="text_1">
      <!-- 0 -->
      <defs>
       <path d="M 4.15625 35.296875 
Q 4.15625 48 6.765625 55.734375 
Q 9.375 63.484375 14.515625 67.671875 
Q 19.671875 71.875 27.484375 71.875 
Q 33.25 71.875 37.59375 69.546875 
Q 41.9375 67.234375 44.765625 62.859375 
Q 47.609375 58.5 49.21875 52.21875 
Q 50.828125 45.953125 50.828125 35.296875 
Q 50.828125 22.703125 48.234375 14.96875 
Q 45.65625 7.234375 40.5 3 
Q 35.359375 -1.21875 27.484375 -1.21875 
Q 17.140625 -1.21875 11.234375 6.203125 
Q 4.15625 15.140625 4.15625 35.296875 
z
M 13.1875 35.296875 
Q 13.1875 17.671875 17.3125 11.828125 
Q 21.4375 6 27.484375 6 
Q 33.546875 6 37.671875 11.859375 
Q 41.796875 17.71875 41.796875 35.296875 
Q 41.796875 52.984375 37.671875 58.78125 
Q 33.546875 64.59375 27.390625 64.59375 
Q 21.34375 64.59375 17.71875 59.46875 
Q 13.1875 52.9375 13.1875 35.296875 
z
" id="ArialMT-48"/>
      </defs>
      <g transform="translate(92.616875 374.61875)scale(0.24 -0.24)">
       <use xlink:href="#ArialMT-48"/>
      </g>
     </g>
    </g>
    <g id="xtick_2">
     <g id="line2d_2">
      <g>
       <use style="stroke:#000000;stroke-width:0.8;" x="227.367143" xlink:href="#mb34b90e54c" y="350.44"/>
      </g>
     </g>
     <g id="text_2">
      <!-- 200000 -->
      <defs>
       <path d="M 50.34375 8.453125 
L 50.34375 0 
L 3.03125 0 
Q 2.9375 3.171875 4.046875 6.109375 
Q 5.859375 10.9375 9.828125 15.625 
Q 13.8125 20.3125 21.34375 26.46875 
Q 33.015625 36.03125 37.109375 41.625 
Q 41.21875 47.21875 41.21875 52.203125 
Q 41.21875 57.421875 37.46875 61 
Q 33.734375 64.59375 27.734375 64.59375 
Q 21.390625 64.59375 17.578125 60.78125 
Q 13.765625 56.984375 13.71875 50.25 
L 4.6875 51.171875 
Q 5.609375 61.28125 11.65625 66.578125 
Q 17.71875 71.875 27.9375 71.875 
Q 38.234375 71.875 44.234375 66.15625 
Q 50.25 60.453125 50.25 52 
Q 50.25 47.703125 48.484375 43.546875 
Q 46.734375 39.40625 42.65625 34.8125 
Q 38.578125 30.21875 29.109375 22.21875 
Q 21.1875 15.578125 18.9375 13.203125 
Q 16.703125 10.84375 15.234375 8.453125 
z
" id="ArialMT-50"/>
      </defs>
      <g transform="translate(187.328393 374.61875)scale(0.24 -0.24)">
       <use xlink:href="#ArialMT-50"/>
       <use x="55.615234" xlink:href="#ArialMT-48"/>
       <use x="111.230469" xlink:href="#ArialMT-48"/>
       <use x="166.845703" xlink:href="#ArialMT-48"/>
       <use x="222.460938" xlink:href="#ArialMT-48"/>
       <use x="278.076172" xlink:href="#ArialMT-48"/>
      </g>
     </g>
    </g>
    <g id="xtick_3">
     <g id="line2d_3">
      <g>
       <use style="stroke:#000000;stroke-width:0.8;" x="355.444286" xlink:href="#mb34b90e54c" y="350.44"/>
      </g>
     </g>
     <g id="text_3">
      <!-- 400000 -->
      <defs>
       <path d="M 32.328125 0 
L 32.328125 17.140625 
L 1.265625 17.140625 
L 1.265625 25.203125 
L 33.9375 71.578125 
L 41.109375 71.578125 
L 41.109375 25.203125 
L 50.78125 25.203125 
L 50.78125 17.140625 
L 41.109375 17.140625 
L 41.109375 0 
z
M 32.328125 25.203125 
L 32.328125 57.46875 
L 9.90625 25.203125 
z
" id="ArialMT-52"/>
      </defs>
      <g transform="translate(315.405536 374.61875)scale(0.24 -0.24)">
       <use xlink:href="#ArialMT-52"/>
       <use x="55.615234" xlink:href="#ArialMT-48"/>
       <use x="111.230469" xlink:href="#ArialMT-48"/>
       <use x="166.845703" xlink:href="#ArialMT-48"/>
       <use x="222.460938" xlink:href="#ArialMT-48"/>
       <use x="278.076172" xlink:href="#ArialMT-48"/>
      </g>
     </g>
    </g>
    <g id="xtick_4">
     <g id="line2d_4">
      <g>
       <use style="stroke:#000000;stroke-width:0.8;" x="483.521429" xlink:href="#mb34b90e54c" y="350.44"/>
      </g>
     </g>
     <g id="text_4">
      <!-- 600000 -->
      <defs>
       <path d="M 49.75 54.046875 
L 41.015625 53.375 
Q 39.84375 58.546875 37.703125 60.890625 
Q 34.125 64.65625 28.90625 64.65625 
Q 24.703125 64.65625 21.53125 62.3125 
Q 17.390625 59.28125 14.984375 53.46875 
Q 12.59375 47.65625 12.5 36.921875 
Q 15.671875 41.75 20.265625 44.09375 
Q 24.859375 46.4375 29.890625 46.4375 
Q 38.671875 46.4375 44.84375 39.96875 
Q 51.03125 33.5 51.03125 23.25 
Q 51.03125 16.5 48.125 10.71875 
Q 45.21875 4.9375 40.140625 1.859375 
Q 35.0625 -1.21875 28.609375 -1.21875 
Q 17.625 -1.21875 10.6875 6.859375 
Q 3.765625 14.9375 3.765625 33.5 
Q 3.765625 54.25 11.421875 63.671875 
Q 18.109375 71.875 29.4375 71.875 
Q 37.890625 71.875 43.28125 67.140625 
Q 48.6875 62.40625 49.75 54.046875 
z
M 13.875 23.1875 
Q 13.875 18.65625 15.796875 14.5 
Q 17.71875 10.359375 21.1875 8.171875 
Q 24.65625 6 28.46875 6 
Q 34.03125 6 38.03125 10.484375 
Q 42.046875 14.984375 42.046875 22.703125 
Q 42.046875 30.125 38.078125 34.390625 
Q 34.125 38.671875 28.125 38.671875 
Q 22.171875 38.671875 18.015625 34.390625 
Q 13.875 30.125 13.875 23.1875 
z
" id="ArialMT-54"/>
      </defs>
      <g transform="translate(443.482679 374.61875)scale(0.24 -0.24)">
       <use xlink:href="#ArialMT-54"/>
       <use x="55.615234" xlink:href="#ArialMT-48"/>
       <use x="111.230469" xlink:href="#ArialMT-48"/>
       <use x="166.845703" xlink:href="#ArialMT-48"/>
       <use x="222.460938" xlink:href="#ArialMT-48"/>
       <use x="278.076172" xlink:href="#ArialMT-48"/>
      </g>
     </g>
    </g>
    <g id="text_5">
     <!-- $\mathrm{\mathbf{Iteration}}$ -->
     <defs>
      <path d="M 9.1875 72.90625 
L 27.984375 72.90625 
L 27.984375 0 
L 9.1875 0 
z
" id="DejaVuSans-Bold-73"/>
      <path d="M 27.484375 70.21875 
L 27.484375 54.6875 
L 45.515625 54.6875 
L 45.515625 42.1875 
L 27.484375 42.1875 
L 27.484375 19 
Q 27.484375 15.1875 29 13.84375 
Q 30.515625 12.5 35.015625 12.5 
L 44 12.5 
L 44 0 
L 29 0 
Q 18.65625 0 14.328125 4.3125 
Q 10.015625 8.640625 10.015625 19 
L 10.015625 42.1875 
L 1.3125 42.1875 
L 1.3125 54.6875 
L 10.015625 54.6875 
L 10.015625 70.21875 
z
" id="DejaVuSans-Bold-116"/>
      <path d="M 62.984375 27.484375 
L 62.984375 22.515625 
L 22.125 22.515625 
Q 22.75 16.359375 26.5625 13.28125 
Q 30.375 10.203125 37.203125 10.203125 
Q 42.71875 10.203125 48.5 11.84375 
Q 54.296875 13.484375 60.40625 16.796875 
L 60.40625 3.328125 
Q 54.203125 0.984375 48 -0.21875 
Q 41.796875 -1.421875 35.59375 -1.421875 
Q 20.75 -1.421875 12.515625 6.125 
Q 4.296875 13.671875 4.296875 27.296875 
Q 4.296875 40.671875 12.375 48.328125 
Q 20.453125 56 34.625 56 
Q 47.515625 56 55.25 48.234375 
Q 62.984375 40.484375 62.984375 27.484375 
z
M 45.015625 33.296875 
Q 45.015625 38.28125 42.109375 41.328125 
Q 39.203125 44.390625 34.515625 44.390625 
Q 29.4375 44.390625 26.265625 41.53125 
Q 23.09375 38.671875 22.3125 33.296875 
z
" id="DejaVuSans-Bold-101"/>
      <path d="M 49.03125 39.796875 
Q 46.734375 40.875 44.453125 41.375 
Q 42.1875 41.890625 39.890625 41.890625 
Q 33.15625 41.890625 29.515625 37.5625 
Q 25.875 33.25 25.875 25.203125 
L 25.875 0 
L 8.40625 0 
L 8.40625 54.6875 
L 25.875 54.6875 
L 25.875 45.703125 
Q 29.25 51.078125 33.609375 53.53125 
Q 37.984375 56 44.09375 56 
Q 44.96875 56 45.984375 55.921875 
Q 47.015625 55.859375 48.96875 55.609375 
z
" id="DejaVuSans-Bold-114"/>
      <path d="M 32.90625 24.609375 
Q 27.4375 24.609375 24.671875 22.75 
Q 21.921875 20.90625 21.921875 17.28125 
Q 21.921875 13.96875 24.140625 12.078125 
Q 26.375 10.203125 30.328125 10.203125 
Q 35.25 10.203125 38.625 13.734375 
Q 42 17.28125 42 22.609375 
L 42 24.609375 
z
M 59.625 31.203125 
L 59.625 0 
L 42 0 
L 42 8.109375 
Q 38.484375 3.125 34.078125 0.84375 
Q 29.6875 -1.421875 23.390625 -1.421875 
Q 14.890625 -1.421875 9.59375 3.53125 
Q 4.296875 8.5 4.296875 16.40625 
Q 4.296875 26.03125 10.90625 30.515625 
Q 17.53125 35.015625 31.6875 35.015625 
L 42 35.015625 
L 42 36.375 
Q 42 40.53125 38.71875 42.453125 
Q 35.453125 44.390625 28.515625 44.390625 
Q 22.90625 44.390625 18.0625 43.265625 
Q 13.234375 42.140625 9.078125 39.890625 
L 9.078125 53.21875 
Q 14.703125 54.59375 20.359375 55.296875 
Q 26.03125 56 31.6875 56 
Q 46.484375 56 53.046875 50.171875 
Q 59.625 44.34375 59.625 31.203125 
z
" id="DejaVuSans-Bold-97"/>
      <path d="M 8.40625 54.6875 
L 25.875 54.6875 
L 25.875 0 
L 8.40625 0 
z
M 8.40625 75.984375 
L 25.875 75.984375 
L 25.875 61.71875 
L 8.40625 61.71875 
z
" id="DejaVuSans-Bold-105"/>
      <path d="M 34.421875 43.5 
Q 28.609375 43.5 25.5625 39.328125 
Q 22.515625 35.15625 22.515625 27.296875 
Q 22.515625 19.4375 25.5625 15.25 
Q 28.609375 11.078125 34.421875 11.078125 
Q 40.140625 11.078125 43.15625 15.25 
Q 46.1875 19.4375 46.1875 27.296875 
Q 46.1875 35.15625 43.15625 39.328125 
Q 40.140625 43.5 34.421875 43.5 
z
M 34.421875 56 
Q 48.53125 56 56.46875 48.375 
Q 64.40625 40.765625 64.40625 27.296875 
Q 64.40625 13.8125 56.46875 6.1875 
Q 48.53125 -1.421875 34.421875 -1.421875 
Q 20.265625 -1.421875 12.28125 6.1875 
Q 4.296875 13.8125 4.296875 27.296875 
Q 4.296875 40.765625 12.28125 48.375 
Q 20.265625 56 34.421875 56 
z
" id="DejaVuSans-Bold-111"/>
      <path d="M 63.375 33.296875 
L 63.375 0 
L 45.796875 0 
L 45.796875 5.421875 
L 45.796875 25.484375 
Q 45.796875 32.5625 45.484375 35.25 
Q 45.171875 37.9375 44.390625 39.203125 
Q 43.359375 40.921875 41.59375 41.875 
Q 39.84375 42.828125 37.59375 42.828125 
Q 32.125 42.828125 29 38.59375 
Q 25.875 34.375 25.875 26.90625 
L 25.875 0 
L 8.40625 0 
L 8.40625 54.6875 
L 25.875 54.6875 
L 25.875 46.6875 
Q 29.828125 51.46875 34.265625 53.734375 
Q 38.71875 56 44.09375 56 
Q 53.5625 56 58.46875 50.1875 
Q 63.375 44.390625 63.375 33.296875 
z
" id="DejaVuSans-Bold-110"/>
     </defs>
     <g transform="translate(264.385 400.5675)scale(0.24 -0.24)">
      <use transform="translate(0 0.015625)" xlink:href="#DejaVuSans-Bold-73"/>
      <use transform="translate(37.207031 0.015625)" xlink:href="#DejaVuSans-Bold-116"/>
      <use transform="translate(85.009766 0.015625)" xlink:href="#DejaVuSans-Bold-101"/>
      <use transform="translate(152.832031 0.015625)" xlink:href="#DejaVuSans-Bold-114"/>
      <use transform="translate(202.148438 0.015625)" xlink:href="#DejaVuSans-Bold-97"/>
      <use transform="translate(269.628906 0.015625)" xlink:href="#DejaVuSans-Bold-116"/>
      <use transform="translate(317.431641 0.015625)" xlink:href="#DejaVuSans-Bold-105"/>
      <use transform="translate(351.708984 0.015625)" xlink:href="#DejaVuSans-Bold-111"/>
      <use transform="translate(420.410156 0.015625)" xlink:href="#DejaVuSans-Bold-110"/>
     </g>
    </g>
   </g>
   <g id="matplotlib.axis_2">
    <g id="ytick_1">
     <g id="line2d_5">
      <defs>
       <path d="M 0 0 
L -3.5 0 
" id="m6abb4fe33b" style="stroke:#000000;stroke-width:0.8;"/>
      </defs>
      <g>
       <use style="stroke:#000000;stroke-width:0.8;" x="99.29" xlink:href="#m6abb4fe33b" y="350.44"/>
      </g>
     </g>
     <g id="text_6">
      <!-- 0 -->
      <g transform="translate(78.94375 359.029375)scale(0.24 -0.24)">
       <use xlink:href="#ArialMT-48"/>
      </g>
     </g>
    </g>
    <g id="ytick_2">
     <g id="line2d_6">
      <g>
       <use style="stroke:#000000;stroke-width:0.8;" x="99.29" xlink:href="#m6abb4fe33b" y="277.258182"/>
      </g>
     </g>
     <g id="text_7">
      <!-- 50 -->
      <defs>
       <path d="M 4.15625 18.75 
L 13.375 19.53125 
Q 14.40625 12.796875 18.140625 9.390625 
Q 21.875 6 27.15625 6 
Q 33.5 6 37.890625 10.78125 
Q 42.28125 15.578125 42.28125 23.484375 
Q 42.28125 31 38.0625 35.34375 
Q 33.84375 39.703125 27 39.703125 
Q 22.75 39.703125 19.328125 37.765625 
Q 15.921875 35.84375 13.96875 32.765625 
L 5.71875 33.84375 
L 12.640625 70.609375 
L 48.25 70.609375 
L 48.25 62.203125 
L 19.671875 62.203125 
L 15.828125 42.96875 
Q 22.265625 47.46875 29.34375 47.46875 
Q 38.71875 47.46875 45.15625 40.96875 
Q 51.609375 34.46875 51.609375 24.265625 
Q 51.609375 14.546875 45.953125 7.46875 
Q 39.0625 -1.21875 27.15625 -1.21875 
Q 17.390625 -1.21875 11.203125 4.25 
Q 5.03125 9.71875 4.15625 18.75 
z
" id="ArialMT-53"/>
      </defs>
      <g transform="translate(65.5975 285.847557)scale(0.24 -0.24)">
       <use xlink:href="#ArialMT-53"/>
       <use x="55.615234" xlink:href="#ArialMT-48"/>
      </g>
     </g>
    </g>
    <g id="ytick_3">
     <g id="line2d_7">
      <g>
       <use style="stroke:#000000;stroke-width:0.8;" x="99.29" xlink:href="#m6abb4fe33b" y="204.076364"/>
      </g>
     </g>
     <g id="text_8">
      <!-- 100 -->
      <defs>
       <path d="M 37.25 0 
L 28.46875 0 
L 28.46875 56 
Q 25.296875 52.984375 20.140625 49.953125 
Q 14.984375 46.921875 10.890625 45.40625 
L 10.890625 53.90625 
Q 18.265625 57.375 23.78125 62.296875 
Q 29.296875 67.234375 31.59375 71.875 
L 37.25 71.875 
z
" id="ArialMT-49"/>
      </defs>
      <g transform="translate(52.25125 212.665739)scale(0.24 -0.24)">
       <use xlink:href="#ArialMT-49"/>
       <use x="55.615234" xlink:href="#ArialMT-48"/>
       <use x="111.230469" xlink:href="#ArialMT-48"/>
      </g>
     </g>
    </g>
    <g id="ytick_4">
     <g id="line2d_8">
      <g>
       <use style="stroke:#000000;stroke-width:0.8;" x="99.29" xlink:href="#m6abb4fe33b" y="130.894545"/>
      </g>
     </g>
     <g id="text_9">
      <!-- 150 -->
      <g transform="translate(52.25125 139.48392)scale(0.24 -0.24)">
       <use xlink:href="#ArialMT-49"/>
       <use x="55.615234" xlink:href="#ArialMT-53"/>
       <use x="111.230469" xlink:href="#ArialMT-48"/>
      </g>
     </g>
    </g>
    <g id="ytick_5">
     <g id="line2d_9">
      <g>
       <use style="stroke:#000000;stroke-width:0.8;" x="99.29" xlink:href="#m6abb4fe33b" y="57.712727"/>
      </g>
     </g>
     <g id="text_10">
      <!-- 200 -->
      <g transform="translate(52.25125 66.302102)scale(0.24 -0.24)">
       <use xlink:href="#ArialMT-50"/>
       <use x="55.615234" xlink:href="#ArialMT-48"/>
       <use x="111.230469" xlink:href="#ArialMT-48"/>
      </g>
     </g>
    </g>
    <g id="text_11">
     <!-- $\mathrm{\mathbf{Cost}}$ -->
     <defs>
      <path d="M 67 4 
Q 61.8125 1.3125 56.203125 -0.046875 
Q 50.59375 -1.421875 44.484375 -1.421875 
Q 26.265625 -1.421875 15.625 8.765625 
Q 4.984375 18.953125 4.984375 36.375 
Q 4.984375 53.859375 15.625 64.03125 
Q 26.265625 74.21875 44.484375 74.21875 
Q 50.59375 74.21875 56.203125 72.84375 
Q 61.8125 71.484375 67 68.796875 
L 67 53.71875 
Q 61.765625 57.28125 56.6875 58.9375 
Q 51.609375 60.59375 46 60.59375 
Q 35.9375 60.59375 30.171875 54.140625 
Q 24.421875 47.703125 24.421875 36.375 
Q 24.421875 25.09375 30.171875 18.640625 
Q 35.9375 12.203125 46 12.203125 
Q 51.609375 12.203125 56.6875 13.859375 
Q 61.765625 15.53125 67 19.09375 
z
" id="DejaVuSans-Bold-67"/>
      <path d="M 51.125 52.984375 
L 51.125 39.703125 
Q 45.515625 42.046875 40.28125 43.21875 
Q 35.0625 44.390625 30.421875 44.390625 
Q 25.4375 44.390625 23.015625 43.140625 
Q 20.609375 41.890625 20.609375 39.3125 
Q 20.609375 37.203125 22.4375 36.078125 
Q 24.265625 34.96875 29 34.421875 
L 32.078125 33.984375 
Q 45.515625 32.28125 50.140625 28.375 
Q 54.78125 24.46875 54.78125 16.109375 
Q 54.78125 7.375 48.328125 2.96875 
Q 41.890625 -1.421875 29.109375 -1.421875 
Q 23.6875 -1.421875 17.890625 -0.5625 
Q 12.109375 0.296875 6 2 
L 6 15.28125 
Q 11.234375 12.75 16.71875 11.46875 
Q 22.21875 10.203125 27.875 10.203125 
Q 33.015625 10.203125 35.59375 11.609375 
Q 38.1875 13.03125 38.1875 15.828125 
Q 38.1875 18.171875 36.40625 19.3125 
Q 34.625 20.453125 29.296875 21.09375 
L 26.21875 21.484375 
Q 14.546875 22.953125 9.859375 26.90625 
Q 5.171875 30.859375 5.171875 38.921875 
Q 5.171875 47.609375 11.125 51.796875 
Q 17.09375 56 29.390625 56 
Q 34.234375 56 39.546875 55.265625 
Q 44.875 54.546875 51.125 52.984375 
z
" id="DejaVuSans-Bold-115"/>
     </defs>
     <g transform="translate(43.48125 219.44)rotate(-90)scale(0.24 -0.24)">
      <use transform="translate(0 0.78125)" xlink:href="#DejaVuSans-Bold-67"/>
      <use transform="translate(73.388672 0.78125)" xlink:href="#DejaVuSans-Bold-111"/>
      <use transform="translate(142.089844 0.78125)" xlink:href="#DejaVuSans-Bold-115"/>
      <use transform="translate(201.611328 0.78125)" xlink:href="#DejaVuSans-Bold-116"/>
     </g>
    </g>
   </g>
   <g id="line2d_10">
    <path clip-path="url(#peebfb79310)" d="M 99.295763 52.594341 
L 100.565008 52.638641 
L 100.735991 123.2464 
L 100.741754 123.439051 
L 100.865349 138.913206 
L 100.889684 140.201161 
L 101.047859 150.806077 
L 101.10037 152.982089 
L 101.757406 177.803214 
L 102.154445 186.737277 
L 102.208878 187.524186 
L 103.013203 198.298514 
L 103.362213 201.54242 
L 103.486448 202.370468 
L 103.78935 204.896429 
L 103.998116 205.015506 
L 104.206241 205.100966 
L 104.712786 205.283523 
L 104.946527 205.349098 
L 105.056673 205.440534 
L 105.182189 206.477848 
L 105.205243 206.646001 
L 105.342285 207.761664 
L 105.604844 209.502929 
L 105.741246 210.272731 
L 105.983952 211.66106 
L 106.005725 211.788362 
L 106.043508 211.951291 
L 107.691861 216.886105 
L 107.747574 216.999636 
L 108.065205 217.650457 
L 108.126042 217.761336 
L 108.461604 218.162602 
L 109.579718 218.62268 
L 109.967151 219.43795 
L 110.252763 220.072402 
L 110.305915 220.189276 
L 110.398131 220.379732 
L 110.603694 220.815064 
L 110.6466 220.925535 
L 110.950143 221.395968 
L 111.228711 221.859384 
L 112.368597 223.570598 
L 112.424311 223.670124 
L 112.549186 223.965911 
L 112.708002 224.228274 
L 113.906164 224.592747 
L 114.031039 224.739265 
L 114.192416 225.036135 
L 115.297722 226.606158 
L 115.523778 226.872018 
L 115.690278 227.05557 
L 115.841409 227.249148 
L 116.201306 227.679732 
L 116.326181 227.918426 
L 116.411352 228.036574 
L 116.841692 228.46576 
L 117.029325 228.674684 
L 117.210554 228.863164 
L 117.348877 228.910233 
L 118.517581 229.287677 
L 118.669993 229.467523 
L 118.908857 229.722684 
L 119.024767 229.923908 
L 119.153484 230.060754 
L 119.342398 230.285406 
L 119.47944 230.490472 
L 119.649783 230.672694 
L 119.841899 230.830957 
L 120.056428 230.972626 
L 120.194111 231.147969 
L 120.794793 231.723805 
L 121.163655 232.141667 
L 121.303259 232.272482 
L 121.405721 232.381292 
L 121.528675 232.479184 
L 121.711825 232.621181 
L 121.974383 232.699697 
L 123.000281 232.990583 
L 124.078691 234.184674 
L 124.404007 234.451815 
L 124.545532 234.590721 
L 124.717155 234.723267 
L 124.9906 234.942457 
L 125.144292 235.053307 
L 125.287739 235.160623 
L 125.492662 235.280741 
L 125.616257 235.361963 
L 125.766747 235.478752 
L 126.20221 235.863489 
L 127.469533 236.174998 
L 127.598251 236.325056 
L 128.292429 236.92288 
L 128.449323 237.037894 
L 128.657448 237.210809 
L 128.824589 237.324982 
L 128.978282 237.449783 
L 129.326652 237.692776 
L 129.4733 237.760867 
L 129.72177 237.931747 
L 129.976643 238.056713 
L 130.173882 238.186614 
L 130.361515 238.314602 
L 130.871262 238.545675 
L 131.950312 238.705857 
L 132.06366 238.929838 
L 132.204545 239.029541 
L 132.391538 239.155477 
L 132.563161 239.303489 
L 133.130543 239.674355 
L 133.262462 239.773224 
L 133.551276 239.925771 
L 134.191021 240.308576 
L 134.401068 240.423302 
L 135.428247 240.910097 
L 136.435573 241.068451 
L 136.554685 241.240259 
L 136.746801 241.3554 
L 139.754693 242.709776 
L 140.560298 242.826463 
L 140.947091 242.941325 
L 141.225018 243.104384 
L 141.508069 243.239789 
L 141.622057 243.308917 
L 141.881413 243.437209 
L 142.045993 243.51848 
L 142.243872 243.629422 
L 142.403968 243.709002 
L 142.896425 243.908077 
L 143.013615 243.941051 
L 143.276814 244.071037 
L 143.394645 244.127432 
L 143.666809 244.238503 
L 144.120842 244.426724 
L 145.368954 244.553289 
L 146.199534 244.916726 
L 146.511402 245.027977 
L 146.616425 245.061592 
L 146.980805 245.183797 
L 147.860695 245.567744 
L 148.282709 245.678711 
L 148.399259 245.728417 
L 148.779648 245.850958 
L 149.065901 245.895134 
L 149.885595 246.032703 
L 150.022637 246.076112 
L 150.852577 246.365332 
L 150.980654 246.402807 
L 151.580055 246.571269 
L 154.236375 247.176869 
L 154.447062 247.286245 
L 154.562972 247.322418 
L 157.709827 248.194394 
L 158.934885 248.404644 
L 159.479853 248.616977 
L 159.985118 248.749858 
L 161.839034 249.241695 
L 161.953663 249.292816 
L 163.331133 249.486984 
L 163.820388 249.709368 
L 164.337179 249.864316 
L 165.194655 250.035757 
L 165.662137 250.155398 
L 166.992218 250.388246 
L 171.088125 251.141641 
L 171.305216 251.171702 
L 172.318306 251.314997 
L 172.450226 251.34991 
L 173.077163 251.472486 
L 173.513266 251.584257 
L 174.295817 251.707158 
L 174.453352 251.743841 
L 175.066201 251.852312 
L 175.219253 251.892563 
L 176.434705 252.00007 
L 176.850956 252.111529 
L 177.05716 252.167667 
L 177.789121 252.279973 
L 177.942173 252.315042 
L 178.160545 252.360261 
L 178.677336 252.472748 
L 180.043279 252.72361 
L 181.487989 252.905789 
L 182.885311 253.194288 
L 183.613429 253.314471 
L 183.757516 253.336895 
L 184.458738 253.451178 
L 184.579131 253.473781 
L 186.060984 253.644638 
L 186.283838 253.679034 
L 189.917386 254.114432 
L 190.373981 254.229859 
L 190.559053 254.268478 
L 191.459435 254.394297 
L 192.500702 254.529232 
L 194.710673 254.750426 
L 194.824022 254.812387 
L 195.787162 254.927814 
L 203.70361 255.722795 
L 203.818239 255.757514 
L 204.824925 255.877278 
L 206.268995 255.999379 
L 208.154931 256.118447 
L 208.2702 256.184062 
L 210.786916 256.420998 
L 211.046913 256.446584 
L 214.03111 256.704269 
L 214.52869 256.757039 
L 215.908081 256.869 
L 218.974248 257.128839 
L 221.604312 257.296797 
L 221.71766 257.34318 
L 223.014441 257.456205 
L 223.172616 257.469157 
L 224.9721 257.644825 
L 232.485746 258.253789 
L 232.695792 258.267929 
L 235.053052 258.39658 
L 235.163839 258.457511 
L 239.002311 258.709989 
L 241.49149 258.892894 
L 241.800156 258.911837 
L 244.041506 259.050139 
L 245.510551 259.169554 
L 248.500512 259.318725 
L 248.605535 259.365415 
L 250.463934 259.502569 
L 251.375844 259.552504 
L 253.173406 259.66462 
L 253.581332 259.687363 
L 255.584459 259.804513 
L 255.748397 259.810445 
L 256.808876 259.866512 
L 260.348288 260.080236 
L 260.728037 260.099803 
L 265.899792 260.414469 
L 267.447604 260.527485 
L 268.016907 260.562684 
L 269.202901 260.620752 
L 271.418636 260.738459 
L 272.757682 260.813048 
L 275.867395 260.985383 
L 276.119067 260.997488 
L 278.136282 261.113819 
L 278.264359 261.122503 
L 278.500021 261.13564 
L 280.22458 261.2479 
L 282.784201 261.371053 
L 286.118049 261.558851 
L 286.264057 261.570049 
L 286.878187 261.598249 
L 288.994662 261.72016 
L 289.552438 261.756407 
L 292.025608 261.878417 
L 292.799834 261.90455 
L 294.921432 262.014826 
L 295.456154 262.04193 
L 298.545375 262.201976 
L 300.152102 262.290483 
L 303.532058 262.460356 
L 308.74864 262.732882 
L 369.19913 265.246948 
L 371.42319 265.358037 
L 378.651864 265.636312 
L 379.333875 265.6617 
L 383.021856 265.772563 
L 383.396482 265.796612 
L 390.381809 266.062685 
L 391.500563 266.090774 
L 394.336191 266.202367 
L 394.575695 266.207549 
L 398.127915 266.32467 
L 400.528721 266.390925 
L 403.437993 266.502817 
L 404.894871 266.541523 
L 408.532261 266.674709 
L 409.176489 266.69247 
L 412.477678 266.805737 
L 494.423995 269.150204 
L 499.52851 269.265397 
L 499.66235 269.279315 
L 505.18952 269.424092 
L 510.716048 269.541702 
L 530.847214 269.983056 
L 535.698135 270.097026 
L 537.550131 270.142777 
L 547.558079 270.35198 
L 547.558079 270.35198 
" style="fill:none;stroke:#440154;stroke-linecap:square;stroke-width:3;"/>
   </g>
   <g id="line2d_11">
    <path clip-path="url(#peebfb79310)" d="M 99.29064 229.030869 
L 99.498125 229.266247 
L 99.617877 229.392596 
L 99.95408 229.742918 
L 100.502891 230.320896 
L 100.572693 230.459909 
L 100.70077 234.464783 
L 101.800312 258.747592 
L 102.218484 262.396919 
L 102.375378 263.904539 
L 102.459269 264.65682 
L 102.585425 265.785159 
L 102.59439 265.893436 
L 102.670596 266.640778 
L 102.921627 268.934438 
L 102.94276 269.052505 
L 103.068916 270.026887 
L 103.09261 270.136162 
L 103.256549 271.297188 
L 103.95521 274.675442 
L 104.843425 275.113864 
L 105.054112 275.224718 
L 105.170662 276.275722 
L 105.505584 277.740058 
L 105.624055 278.179446 
L 105.652872 278.291066 
L 105.731 278.636447 
L 105.869323 279.174063 
L 106.36306 280.938854 
L 106.490497 281.376626 
L 106.570545 281.708674 
L 106.724878 282.306207 
L 106.824138 282.655202 
L 106.965663 283.174885 
L 107.116154 283.748308 
L 107.152656 283.851406 
L 107.294821 284.336162 
L 107.465804 284.871141 
L 107.599645 285.287268 
L 107.639989 285.397632 
L 107.804568 285.816798 
L 107.914074 286.132313 
L 108.190081 286.904681 
L 108.312394 287.146925 
L 108.469289 287.247207 
L 108.680616 287.35883 
L 109.148098 287.504258 
L 109.281938 287.529607 
L 109.540654 287.662516 
L 109.661687 288.089038 
L 109.808335 288.454319 
L 109.912078 288.658451 
L 110.030549 288.877871 
L 110.076657 288.985794 
L 110.19833 289.278442 
L 110.254044 289.394195 
L 112.686869 294.539932 
L 113.049327 294.744897 
L 114.030398 294.942205 
L 114.152072 295.208429 
L 114.289114 295.386573 
L 114.633001 295.773578 
L 114.739946 295.890075 
L 114.873786 296.020661 
L 115.044769 296.164626 
L 115.174127 296.262379 
L 115.364322 296.421835 
L 115.874709 296.765255 
L 116.057219 296.877428 
L 116.419037 297.129277 
L 116.68928 297.290212 
L 116.812874 297.361066 
L 117.224642 297.607222 
L 117.378975 297.660143 
L 118.504133 297.86008 
L 118.649501 298.071286 
L 119.066392 298.330389 
L 119.241857 298.418211 
L 119.455746 298.530621 
L 119.596631 298.636451 
L 119.809879 298.749523 
L 119.932834 298.804774 
L 120.098693 298.920496 
L 120.220367 298.985305 
L 120.502777 299.13614 
L 120.65711 299.227651 
L 121.03942 299.439868 
L 121.596556 299.763944 
L 121.805321 299.879169 
L 121.999358 299.926926 
L 122.986193 300.042474 
L 123.13156 300.250511 
L 124.536566 300.943968 
L 124.773509 301.048962 
L 125.045673 301.173221 
L 125.182075 301.243246 
L 125.431185 301.382862 
L 125.593843 301.4483 
L 126.20221 301.702247 
L 127.468893 301.881286 
L 127.589925 302.052899 
L 129.275421 302.754195 
L 129.412463 302.839765 
L 130.957074 303.434939 
L 131.959277 303.587655 
L 132.102724 303.684676 
L 132.453015 303.812683 
L 133.229802 304.140333 
L 133.564084 304.252989 
L 133.865065 304.369259 
L 134.223681 304.494337 
L 134.50353 304.596172 
L 134.844855 304.719353 
L 134.978055 304.77084 
L 136.432371 304.950134 
L 136.549562 305.089379 
L 136.844139 305.200923 
L 136.96069 305.242981 
L 140.388674 306.169054 
L 140.947731 306.304823 
L 141.098222 306.357272 
L 141.840429 306.574373 
L 142.199685 306.656303 
L 142.546134 306.766519 
L 142.781796 306.826897 
L 143.288981 306.951028 
L 143.409374 306.985288 
L 143.907594 307.144607 
L 145.235113 307.30731 
L 145.44452 307.418757 
L 145.695551 307.514117 
L 146.143821 307.642652 
L 147.035878 307.858733 
L 149.018512 308.366169 
L 149.897762 308.486982 
L 150.091799 308.554542 
L 150.606028 308.681553 
L 150.725781 308.712497 
L 151.465426 308.900358 
L 151.614636 308.931116 
L 152.103891 309.050079 
L 153.218162 309.339397 
L 154.304896 309.393666 
L 154.496372 309.505244 
L 155.054788 309.659378 
L 155.239219 309.705495 
L 155.887289 309.860026 
L 157.108505 310.126067 
L 158.086374 310.276352 
L 159.879454 310.617199 
L 160.028023 310.649399 
L 162.365431 311.073192 
L 163.363152 311.182531 
L 163.511722 311.228522 
L 163.934376 311.305109 
L 164.573481 311.415945 
L 165.324654 311.565452 
L 166.052132 311.71074 
L 166.232721 311.759905 
L 166.741827 311.853733 
L 167.967526 311.991173 
L 168.42284 312.07293 
L 169.221401 312.188789 
L 169.404551 312.215509 
L 170.225526 312.356832 
L 170.405474 312.392757 
L 171.1797 312.534428 
L 172.479043 312.65939 
L 173.054109 312.741285 
L 173.916709 312.856037 
L 174.778028 312.985207 
L 175.618854 313.091372 
L 189.324389 314.660702 
L 190.995796 314.825326 
L 192.923997 315.038571 
L 194.836189 315.182907 
L 194.968749 315.203701 
L 196.070212 315.316861 
L 196.214299 315.336034 
L 196.880941 315.410216 
L 199.190812 315.54553 
L 199.312485 315.585179 
L 200.600941 315.705075 
L 203.209232 315.91356 
L 204.563008 316.036705 
L 206.654507 316.239215 
L 208.51867 316.365896 
L 234.753352 318.114277 
L 236.485595 318.22783 
L 236.664903 318.240376 
L 239.088123 318.359207 
L 239.320583 318.362767 
L 241.305138 318.478176 
L 241.850747 318.50391 
L 247.553381 318.775526 
L 250.271178 318.886396 
L 250.403098 318.893477 
L 255.2886 319.102446 
L 255.533228 319.119864 
L 259.534998 319.276645 
L 260.257994 319.318365 
L 263.233226 319.433203 
L 263.62258 319.446988 
L 266.490227 319.558605 
L 266.620226 319.568625 
L 269.959197 319.704013 
L 273.765009 319.862701 
L 284.586887 320.247313 
L 296.068363 320.629023 
L 308.290764 320.974269 
L 308.61608 320.983194 
L 313.640547 321.108284 
L 315.014174 321.140476 
L 318.984565 321.252253 
L 319.394412 321.259532 
L 323.445492 321.37305 
L 334.189243 321.615025 
L 335.512921 321.657598 
L 340.307489 321.774112 
L 344.456548 321.878868 
L 354.282626 322.098211 
L 354.65469 322.107347 
L 361.054065 322.22876 
L 363.079605 322.274862 
L 405.086986 323.077817 
L 411.083558 323.189099 
L 425.250811 323.440402 
L 428.429686 323.489147 
L 451.637264 323.857751 
L 453.058921 323.88817 
L 460.057696 324.003591 
L 462.699287 324.056179 
L 470.251996 324.167195 
L 471.33681 324.188397 
L 511.752192 324.760949 
L 512.03012 324.765571 
L 520.654194 324.883503 
L 521.263201 324.890155 
L 529.316692 325.001658 
L 531.476713 325.02246 
L 543.660051 325.176114 
L 547.554877 325.230452 
L 547.554877 325.230452 
" style="fill:none;stroke:#31688e;stroke-linecap:square;stroke-width:3;"/>
   </g>
   <g id="line2d_12">
    <path clip-path="url(#peebfb79310)" d="M 99.29064 278.871359 
L 99.396944 279.086293 
L 99.637729 279.525195 
L 99.72098 279.66977 
L 99.968809 280.120531 
L 100.162846 280.474736 
L 100.370971 280.857152 
L 100.438212 280.981885 
L 100.578456 281.5261 
L 100.724464 283.785595 
L 100.862147 284.923563 
L 101.002391 285.896862 
L 101.181699 287.425747 
L 101.429529 289.699044 
L 101.459627 289.944581 
L 101.633812 291.806685 
L 101.64726 291.919457 
L 102.504736 299.132488 
L 102.646262 299.58989 
L 102.778181 300.032823 
L 102.828771 300.213645 
L 102.981824 300.680058 
L 103.034335 300.795288 
L 104.010283 303.21979 
L 104.539882 303.609608 
L 104.70254 303.701712 
L 105.052191 303.862608 
L 105.180908 304.500365 
L 105.221893 304.624111 
L 105.439624 305.365373 
L 105.475486 305.482521 
L 105.638144 305.998378 
L 105.675286 306.112412 
L 105.812969 306.646315 
L 105.998681 307.302876 
L 106.04735 307.438047 
L 106.198481 307.978106 
L 106.238825 308.08955 
L 106.37971 308.532272 
L 106.419414 308.641414 
L 106.605126 309.207821 
L 106.651874 309.319327 
L 106.779951 309.596914 
L 106.842069 309.7083 
L 107.169306 310.383986 
L 107.231423 310.529741 
L 108.574312 312.655516 
L 109.075094 312.774466 
L 109.544496 313.00244 
L 109.69947 313.340148 
L 109.785281 313.458884 
L 109.953703 313.720442 
L 112.97056 317.298097 
L 114.023354 317.489201 
L 114.151431 317.846061 
L 114.34867 318.124825 
L 114.618913 318.451149 
L 114.920535 318.786765 
L 116.239729 320.072741 
L 116.379974 320.184322 
L 116.502287 320.290022 
L 116.943513 320.591916 
L 117.175973 320.778099 
L 117.541633 320.889722 
L 117.704932 320.90996 
L 118.523985 321.058492 
L 118.646299 321.178172 
L 118.907576 321.368084 
L 120.431054 322.634431 
L 120.600756 322.746661 
L 120.880604 322.923721 
L 121.064395 323.07818 
L 121.227693 323.192584 
L 121.358332 323.296275 
L 121.629856 323.478993 
L 121.775223 323.566915 
L 122.990035 323.687021 
L 123.125156 323.839378 
L 123.399241 324.004208 
L 123.552294 324.111598 
L 123.802044 324.257791 
L 126.478856 325.348086 
L 127.503473 325.515094 
L 127.954305 325.664789 
L 129.579604 326.06691 
L 129.819108 326.111176 
L 130.325013 326.22627 
L 131.530859 326.387573 
L 131.922775 326.41351 
L 132.084152 326.534887 
L 132.822517 326.693157 
L 137.524869 327.625527 
L 137.647824 327.656687 
L 138.244023 327.769215 
L 138.402198 327.807062 
L 140.79596 328.151201 
L 141.14433 328.269316 
L 142.329683 328.470401 
L 143.006571 328.583561 
L 143.31972 328.631221 
L 144.241235 328.789474 
L 144.740095 328.814995 
L 145.598212 328.928967 
L 147.164596 329.171148 
L 147.356711 329.196843 
L 148.070101 329.310353 
L 148.21739 329.326406 
L 148.839204 329.409838 
L 150.331303 329.547977 
L 150.878833 329.622918 
L 151.631286 329.714772 
L 152.876836 329.873942 
L 153.352643 329.924193 
L 154.860111 330.035034 
L 155.013803 330.055636 
L 158.288736 330.40338 
L 159.484336 330.516508 
L 159.643792 330.534333 
L 176.281653 332.0008 
L 177.671931 332.119186 
L 212.412215 334.392458 
L 214.102193 334.503512 
L 230.252081 335.207572 
L 232.399294 335.3187 
L 232.682985 335.332695 
L 270.193578 336.622892 
L 274.013479 336.734013 
L 322.050092 337.775706 
L 330.699141 337.913051 
L 332.749656 337.942937 
L 340.504087 338.057737 
L 345.637419 338.13447 
L 353.630713 338.245478 
L 354.220509 338.256139 
L 384.824542 338.633006 
L 385.390643 338.640489 
L 398.416729 338.785611 
L 425.610708 339.054159 
L 427.345513 339.066028 
L 439.674859 339.1771 
L 453.724281 339.290788 
L 506.71812 339.668283 
L 508.185244 339.673226 
L 526.705199 339.784293 
L 534.300173 339.832328 
L 547.54271 339.906405 
L 547.54271 339.906405 
" style="fill:none;stroke:#35b779;stroke-linecap:square;stroke-width:3;"/>
   </g>
   <g id="line2d_13">
    <path clip-path="url(#peebfb79310)" d="M 99.29064 308.460282 
L 99.496204 308.890474 
L 99.681276 309.275627 
L 100.005951 309.947172 
L 100.583579 311.339195 
L 100.759045 313.50945 
L 100.782099 313.622239 
L 101.05042 315.606459 
L 101.09909 315.717525 
L 101.292486 316.059801 
L 101.74716 317.071542 
L 102.009718 317.831022 
L 102.442619 319.214148 
L 103.106699 321.652963 
L 103.173299 321.962453 
L 103.298815 322.427935 
L 103.834177 323.95301 
L 104.111464 324.278526 
L 104.445105 324.449973 
L 105.081008 324.826921 
L 105.201401 325.169828 
L 105.625336 325.674472 
L 105.78223 325.820242 
L 106.044789 326.089554 
L 106.131241 326.20168 
L 106.295179 326.354658 
L 106.597441 326.681454 
L 108.113234 328.313425 
L 108.245794 328.428809 
L 108.525643 328.656524 
L 108.790122 328.768763 
L 109.536812 328.92347 
L 109.671293 329.399026 
L 110.072815 329.933625 
L 110.204094 330.076945 
L 110.376998 330.296207 
L 110.549262 330.480291 
L 111.253046 331.163003 
L 111.388807 331.29447 
L 112.072099 331.733577 
L 112.218747 331.843673 
L 112.369878 331.93289 
L 112.558152 332.053506 
L 112.724012 332.172753 
L 114.021433 332.330189 
L 114.150151 332.523654 
L 114.346109 332.633445 
L 114.520293 332.728591 
L 115.16196 333.016573 
L 115.322697 333.090456 
L 115.628161 333.209533 
L 116.582976 333.625513 
L 116.949917 333.772011 
L 117.081196 333.845784 
L 117.362325 333.950016 
L 118.513098 334.08289 
L 118.635412 334.175941 
L 119.19639 334.413693 
L 119.352644 334.472777 
L 119.793229 334.639933 
L 119.968055 334.709977 
L 122.458515 335.492644 
L 123.025256 335.605901 
L 123.168062 335.678314 
L 123.457516 335.800639 
L 123.61313 335.858318 
L 124.717796 336.261652 
L 124.867646 336.314188 
L 127.100671 336.788605 
L 127.566231 336.899048 
L 127.751303 336.948759 
L 128.34494 337.096275 
L 128.914243 337.251765 
L 129.415025 337.388678 
L 130.879587 337.741908 
L 132.184693 337.87616 
L 132.311489 337.907125 
L 132.941629 338.066553 
L 135.626126 338.717009 
L 136.717983 338.82897 
L 139.912227 339.67602 
L 141.266643 339.794149 
L 144.811819 340.347654 
L 146.137417 340.459941 
L 148.504923 340.695318 
L 150.798144 340.848248 
L 158.316272 341.376154 
L 160.065806 341.492633 
L 164.260973 341.72452 
L 164.478064 341.738265 
L 167.895802 341.89619 
L 168.159641 341.91404 
L 192.601243 342.864218 
L 283.71084 344.900662 
L 291.025966 345.01175 
L 406.280025 346.042147 
L 547.56 346.495545 
L 547.56 346.495545 
" style="fill:none;stroke:#fde725;stroke-linecap:square;stroke-width:3;"/>
   </g>
   <g id="patch_3">
    <path d="M 99.29 350.44 
L 99.29 28.44 
" style="fill:none;stroke:#000000;stroke-linecap:square;stroke-linejoin:miter;stroke-width:0.8;"/>
   </g>
   <g id="patch_4">
    <path d="M 547.56 350.44 
L 547.56 28.44 
" style="fill:none;stroke:#000000;stroke-linecap:square;stroke-linejoin:miter;stroke-width:0.8;"/>
   </g>
   <g id="patch_5">
    <path d="M 99.29 350.44 
L 547.56 350.44 
" style="fill:none;stroke:#000000;stroke-linecap:square;stroke-linejoin:miter;stroke-width:0.8;"/>
   </g>
   <g id="patch_6">
    <path d="M 99.29 28.44 
L 547.56 28.44 
" style="fill:none;stroke:#000000;stroke-linecap:square;stroke-linejoin:miter;stroke-width:0.8;"/>
   </g>
   <g id="legend_1">
    <g id="patch_7">
     <path d="M 142.76 160.44 
L 533.56 160.44 
Q 537.56 160.44 537.56 156.44 
L 537.56 42.44 
Q 537.56 38.44 533.56 38.44 
L 142.76 38.44 
Q 138.76 38.44 138.76 42.44 
L 138.76 156.44 
Q 138.76 160.44 142.76 160.44 
z
" style="fill:#ffffff;opacity:0.8;stroke:#cccccc;stroke-linejoin:miter;"/>
    </g>
    <g id="line2d_14">
     <path d="M 146.76 54.04 
L 186.76 54.04 
" style="fill:none;stroke:#440154;stroke-linecap:square;stroke-width:3;"/>
    </g>
    <g id="line2d_15"/>
    <g id="text_12">
     <!-- 500x500 (bin size: 100 kb, $r$ = 0.972) -->
     <defs>
      <path d="M 0.734375 0 
L 19.671875 26.953125 
L 2.15625 51.859375 
L 13.140625 51.859375 
L 21.09375 39.703125 
Q 23.34375 36.234375 24.703125 33.890625 
Q 26.859375 37.109375 28.65625 39.59375 
L 37.40625 51.859375 
L 47.90625 51.859375 
L 29.984375 27.4375 
L 49.265625 0 
L 38.484375 0 
L 27.828125 16.109375 
L 25 20.453125 
L 11.375 0 
z
" id="ArialMT-120"/>
      <path id="ArialMT-32"/>
      <path d="M 23.390625 -21.046875 
Q 16.109375 -11.859375 11.078125 0.4375 
Q 6.0625 12.75 6.0625 25.921875 
Q 6.0625 37.546875 9.8125 48.1875 
Q 14.203125 60.546875 23.390625 72.796875 
L 29.6875 72.796875 
Q 23.78125 62.640625 21.875 58.296875 
Q 18.890625 51.5625 17.1875 44.234375 
Q 15.09375 35.109375 15.09375 25.875 
Q 15.09375 2.390625 29.6875 -21.046875 
z
" id="ArialMT-40"/>
      <path d="M 14.703125 0 
L 6.546875 0 
L 6.546875 71.578125 
L 15.328125 71.578125 
L 15.328125 46.046875 
Q 20.90625 53.03125 29.546875 53.03125 
Q 34.328125 53.03125 38.59375 51.09375 
Q 42.875 49.171875 45.625 45.671875 
Q 48.390625 42.1875 49.953125 37.25 
Q 51.515625 32.328125 51.515625 26.703125 
Q 51.515625 13.375 44.921875 6.09375 
Q 38.328125 -1.171875 29.109375 -1.171875 
Q 19.921875 -1.171875 14.703125 6.5 
z
M 14.59375 26.3125 
Q 14.59375 17 17.140625 12.84375 
Q 21.296875 6.0625 28.375 6.0625 
Q 34.125 6.0625 38.328125 11.0625 
Q 42.53125 16.0625 42.53125 25.984375 
Q 42.53125 36.140625 38.5 40.96875 
Q 34.46875 45.796875 28.765625 45.796875 
Q 23 45.796875 18.796875 40.796875 
Q 14.59375 35.796875 14.59375 26.3125 
z
" id="ArialMT-98"/>
      <path d="M 6.640625 61.46875 
L 6.640625 71.578125 
L 15.4375 71.578125 
L 15.4375 61.46875 
z
M 6.640625 0 
L 6.640625 51.859375 
L 15.4375 51.859375 
L 15.4375 0 
z
" id="ArialMT-105"/>
      <path d="M 6.59375 0 
L 6.59375 51.859375 
L 14.5 51.859375 
L 14.5 44.484375 
Q 20.21875 53.03125 31 53.03125 
Q 35.6875 53.03125 39.625 51.34375 
Q 43.5625 49.65625 45.515625 46.921875 
Q 47.46875 44.1875 48.25 40.4375 
Q 48.734375 37.984375 48.734375 31.890625 
L 48.734375 0 
L 39.9375 0 
L 39.9375 31.546875 
Q 39.9375 36.921875 38.90625 39.578125 
Q 37.890625 42.234375 35.28125 43.8125 
Q 32.671875 45.40625 29.15625 45.40625 
Q 23.53125 45.40625 19.453125 41.84375 
Q 15.375 38.28125 15.375 28.328125 
L 15.375 0 
z
" id="ArialMT-110"/>
      <path d="M 3.078125 15.484375 
L 11.765625 16.84375 
Q 12.5 11.625 15.84375 8.84375 
Q 19.1875 6.0625 25.203125 6.0625 
Q 31.25 6.0625 34.171875 8.515625 
Q 37.109375 10.984375 37.109375 14.3125 
Q 37.109375 17.28125 34.515625 19 
Q 32.71875 20.171875 25.53125 21.96875 
Q 15.875 24.421875 12.140625 26.203125 
Q 8.40625 27.984375 6.46875 31.125 
Q 4.546875 34.28125 4.546875 38.09375 
Q 4.546875 41.546875 6.125 44.5 
Q 7.71875 47.46875 10.453125 49.421875 
Q 12.5 50.921875 16.03125 51.96875 
Q 19.578125 53.03125 23.640625 53.03125 
Q 29.734375 53.03125 34.34375 51.265625 
Q 38.96875 49.515625 41.15625 46.5 
Q 43.359375 43.5 44.1875 38.484375 
L 35.59375 37.3125 
Q 35.015625 41.3125 32.203125 43.546875 
Q 29.390625 45.796875 24.265625 45.796875 
Q 18.21875 45.796875 15.625 43.796875 
Q 13.03125 41.796875 13.03125 39.109375 
Q 13.03125 37.40625 14.109375 36.03125 
Q 15.1875 34.625 17.484375 33.6875 
Q 18.796875 33.203125 25.25 31.453125 
Q 34.578125 28.953125 38.25 27.359375 
Q 41.9375 25.78125 44.03125 22.75 
Q 46.140625 19.734375 46.140625 15.234375 
Q 46.140625 10.84375 43.578125 6.953125 
Q 41.015625 3.078125 36.171875 0.953125 
Q 31.34375 -1.171875 25.25 -1.171875 
Q 15.140625 -1.171875 9.84375 3.03125 
Q 4.546875 7.234375 3.078125 15.484375 
z
" id="ArialMT-115"/>
      <path d="M 1.953125 0 
L 1.953125 7.125 
L 34.96875 45.015625 
Q 29.34375 44.734375 25.046875 44.734375 
L 3.90625 44.734375 
L 3.90625 51.859375 
L 46.296875 51.859375 
L 46.296875 46.046875 
L 18.21875 13.140625 
L 12.796875 7.125 
Q 18.703125 7.5625 23.875 7.5625 
L 47.859375 7.5625 
L 47.859375 0 
z
" id="ArialMT-122"/>
      <path d="M 42.09375 16.703125 
L 51.171875 15.578125 
Q 49.03125 7.625 43.21875 3.21875 
Q 37.40625 -1.171875 28.375 -1.171875 
Q 17 -1.171875 10.328125 5.828125 
Q 3.65625 12.84375 3.65625 25.484375 
Q 3.65625 38.578125 10.390625 45.796875 
Q 17.140625 53.03125 27.875 53.03125 
Q 38.28125 53.03125 44.875 45.953125 
Q 51.46875 38.875 51.46875 26.03125 
Q 51.46875 25.25 51.421875 23.6875 
L 12.75 23.6875 
Q 13.234375 15.140625 17.578125 10.59375 
Q 21.921875 6.0625 28.421875 6.0625 
Q 33.25 6.0625 36.671875 8.59375 
Q 40.09375 11.140625 42.09375 16.703125 
z
M 13.234375 30.90625 
L 42.1875 30.90625 
Q 41.609375 37.453125 38.875 40.71875 
Q 34.671875 45.796875 27.984375 45.796875 
Q 21.921875 45.796875 17.796875 41.75 
Q 13.671875 37.703125 13.234375 30.90625 
z
" id="ArialMT-101"/>
      <path d="M 9.03125 41.84375 
L 9.03125 51.859375 
L 19.046875 51.859375 
L 19.046875 41.84375 
z
M 9.03125 0 
L 9.03125 10.015625 
L 19.046875 10.015625 
L 19.046875 0 
z
" id="ArialMT-58"/>
      <path d="M 6.640625 0 
L 6.640625 71.578125 
L 15.4375 71.578125 
L 15.4375 30.765625 
L 36.234375 51.859375 
L 47.609375 51.859375 
L 27.78125 32.625 
L 49.609375 0 
L 38.765625 0 
L 21.625 26.515625 
L 15.4375 20.5625 
L 15.4375 0 
z
" id="ArialMT-107"/>
      <path d="M 8.890625 0 
L 8.890625 10.015625 
L 18.890625 10.015625 
L 18.890625 0 
Q 18.890625 -5.515625 16.9375 -8.90625 
Q 14.984375 -12.3125 10.75 -14.15625 
L 8.296875 -10.40625 
Q 11.078125 -9.1875 12.390625 -6.8125 
Q 13.71875 -4.4375 13.875 0 
z
" id="ArialMT-44"/>
      <path d="M 44.578125 46.390625 
Q 43.21875 47.125 41.453125 47.515625 
Q 39.703125 47.90625 37.703125 47.90625 
Q 30.515625 47.90625 25.140625 42.453125 
Q 19.78125 37.015625 18.015625 27.875 
L 12.5 0 
L 3.515625 0 
L 14.203125 54.6875 
L 23.1875 54.6875 
L 21.484375 46.1875 
Q 25.046875 50.921875 30 53.453125 
Q 34.96875 56 40.578125 56 
Q 42.046875 56 43.453125 55.828125 
Q 44.875 55.671875 46.296875 55.28125 
z
" id="DejaVuSans-Oblique-114"/>
      <path d="M 52.828125 42.09375 
L 5.5625 42.09375 
L 5.5625 50.296875 
L 52.828125 50.296875 
z
M 52.828125 20.359375 
L 5.5625 20.359375 
L 5.5625 28.5625 
L 52.828125 28.5625 
z
" id="ArialMT-61"/>
      <path d="M 9.078125 0 
L 9.078125 10.015625 
L 19.09375 10.015625 
L 19.09375 0 
z
" id="ArialMT-46"/>
      <path d="M 5.46875 16.546875 
L 13.921875 17.328125 
Q 14.984375 11.375 18.015625 8.6875 
Q 21.046875 6 25.78125 6 
Q 29.828125 6 32.875 7.859375 
Q 35.9375 9.71875 37.890625 12.8125 
Q 39.84375 15.921875 41.15625 21.1875 
Q 42.484375 26.46875 42.484375 31.9375 
Q 42.484375 32.515625 42.4375 33.6875 
Q 39.796875 29.5 35.234375 26.875 
Q 30.671875 24.265625 25.34375 24.265625 
Q 16.453125 24.265625 10.296875 30.703125 
Q 4.15625 37.15625 4.15625 47.703125 
Q 4.15625 58.59375 10.578125 65.234375 
Q 17 71.875 26.65625 71.875 
Q 33.640625 71.875 39.421875 68.109375 
Q 45.21875 64.359375 48.21875 57.390625 
Q 51.21875 50.4375 51.21875 37.25 
Q 51.21875 23.53125 48.234375 15.40625 
Q 45.265625 7.28125 39.375 3.03125 
Q 33.5 -1.21875 25.59375 -1.21875 
Q 17.1875 -1.21875 11.859375 3.4375 
Q 6.546875 8.109375 5.46875 16.546875 
z
M 41.453125 48.140625 
Q 41.453125 55.71875 37.421875 60.15625 
Q 33.40625 64.59375 27.734375 64.59375 
Q 21.875 64.59375 17.53125 59.8125 
Q 13.1875 55.03125 13.1875 47.40625 
Q 13.1875 40.578125 17.3125 36.296875 
Q 21.4375 32.03125 27.484375 32.03125 
Q 33.59375 32.03125 37.515625 36.296875 
Q 41.453125 40.578125 41.453125 48.140625 
z
" id="ArialMT-57"/>
      <path d="M 4.734375 62.203125 
L 4.734375 70.65625 
L 51.078125 70.65625 
L 51.078125 63.8125 
Q 44.234375 56.546875 37.515625 44.484375 
Q 30.8125 32.421875 27.15625 19.671875 
Q 24.515625 10.6875 23.78125 0 
L 14.75 0 
Q 14.890625 8.453125 18.0625 20.40625 
Q 21.234375 32.375 27.171875 43.484375 
Q 33.109375 54.59375 39.796875 62.203125 
z
" id="ArialMT-55"/>
      <path d="M 12.359375 -21.046875 
L 6.0625 -21.046875 
Q 20.65625 2.390625 20.65625 25.875 
Q 20.65625 35.0625 18.5625 44.09375 
Q 16.890625 51.421875 13.921875 58.15625 
Q 12.015625 62.546875 6.0625 72.796875 
L 12.359375 72.796875 
Q 21.53125 60.546875 25.921875 48.1875 
Q 29.6875 37.546875 29.6875 25.921875 
Q 29.6875 12.75 24.625 0.4375 
Q 19.578125 -11.859375 12.359375 -21.046875 
z
" id="ArialMT-41"/>
     </defs>
     <g transform="translate(202.76 61.04)scale(0.2 -0.2)">
      <use transform="translate(0 0.203125)" xlink:href="#ArialMT-53"/>
      <use transform="translate(55.615234 0.203125)" xlink:href="#ArialMT-48"/>
      <use transform="translate(111.230469 0.203125)" xlink:href="#ArialMT-48"/>
      <use transform="translate(166.845703 0.203125)" xlink:href="#ArialMT-120"/>
      <use transform="translate(216.845703 0.203125)" xlink:href="#ArialMT-53"/>
      <use transform="translate(272.460938 0.203125)" xlink:href="#ArialMT-48"/>
      <use transform="translate(328.076172 0.203125)" xlink:href="#ArialMT-48"/>
      <use transform="translate(383.691406 0.203125)" xlink:href="#ArialMT-32"/>
      <use transform="translate(411.474609 0.203125)" xlink:href="#ArialMT-40"/>
      <use transform="translate(444.775391 0.203125)" xlink:href="#ArialMT-98"/>
      <use transform="translate(500.390625 0.203125)" xlink:href="#ArialMT-105"/>
      <use transform="translate(522.607422 0.203125)" xlink:href="#ArialMT-110"/>
      <use transform="translate(578.222656 0.203125)" xlink:href="#ArialMT-32"/>
      <use transform="translate(606.005859 0.203125)" xlink:href="#ArialMT-115"/>
      <use transform="translate(656.005859 0.203125)" xlink:href="#ArialMT-105"/>
      <use transform="translate(678.222656 0.203125)" xlink:href="#ArialMT-122"/>
      <use transform="translate(728.222656 0.203125)" xlink:href="#ArialMT-101"/>
      <use transform="translate(783.837891 0.203125)" xlink:href="#ArialMT-58"/>
      <use transform="translate(811.621094 0.203125)" xlink:href="#ArialMT-32"/>
      <use transform="translate(839.404297 0.203125)" xlink:href="#ArialMT-49"/>
      <use transform="translate(895.019531 0.203125)" xlink:href="#ArialMT-48"/>
      <use transform="translate(950.634766 0.203125)" xlink:href="#ArialMT-48"/>
      <use transform="translate(1006.25 0.203125)" xlink:href="#ArialMT-32"/>
      <use transform="translate(1034.033203 0.203125)" xlink:href="#ArialMT-107"/>
      <use transform="translate(1084.033203 0.203125)" xlink:href="#ArialMT-98"/>
      <use transform="translate(1139.648438 0.203125)" xlink:href="#ArialMT-44"/>
      <use transform="translate(1167.431641 0.203125)" xlink:href="#ArialMT-32"/>
      <use transform="translate(1195.214844 0.203125)" xlink:href="#DejaVuSans-Oblique-114"/>
      <use transform="translate(1236.328125 0.203125)" xlink:href="#ArialMT-32"/>
      <use transform="translate(1264.111328 0.203125)" xlink:href="#ArialMT-61"/>
      <use transform="translate(1322.509766 0.203125)" xlink:href="#ArialMT-32"/>
      <use transform="translate(1350.292969 0.203125)" xlink:href="#ArialMT-48"/>
      <use transform="translate(1405.908203 0.203125)" xlink:href="#ArialMT-46"/>
      <use transform="translate(1433.691406 0.203125)" xlink:href="#ArialMT-57"/>
      <use transform="translate(1489.306641 0.203125)" xlink:href="#ArialMT-55"/>
      <use transform="translate(1544.90625 0.203125)" xlink:href="#ArialMT-50"/>
      <use transform="translate(1600.521484 0.203125)" xlink:href="#ArialMT-41"/>
     </g>
    </g>
    <g id="line2d_16">
     <path d="M 146.76 83.04 
L 186.76 83.04 
" style="fill:none;stroke:#31688e;stroke-linecap:square;stroke-width:3;"/>
    </g>
    <g id="line2d_17"/>
    <g id="text_13">
     <!-- 200x200 (bin size: 250 kb, $r$ = 0.984) -->
     <defs>
      <path d="M 17.671875 38.8125 
Q 12.203125 40.828125 9.5625 44.53125 
Q 6.9375 48.25 6.9375 53.421875 
Q 6.9375 61.234375 12.546875 66.546875 
Q 18.171875 71.875 27.484375 71.875 
Q 36.859375 71.875 42.578125 66.421875 
Q 48.296875 60.984375 48.296875 53.171875 
Q 48.296875 48.1875 45.671875 44.5 
Q 43.0625 40.828125 37.75 38.8125 
Q 44.34375 36.671875 47.78125 31.875 
Q 51.21875 27.09375 51.21875 20.453125 
Q 51.21875 11.28125 44.71875 5.03125 
Q 38.234375 -1.21875 27.640625 -1.21875 
Q 17.046875 -1.21875 10.546875 5.046875 
Q 4.046875 11.328125 4.046875 20.703125 
Q 4.046875 27.6875 7.59375 32.390625 
Q 11.140625 37.109375 17.671875 38.8125 
z
M 15.921875 53.71875 
Q 15.921875 48.640625 19.1875 45.40625 
Q 22.46875 42.1875 27.6875 42.1875 
Q 32.765625 42.1875 36.015625 45.375 
Q 39.265625 48.578125 39.265625 53.21875 
Q 39.265625 58.0625 35.90625 61.359375 
Q 32.5625 64.65625 27.59375 64.65625 
Q 22.5625 64.65625 19.234375 61.421875 
Q 15.921875 58.203125 15.921875 53.71875 
z
M 13.09375 20.65625 
Q 13.09375 16.890625 14.875 13.375 
Q 16.65625 9.859375 20.171875 7.921875 
Q 23.6875 6 27.734375 6 
Q 34.03125 6 38.125 10.046875 
Q 42.234375 14.109375 42.234375 20.359375 
Q 42.234375 26.703125 38.015625 30.859375 
Q 33.796875 35.015625 27.4375 35.015625 
Q 21.234375 35.015625 17.15625 30.90625 
Q 13.09375 26.8125 13.09375 20.65625 
z
" id="ArialMT-56"/>
     </defs>
     <g transform="translate(202.76 90.04)scale(0.2 -0.2)">
      <use transform="translate(0 0.203125)" xlink:href="#ArialMT-50"/>
      <use transform="translate(55.615234 0.203125)" xlink:href="#ArialMT-48"/>
      <use transform="translate(111.230469 0.203125)" xlink:href="#ArialMT-48"/>
      <use transform="translate(166.845703 0.203125)" xlink:href="#ArialMT-120"/>
      <use transform="translate(216.845703 0.203125)" xlink:href="#ArialMT-50"/>
      <use transform="translate(272.460938 0.203125)" xlink:href="#ArialMT-48"/>
      <use transform="translate(328.076172 0.203125)" xlink:href="#ArialMT-48"/>
      <use transform="translate(383.691406 0.203125)" xlink:href="#ArialMT-32"/>
      <use transform="translate(411.474609 0.203125)" xlink:href="#ArialMT-40"/>
      <use transform="translate(444.775391 0.203125)" xlink:href="#ArialMT-98"/>
      <use transform="translate(500.390625 0.203125)" xlink:href="#ArialMT-105"/>
      <use transform="translate(522.607422 0.203125)" xlink:href="#ArialMT-110"/>
      <use transform="translate(578.222656 0.203125)" xlink:href="#ArialMT-32"/>
      <use transform="translate(606.005859 0.203125)" xlink:href="#ArialMT-115"/>
      <use transform="translate(656.005859 0.203125)" xlink:href="#ArialMT-105"/>
      <use transform="translate(678.222656 0.203125)" xlink:href="#ArialMT-122"/>
      <use transform="translate(728.222656 0.203125)" xlink:href="#ArialMT-101"/>
      <use transform="translate(783.837891 0.203125)" xlink:href="#ArialMT-58"/>
      <use transform="translate(811.621094 0.203125)" xlink:href="#ArialMT-32"/>
      <use transform="translate(839.404297 0.203125)" xlink:href="#ArialMT-50"/>
      <use transform="translate(895.019531 0.203125)" xlink:href="#ArialMT-53"/>
      <use transform="translate(950.634766 0.203125)" xlink:href="#ArialMT-48"/>
      <use transform="translate(1006.25 0.203125)" xlink:href="#ArialMT-32"/>
      <use transform="translate(1034.033203 0.203125)" xlink:href="#ArialMT-107"/>
      <use transform="translate(1084.033203 0.203125)" xlink:href="#ArialMT-98"/>
      <use transform="translate(1139.648438 0.203125)" xlink:href="#ArialMT-44"/>
      <use transform="translate(1167.431641 0.203125)" xlink:href="#ArialMT-32"/>
      <use transform="translate(1195.214844 0.203125)" xlink:href="#DejaVuSans-Oblique-114"/>
      <use transform="translate(1236.328125 0.203125)" xlink:href="#ArialMT-32"/>
      <use transform="translate(1264.111328 0.203125)" xlink:href="#ArialMT-61"/>
      <use transform="translate(1322.509766 0.203125)" xlink:href="#ArialMT-32"/>
      <use transform="translate(1350.292969 0.203125)" xlink:href="#ArialMT-48"/>
      <use transform="translate(1405.908203 0.203125)" xlink:href="#ArialMT-46"/>
      <use transform="translate(1433.691406 0.203125)" xlink:href="#ArialMT-57"/>
      <use transform="translate(1489.306641 0.203125)" xlink:href="#ArialMT-56"/>
      <use transform="translate(1544.921875 0.203125)" xlink:href="#ArialMT-52"/>
      <use transform="translate(1600.537109 0.203125)" xlink:href="#ArialMT-41"/>
     </g>
    </g>
    <g id="line2d_18">
     <path d="M 146.76 112.04 
L 186.76 112.04 
" style="fill:none;stroke:#35b779;stroke-linecap:square;stroke-width:3;"/>
    </g>
    <g id="line2d_19"/>
    <g id="text_14">
     <!-- 100x100 (bin size: 500 kb, $r$ = 0.990) -->
     <g transform="translate(202.76 119.04)scale(0.2 -0.2)">
      <use transform="translate(0 0.203125)" xlink:href="#ArialMT-49"/>
      <use transform="translate(55.615234 0.203125)" xlink:href="#ArialMT-48"/>
      <use transform="translate(111.230469 0.203125)" xlink:href="#ArialMT-48"/>
      <use transform="translate(166.845703 0.203125)" xlink:href="#ArialMT-120"/>
      <use transform="translate(216.845703 0.203125)" xlink:href="#ArialMT-49"/>
      <use transform="translate(272.460938 0.203125)" xlink:href="#ArialMT-48"/>
      <use transform="translate(328.076172 0.203125)" xlink:href="#ArialMT-48"/>
      <use transform="translate(383.691406 0.203125)" xlink:href="#ArialMT-32"/>
      <use transform="translate(411.474609 0.203125)" xlink:href="#ArialMT-40"/>
      <use transform="translate(444.775391 0.203125)" xlink:href="#ArialMT-98"/>
      <use transform="translate(500.390625 0.203125)" xlink:href="#ArialMT-105"/>
      <use transform="translate(522.607422 0.203125)" xlink:href="#ArialMT-110"/>
      <use transform="translate(578.222656 0.203125)" xlink:href="#ArialMT-32"/>
      <use transform="translate(606.005859 0.203125)" xlink:href="#ArialMT-115"/>
      <use transform="translate(656.005859 0.203125)" xlink:href="#ArialMT-105"/>
      <use transform="translate(678.222656 0.203125)" xlink:href="#ArialMT-122"/>
      <use transform="translate(728.222656 0.203125)" xlink:href="#ArialMT-101"/>
      <use transform="translate(783.837891 0.203125)" xlink:href="#ArialMT-58"/>
      <use transform="translate(811.621094 0.203125)" xlink:href="#ArialMT-32"/>
      <use transform="translate(839.404297 0.203125)" xlink:href="#ArialMT-53"/>
      <use transform="translate(895.019531 0.203125)" xlink:href="#ArialMT-48"/>
      <use transform="translate(950.634766 0.203125)" xlink:href="#ArialMT-48"/>
      <use transform="translate(1006.25 0.203125)" xlink:href="#ArialMT-32"/>
      <use transform="translate(1034.033203 0.203125)" xlink:href="#ArialMT-107"/>
      <use transform="translate(1084.033203 0.203125)" xlink:href="#ArialMT-98"/>
      <use transform="translate(1139.648438 0.203125)" xlink:href="#ArialMT-44"/>
      <use transform="translate(1167.431641 0.203125)" xlink:href="#ArialMT-32"/>
      <use transform="translate(1195.214844 0.203125)" xlink:href="#DejaVuSans-Oblique-114"/>
      <use transform="translate(1236.328125 0.203125)" xlink:href="#ArialMT-32"/>
      <use transform="translate(1264.111328 0.203125)" xlink:href="#ArialMT-61"/>
      <use transform="translate(1322.509766 0.203125)" xlink:href="#ArialMT-32"/>
      <use transform="translate(1350.292969 0.203125)" xlink:href="#ArialMT-48"/>
      <use transform="translate(1405.908203 0.203125)" xlink:href="#ArialMT-46"/>
      <use transform="translate(1433.691406 0.203125)" xlink:href="#ArialMT-57"/>
      <use transform="translate(1489.306641 0.203125)" xlink:href="#ArialMT-57"/>
      <use transform="translate(1544.921875 0.203125)" xlink:href="#ArialMT-48"/>
      <use transform="translate(1600.537109 0.203125)" xlink:href="#ArialMT-41"/>
     </g>
    </g>
    <g id="line2d_20">
     <path d="M 146.76 141.04 
L 186.76 141.04 
" style="fill:none;stroke:#fde725;stroke-linecap:square;stroke-width:3;"/>
    </g>
    <g id="line2d_21"/>
    <g id="text_15">
     <!-- 50x50 (bin size: 1 Mb, $r$ = 0.995) -->
     <defs>
      <path d="M 7.421875 0 
L 7.421875 71.578125 
L 21.6875 71.578125 
L 38.625 20.90625 
Q 40.96875 13.8125 42.046875 10.296875 
Q 43.265625 14.203125 45.84375 21.78125 
L 62.984375 71.578125 
L 75.734375 71.578125 
L 75.734375 0 
L 66.609375 0 
L 66.609375 59.90625 
L 45.796875 0 
L 37.25 0 
L 16.546875 60.9375 
L 16.546875 0 
z
" id="ArialMT-77"/>
     </defs>
     <g transform="translate(202.76 148.04)scale(0.2 -0.2)">
      <use transform="translate(0 0.203125)" xlink:href="#ArialMT-53"/>
      <use transform="translate(55.615234 0.203125)" xlink:href="#ArialMT-48"/>
      <use transform="translate(111.230469 0.203125)" xlink:href="#ArialMT-120"/>
      <use transform="translate(161.230469 0.203125)" xlink:href="#ArialMT-53"/>
      <use transform="translate(216.845703 0.203125)" xlink:href="#ArialMT-48"/>
      <use transform="translate(272.460938 0.203125)" xlink:href="#ArialMT-32"/>
      <use transform="translate(300.244141 0.203125)" xlink:href="#ArialMT-40"/>
      <use transform="translate(333.544922 0.203125)" xlink:href="#ArialMT-98"/>
      <use transform="translate(389.160156 0.203125)" xlink:href="#ArialMT-105"/>
      <use transform="translate(411.376953 0.203125)" xlink:href="#ArialMT-110"/>
      <use transform="translate(466.992188 0.203125)" xlink:href="#ArialMT-32"/>
      <use transform="translate(494.775391 0.203125)" xlink:href="#ArialMT-115"/>
      <use transform="translate(544.775391 0.203125)" xlink:href="#ArialMT-105"/>
      <use transform="translate(566.992188 0.203125)" xlink:href="#ArialMT-122"/>
      <use transform="translate(616.992188 0.203125)" xlink:href="#ArialMT-101"/>
      <use transform="translate(672.607422 0.203125)" xlink:href="#ArialMT-58"/>
      <use transform="translate(700.390625 0.203125)" xlink:href="#ArialMT-32"/>
      <use transform="translate(728.173828 0.203125)" xlink:href="#ArialMT-49"/>
      <use transform="translate(783.789062 0.203125)" xlink:href="#ArialMT-32"/>
      <use transform="translate(811.572266 0.203125)" xlink:href="#ArialMT-77"/>
      <use transform="translate(894.873047 0.203125)" xlink:href="#ArialMT-98"/>
      <use transform="translate(950.488281 0.203125)" xlink:href="#ArialMT-44"/>
      <use transform="translate(978.271484 0.203125)" xlink:href="#ArialMT-32"/>
      <use transform="translate(1006.054688 0.203125)" xlink:href="#DejaVuSans-Oblique-114"/>
      <use transform="translate(1047.167969 0.203125)" xlink:href="#ArialMT-32"/>
      <use transform="translate(1074.951172 0.203125)" xlink:href="#ArialMT-61"/>
      <use transform="translate(1133.349609 0.203125)" xlink:href="#ArialMT-32"/>
      <use transform="translate(1161.132812 0.203125)" xlink:href="#ArialMT-48"/>
      <use transform="translate(1216.748047 0.203125)" xlink:href="#ArialMT-46"/>
      <use transform="translate(1244.53125 0.203125)" xlink:href="#ArialMT-57"/>
      <use transform="translate(1300.146484 0.203125)" xlink:href="#ArialMT-57"/>
      <use transform="translate(1355.761719 0.203125)" xlink:href="#ArialMT-53"/>
      <use transform="translate(1411.376953 0.203125)" xlink:href="#ArialMT-41"/>
     </g>
    </g>
   </g>
  </g>
 </g>
 <defs>
  <clipPath id="peebfb79310">
   <rect height="322" width="448.27" x="99.29" y="28.44"/>
  </clipPath>
 </defs>
</svg>
