<?xml version="1.0" encoding="utf-8" standalone="no"?>
<!DOCTYPE svg PUBLIC "-//W3C//DTD SVG 1.1//EN"
  "http://www.w3.org/Graphics/SVG/1.1/DTD/svg11.dtd">
<!-- Created with matplotlib (http://matplotlib.org/) -->
<svg height="144pt" version="1.1" viewBox="0 0 720 144" width="720pt" xmlns="http://www.w3.org/2000/svg" xmlns:xlink="http://www.w3.org/1999/xlink">
 <defs>
  <style type="text/css">
*{stroke-linecap:butt;stroke-linejoin:round;}
  </style>
 </defs>
 <g id="figure_1">
  <g id="patch_1">
   <path d="M 0 144 
L 720 144 
L 720 0 
L 0 0 
z
" style="fill:#ffffff;"/>
  </g>
  <g id="axes_1">
   <g id="patch_2">
    <path d="M 79.63 88.76 
L 675.685227 88.76 
L 675.685227 34.56 
L 79.63 34.56 
z
" style="fill:#ffffff;"/>
   </g>
   <g id="patch_3">
    <path clip-path="url(#pab9e224791)" d="M 106.723419 88.76 
L 112.367882 88.76 
L 112.367882 71.818598 
L 106.723419 71.818598 
z
" style="fill:#ff0000;"/>
   </g>
   <g id="patch_4">
    <path clip-path="url(#pab9e224791)" d="M 112.367882 88.76 
L 118.012344 88.76 
L 118.012344 54.649122 
L 112.367882 54.649122 
z
" style="fill:#ff0000;"/>
   </g>
   <g id="patch_5">
    <path clip-path="url(#pab9e224791)" d="M 118.012344 88.76 
L 123.656807 88.76 
L 123.656807 62.42487 
L 118.012344 62.42487 
z
" style="fill:#ff0000;"/>
   </g>
   <g id="patch_6">
    <path clip-path="url(#pab9e224791)" d="M 123.656807 88.76 
L 129.301269 88.76 
L 129.301269 57.571586 
L 123.656807 57.571586 
z
" style="fill:#ff0000;"/>
   </g>
   <g id="patch_7">
    <path clip-path="url(#pab9e224791)" d="M 129.301269 88.76 
L 134.945731 88.76 
L 134.945731 66.093235 
L 129.301269 66.093235 
z
" style="fill:#ff0000;"/>
   </g>
   <g id="patch_8">
    <path clip-path="url(#pab9e224791)" d="M 134.945731 88.76 
L 140.590194 88.76 
L 140.590194 54.965866 
L 134.945731 54.965866 
z
" style="fill:#ff0000;"/>
   </g>
   <g id="patch_9">
    <path clip-path="url(#pab9e224791)" d="M 140.590194 88.76 
L 146.234656 88.76 
L 146.234656 59.263276 
L 140.590194 59.263276 
z
" style="fill:#ff0000;"/>
   </g>
   <g id="patch_10">
    <path clip-path="url(#pab9e224791)" d="M 146.234656 88.76 
L 151.879118 88.76 
L 151.879118 55.352312 
L 146.234656 55.352312 
z
" style="fill:#ff0000;"/>
   </g>
   <g id="patch_11">
    <path clip-path="url(#pab9e224791)" d="M 151.879118 88.76 
L 157.523581 88.76 
L 157.523581 58.377865 
L 151.879118 58.377865 
z
" style="fill:#ff0000;"/>
   </g>
   <g id="patch_12">
    <path clip-path="url(#pab9e224791)" d="M 157.523581 88.76 
L 163.168043 88.76 
L 163.168043 65.939307 
L 157.523581 65.939307 
z
" style="fill:#ff0000;"/>
   </g>
   <g id="patch_13">
    <path clip-path="url(#pab9e224791)" d="M 163.168043 88.76 
L 168.812506 88.76 
L 168.812506 62.383462 
L 163.168043 62.383462 
z
" style="fill:#ff0000;"/>
   </g>
   <g id="patch_14">
    <path clip-path="url(#pab9e224791)" d="M 168.812506 88.76 
L 174.456968 88.76 
L 174.456968 55.444452 
L 168.812506 55.444452 
z
" style="fill:#ff0000;"/>
   </g>
   <g id="patch_15">
    <path clip-path="url(#pab9e224791)" d="M 174.456968 88.76 
L 180.10143 88.76 
L 180.10143 60.496109 
L 174.456968 60.496109 
z
" style="fill:#ff0000;"/>
   </g>
   <g id="patch_16">
    <path clip-path="url(#pab9e224791)" d="M 180.10143 88.76 
L 185.745893 88.76 
L 185.745893 63.352774 
L 180.10143 63.352774 
z
" style="fill:#ff0000;"/>
   </g>
   <g id="patch_17">
    <path clip-path="url(#pab9e224791)" d="M 185.745893 88.76 
L 191.390355 88.76 
L 191.390355 56.697231 
L 185.745893 56.697231 
z
" style="fill:#ff0000;"/>
   </g>
   <g id="patch_18">
    <path clip-path="url(#pab9e224791)" d="M 191.390355 88.76 
L 197.034817 88.76 
L 197.034817 64.57802 
L 191.390355 64.57802 
z
" style="fill:#ff0000;"/>
   </g>
   <g id="patch_19">
    <path clip-path="url(#pab9e224791)" d="M 197.034817 88.76 
L 202.67928 88.76 
L 202.67928 65.047934 
L 197.034817 65.047934 
z
" style="fill:#ff0000;"/>
   </g>
   <g id="patch_20">
    <path clip-path="url(#pab9e224791)" d="M 202.67928 88.76 
L 208.323742 88.76 
L 208.323742 65.274706 
L 202.67928 65.274706 
z
" style="fill:#ff0000;"/>
   </g>
   <g id="patch_21">
    <path clip-path="url(#pab9e224791)" d="M 208.323742 88.76 
L 213.968205 88.76 
L 213.968205 52.035814 
L 208.323742 52.035814 
z
" style="fill:#ff0000;"/>
   </g>
   <g id="patch_22">
    <path clip-path="url(#pab9e224791)" d="M 213.968205 88.76 
L 219.612667 88.76 
L 219.612667 54.464516 
L 213.968205 54.464516 
z
" style="fill:#ff0000;"/>
   </g>
   <g id="patch_23">
    <path clip-path="url(#pab9e224791)" d="M 219.612667 88.76 
L 225.257129 88.76 
L 225.257129 56.821674 
L 219.612667 56.821674 
z
" style="fill:#ff0000;"/>
   </g>
   <g id="patch_24">
    <path clip-path="url(#pab9e224791)" d="M 225.257129 88.76 
L 230.901592 88.76 
L 230.901592 59.975356 
L 225.257129 59.975356 
z
" style="fill:#ff0000;"/>
   </g>
   <g id="patch_25">
    <path clip-path="url(#pab9e224791)" d="M 230.901592 88.76 
L 236.546054 88.76 
L 236.546054 62.167962 
L 230.901592 62.167962 
z
" style="fill:#ff0000;"/>
   </g>
   <g id="patch_26">
    <path clip-path="url(#pab9e224791)" d="M 236.546054 88.76 
L 242.190517 88.76 
L 242.190517 53.845986 
L 236.546054 53.845986 
z
" style="fill:#ff0000;"/>
   </g>
   <g id="patch_27">
    <path clip-path="url(#pab9e224791)" d="M 242.190517 88.76 
L 247.834979 88.76 
L 247.834979 64.043933 
L 242.190517 64.043933 
z
" style="fill:#ff0000;"/>
   </g>
   <g id="patch_28">
    <path clip-path="url(#pab9e224791)" d="M 247.834979 88.76 
L 253.479441 88.76 
L 253.479441 58.825882 
L 247.834979 58.825882 
z
" style="fill:#ff0000;"/>
   </g>
   <g id="patch_29">
    <path clip-path="url(#pab9e224791)" d="M 253.479441 88.76 
L 259.123904 88.76 
L 259.123904 56.136478 
L 253.479441 56.136478 
z
" style="fill:#ff0000;"/>
   </g>
   <g id="patch_30">
    <path clip-path="url(#pab9e224791)" d="M 259.123904 88.76 
L 264.768366 88.76 
L 264.768366 61.532955 
L 259.123904 61.532955 
z
" style="fill:#ff0000;"/>
   </g>
   <g id="patch_31">
    <path clip-path="url(#pab9e224791)" d="M 264.768366 88.76 
L 270.412828 88.76 
L 270.412828 59.584357 
L 264.768366 59.584357 
z
" style="fill:#ff0000;"/>
   </g>
   <g id="patch_32">
    <path clip-path="url(#pab9e224791)" d="M 270.412828 88.76 
L 276.057291 88.76 
L 276.057291 51.857171 
L 270.412828 51.857171 
z
" style="fill:#ff0000;"/>
   </g>
   <g id="patch_33">
    <path clip-path="url(#pab9e224791)" d="M 276.057291 88.76 
L 281.701753 88.76 
L 281.701753 56.7007 
L 276.057291 56.7007 
z
" style="fill:#ff0000;"/>
   </g>
   <g id="patch_34">
    <path clip-path="url(#pab9e224791)" d="M 281.701753 88.76 
L 287.346216 88.76 
L 287.346216 66.72976 
L 281.701753 66.72976 
z
" style="fill:#ff0000;"/>
   </g>
   <g id="patch_35">
    <path clip-path="url(#pab9e224791)" d="M 287.346216 88.76 
L 292.990678 88.76 
L 292.990678 62.074196 
L 287.346216 62.074196 
z
" style="fill:#ff0000;"/>
   </g>
   <g id="patch_36">
    <path clip-path="url(#pab9e224791)" d="M 292.990678 88.76 
L 298.63514 88.76 
L 298.63514 56.771268 
L 292.990678 56.771268 
z
" style="fill:#ff0000;"/>
   </g>
   <g id="patch_37">
    <path clip-path="url(#pab9e224791)" d="M 298.63514 88.76 
L 304.279603 88.76 
L 304.279603 63.960682 
L 298.63514 63.960682 
z
" style="fill:#ff0000;"/>
   </g>
   <g id="patch_38">
    <path clip-path="url(#pab9e224791)" d="M 304.279603 88.76 
L 309.924065 88.76 
L 309.924065 63.1905 
L 304.279603 63.1905 
z
" style="fill:#ff0000;"/>
   </g>
   <g id="patch_39">
    <path clip-path="url(#pab9e224791)" d="M 309.924065 88.76 
L 315.568527 88.76 
L 315.568527 57.563781 
L 309.924065 57.563781 
z
" style="fill:#ff0000;"/>
   </g>
   <g id="patch_40">
    <path clip-path="url(#pab9e224791)" d="M 315.568527 88.76 
L 321.21299 88.76 
L 321.21299 61.386832 
L 315.568527 61.386832 
z
" style="fill:#ff0000;"/>
   </g>
   <g id="patch_41">
    <path clip-path="url(#pab9e224791)" d="M 321.21299 88.76 
L 326.857452 88.76 
L 326.857452 66.17551 
L 321.21299 66.17551 
z
" style="fill:#ff0000;"/>
   </g>
   <g id="patch_42">
    <path clip-path="url(#pab9e224791)" d="M 326.857452 88.76 
L 332.501915 88.76 
L 332.501915 67.810508 
L 326.857452 67.810508 
z
" style="fill:#ff0000;"/>
   </g>
   <g id="patch_43">
    <path clip-path="url(#pab9e224791)" d="M 332.501915 88.76 
L 338.146377 88.76 
L 338.146377 52.174675 
L 332.501915 52.174675 
z
" style="fill:#ff0000;"/>
   </g>
   <g id="patch_44">
    <path clip-path="url(#pab9e224791)" d="M 338.146377 88.76 
L 343.790839 88.76 
L 343.790839 54.26376 
L 338.146377 54.26376 
z
" style="fill:#ff0000;"/>
   </g>
   <g id="patch_45">
    <path clip-path="url(#pab9e224791)" d="M 343.790839 88.76 
L 349.435302 88.76 
L 349.435302 53.48393 
L 343.790839 53.48393 
z
" style="fill:#ff0000;"/>
   </g>
   <g id="patch_46">
    <path clip-path="url(#pab9e224791)" d="M 349.435302 88.76 
L 355.079764 88.76 
L 355.079764 55.098765 
L 349.435302 55.098765 
z
" style="fill:#ff0000;"/>
   </g>
   <g id="patch_47">
    <path clip-path="url(#pab9e224791)" d="M 355.079764 88.76 
L 360.724226 88.76 
L 360.724226 54.204465 
L 355.079764 54.204465 
z
" style="fill:#ff0000;"/>
   </g>
   <g id="patch_48">
    <path clip-path="url(#pab9e224791)" d="M 360.724226 88.76 
L 366.368689 88.76 
L 366.368689 60.00148 
L 360.724226 60.00148 
z
" style="fill:#ff0000;"/>
   </g>
   <g id="patch_49">
    <path clip-path="url(#pab9e224791)" d="M 366.368689 88.76 
L 372.013151 88.76 
L 372.013151 53.647072 
L 366.368689 53.647072 
z
" style="fill:#ff0000;"/>
   </g>
   <g id="patch_50">
    <path clip-path="url(#pab9e224791)" d="M 372.013151 88.76 
L 377.657614 88.76 
L 377.657614 51.415658 
L 372.013151 51.415658 
z
" style="fill:#ff0000;"/>
   </g>
   <g id="patch_51">
    <path clip-path="url(#pab9e224791)" d="M 377.657614 88.76 
L 383.302076 88.76 
L 383.302076 53.019544 
L 377.657614 53.019544 
z
" style="fill:#ff0000;"/>
   </g>
   <g id="patch_52">
    <path clip-path="url(#pab9e224791)" d="M 383.302076 88.76 
L 388.946538 88.76 
L 388.946538 57.176684 
L 383.302076 57.176684 
z
" style="fill:#ff0000;"/>
   </g>
   <g id="patch_53">
    <path clip-path="url(#pab9e224791)" d="M 388.946538 88.76 
L 394.591001 88.76 
L 394.591001 53.676774 
L 388.946538 53.676774 
z
" style="fill:#ff0000;"/>
   </g>
   <g id="patch_54">
    <path clip-path="url(#pab9e224791)" d="M 394.591001 88.76 
L 400.235463 88.76 
L 400.235463 63.46692 
L 394.591001 63.46692 
z
" style="fill:#ff0000;"/>
   </g>
   <g id="patch_55">
    <path clip-path="url(#pab9e224791)" d="M 400.235463 88.76 
L 405.879926 88.76 
L 405.879926 63.503884 
L 400.235463 63.503884 
z
" style="fill:#ff0000;"/>
   </g>
   <g id="patch_56">
    <path clip-path="url(#pab9e224791)" d="M 405.879926 88.76 
L 411.524388 88.76 
L 411.524388 60.136438 
L 405.879926 60.136438 
z
" style="fill:#ff0000;"/>
   </g>
   <g id="patch_57">
    <path clip-path="url(#pab9e224791)" d="M 411.524388 88.76 
L 417.16885 88.76 
L 417.16885 62.645356 
L 411.524388 62.645356 
z
" style="fill:#ff0000;"/>
   </g>
   <g id="patch_58">
    <path clip-path="url(#pab9e224791)" d="M 417.16885 88.76 
L 422.813313 88.76 
L 422.813313 56.748288 
L 417.16885 56.748288 
z
" style="fill:#ff0000;"/>
   </g>
   <g id="patch_59">
    <path clip-path="url(#pab9e224791)" d="M 422.813313 88.76 
L 428.457775 88.76 
L 428.457775 63.969354 
L 422.813313 63.969354 
z
" style="fill:#ff0000;"/>
   </g>
   <g id="patch_60">
    <path clip-path="url(#pab9e224791)" d="M 428.457775 88.76 
L 434.102237 88.76 
L 434.102237 59.748149 
L 428.457775 59.748149 
z
" style="fill:#ff0000;"/>
   </g>
   <g id="patch_61">
    <path clip-path="url(#pab9e224791)" d="M 434.102237 88.76 
L 439.7467 88.76 
L 439.7467 61.174043 
L 434.102237 61.174043 
z
" style="fill:#ff0000;"/>
   </g>
   <g id="patch_62">
    <path clip-path="url(#pab9e224791)" d="M 439.7467 88.76 
L 445.391162 88.76 
L 445.391162 70.751942 
L 439.7467 70.751942 
z
" style="fill:#ff0000;"/>
   </g>
   <g id="patch_63">
    <path clip-path="url(#pab9e224791)" d="M 445.391162 88.76 
L 451.035625 88.76 
L 451.035625 54.30571 
L 445.391162 54.30571 
z
" style="fill:#ff0000;"/>
   </g>
   <g id="patch_64">
    <path clip-path="url(#pab9e224791)" d="M 451.035625 88.76 
L 456.680087 88.76 
L 456.680087 60.045599 
L 451.035625 60.045599 
z
" style="fill:#ff0000;"/>
   </g>
   <g id="patch_65">
    <path clip-path="url(#pab9e224791)" d="M 456.680087 88.76 
L 462.324549 88.76 
L 462.324549 60.338604 
L 456.680087 60.338604 
z
" style="fill:#ff0000;"/>
   </g>
   <g id="patch_66">
    <path clip-path="url(#pab9e224791)" d="M 462.324549 88.76 
L 467.969012 88.76 
L 467.969012 52.946808 
L 462.324549 52.946808 
z
" style="fill:#ff0000;"/>
   </g>
   <g id="patch_67">
    <path clip-path="url(#pab9e224791)" d="M 467.969012 88.76 
L 473.613474 88.76 
L 473.613474 56.503304 
L 467.969012 56.503304 
z
" style="fill:#ff0000;"/>
   </g>
   <g id="patch_68">
    <path clip-path="url(#pab9e224791)" d="M 473.613474 88.76 
L 479.257936 88.76 
L 479.257936 59.334061 
L 473.613474 59.334061 
z
" style="fill:#ff0000;"/>
   </g>
   <g id="patch_69">
    <path clip-path="url(#pab9e224791)" d="M 479.257936 88.76 
L 484.902399 88.76 
L 484.902399 61.223907 
L 479.257936 61.223907 
z
" style="fill:#ff0000;"/>
   </g>
   <g id="patch_70">
    <path clip-path="url(#pab9e224791)" d="M 484.902399 88.76 
L 490.546861 88.76 
L 490.546861 59.85243 
L 484.902399 59.85243 
z
" style="fill:#ff0000;"/>
   </g>
   <g id="patch_71">
    <path clip-path="url(#pab9e224791)" d="M 490.546861 88.76 
L 496.191324 88.76 
L 496.191324 61.829971 
L 490.546861 61.829971 
z
" style="fill:#ff0000;"/>
   </g>
   <g id="patch_72">
    <path clip-path="url(#pab9e224791)" d="M 496.191324 88.76 
L 501.835786 88.76 
L 501.835786 54.797196 
L 496.191324 54.797196 
z
" style="fill:#ff0000;"/>
   </g>
   <g id="patch_73">
    <path clip-path="url(#pab9e224791)" d="M 501.835786 88.76 
L 507.480248 88.76 
L 507.480248 64.433197 
L 501.835786 64.433197 
z
" style="fill:#ff0000;"/>
   </g>
   <g id="patch_74">
    <path clip-path="url(#pab9e224791)" d="M 507.480248 88.76 
L 513.124711 88.76 
L 513.124711 59.451784 
L 507.480248 59.451784 
z
" style="fill:#ff0000;"/>
   </g>
   <g id="patch_75">
    <path clip-path="url(#pab9e224791)" d="M 513.124711 88.76 
L 518.769173 88.76 
L 518.769173 67.18775 
L 513.124711 67.18775 
z
" style="fill:#ff0000;"/>
   </g>
   <g id="patch_76">
    <path clip-path="url(#pab9e224791)" d="M 518.769173 88.76 
L 524.413636 88.76 
L 524.413636 58.983387 
L 518.769173 58.983387 
z
" style="fill:#ff0000;"/>
   </g>
   <g id="patch_77">
    <path clip-path="url(#pab9e224791)" d="M 524.413636 88.76 
L 530.058098 88.76 
L 530.058098 72.241791 
L 524.413636 72.241791 
z
" style="fill:#ff0000;"/>
   </g>
   <g id="patch_78">
    <path clip-path="url(#pab9e224791)" d="M 530.058098 88.76 
L 535.70256 88.76 
L 535.70256 63.105948 
L 530.058098 63.105948 
z
" style="fill:#ff0000;"/>
   </g>
   <g id="patch_79">
    <path clip-path="url(#pab9e224791)" d="M 535.70256 88.76 
L 541.347023 88.76 
L 541.347023 59.39715 
L 535.70256 59.39715 
z
" style="fill:#ff0000;"/>
   </g>
   <g id="patch_80">
    <path clip-path="url(#pab9e224791)" d="M 541.347023 88.76 
L 546.991485 88.76 
L 546.991485 66.222014 
L 541.347023 66.222014 
z
" style="fill:#ff0000;"/>
   </g>
   <g id="patch_81">
    <path clip-path="url(#pab9e224791)" d="M 546.991485 88.76 
L 552.635947 88.76 
L 552.635947 59.043441 
L 546.991485 59.043441 
z
" style="fill:#ff0000;"/>
   </g>
   <g id="patch_82">
    <path clip-path="url(#pab9e224791)" d="M 552.635947 88.76 
L 558.28041 88.76 
L 558.28041 59.628476 
L 552.635947 59.628476 
z
" style="fill:#ff0000;"/>
   </g>
   <g id="patch_83">
    <path clip-path="url(#pab9e224791)" d="M 558.28041 88.76 
L 563.924872 88.76 
L 563.924872 60.570038 
L 558.28041 60.570038 
z
" style="fill:#ff0000;"/>
   </g>
   <g id="patch_84">
    <path clip-path="url(#pab9e224791)" d="M 563.924872 88.76 
L 569.569335 88.76 
L 569.569335 63.833745 
L 563.924872 63.833745 
z
" style="fill:#ff0000;"/>
   </g>
   <g id="patch_85">
    <path clip-path="url(#pab9e224791)" d="M 569.569335 88.76 
L 575.213797 88.76 
L 575.213797 57.958574 
L 569.569335 57.958574 
z
" style="fill:#ff0000;"/>
   </g>
   <g id="patch_86">
    <path clip-path="url(#pab9e224791)" d="M 575.213797 88.76 
L 580.858259 88.76 
L 580.858259 62.036582 
L 575.213797 62.036582 
z
" style="fill:#ff0000;"/>
   </g>
   <g id="patch_87">
    <path clip-path="url(#pab9e224791)" d="M 580.858259 88.76 
L 586.502722 88.76 
L 586.502722 58.661331 
L 580.858259 58.661331 
z
" style="fill:#ff0000;"/>
   </g>
   <g id="patch_88">
    <path clip-path="url(#pab9e224791)" d="M 586.502722 88.76 
L 592.147184 88.76 
L 592.147184 69.759648 
L 586.502722 69.759648 
z
" style="fill:#ff0000;"/>
   </g>
   <g id="patch_89">
    <path clip-path="url(#pab9e224791)" d="M 592.147184 88.76 
L 597.791646 88.76 
L 597.791646 55.369873 
L 592.147184 55.369873 
z
" style="fill:#ff0000;"/>
   </g>
   <g id="patch_90">
    <path clip-path="url(#pab9e224791)" d="M 597.791646 88.76 
L 603.436109 88.76 
L 603.436109 63.63559 
L 597.791646 63.63559 
z
" style="fill:#ff0000;"/>
   </g>
   <g id="patch_91">
    <path clip-path="url(#pab9e224791)" d="M 603.436109 88.76 
L 609.080571 88.76 
L 609.080571 61.345098 
L 603.436109 61.345098 
z
" style="fill:#ff0000;"/>
   </g>
   <g id="patch_92">
    <path clip-path="url(#pab9e224791)" d="M 609.080571 88.76 
L 614.725034 88.76 
L 614.725034 59.826631 
L 609.080571 59.826631 
z
" style="fill:#ff0000;"/>
   </g>
   <g id="patch_93">
    <path clip-path="url(#pab9e224791)" d="M 614.725034 88.76 
L 620.369496 88.76 
L 620.369496 61.279733 
L 614.725034 61.279733 
z
" style="fill:#ff0000;"/>
   </g>
   <g id="patch_94">
    <path clip-path="url(#pab9e224791)" d="M 620.369496 88.76 
L 626.013958 88.76 
L 626.013958 62.833972 
L 620.369496 62.833972 
z
" style="fill:#ff0000;"/>
   </g>
   <g id="patch_95">
    <path clip-path="url(#pab9e224791)" d="M 626.013958 88.76 
L 631.658421 88.76 
L 631.658421 63.195594 
L 626.013958 63.195594 
z
" style="fill:#ff0000;"/>
   </g>
   <g id="patch_96">
    <path clip-path="url(#pab9e224791)" d="M 631.658421 88.76 
L 637.302883 88.76 
L 637.302883 59.507718 
L 631.658421 59.507718 
z
" style="fill:#ff0000;"/>
   </g>
   <g id="patch_97">
    <path clip-path="url(#pab9e224791)" d="M 637.302883 88.76 
L 642.947345 88.76 
L 642.947345 61.2135 
L 637.302883 61.2135 
z
" style="fill:#ff0000;"/>
   </g>
   <g id="patch_98">
    <path clip-path="url(#pab9e224791)" d="M 642.947345 88.76 
L 648.591808 88.76 
L 648.591808 61.429 
L 642.947345 61.429 
z
" style="fill:#ff0000;"/>
   </g>
   <g id="matplotlib.axis_1">
    <g id="xtick_1">
     <g id="line2d_1">
      <defs>
       <path d="M 0 0 
L 0 3.5 
" id="m7b9e0ddaaf" style="stroke:#000000;stroke-width:0.8;"/>
      </defs>
      <g>
       <use style="stroke:#000000;stroke-width:0.8;" x="109.545651" xlink:href="#m7b9e0ddaaf" y="88.76"/>
      </g>
     </g>
     <g id="text_1">
      <!-- 0 -->
      <defs>
       <path d="M 4.15625 35.296875 
Q 4.15625 48 6.765625 55.734375 
Q 9.375 63.484375 14.515625 67.671875 
Q 19.671875 71.875 27.484375 71.875 
Q 33.25 71.875 37.59375 69.546875 
Q 41.9375 67.234375 44.765625 62.859375 
Q 47.609375 58.5 49.21875 52.21875 
Q 50.828125 45.953125 50.828125 35.296875 
Q 50.828125 22.703125 48.234375 14.96875 
Q 45.65625 7.234375 40.5 3 
Q 35.359375 -1.21875 27.484375 -1.21875 
Q 17.140625 -1.21875 11.234375 6.203125 
Q 4.15625 15.140625 4.15625 35.296875 
z
M 13.1875 35.296875 
Q 13.1875 17.671875 17.3125 11.828125 
Q 21.4375 6 27.484375 6 
Q 33.546875 6 37.671875 11.859375 
Q 41.796875 17.71875 41.796875 35.296875 
Q 41.796875 52.984375 37.671875 58.78125 
Q 33.546875 64.59375 27.390625 64.59375 
Q 21.34375 64.59375 17.71875 59.46875 
Q 13.1875 52.9375 13.1875 35.296875 
z
" id="ArialMT-30"/>
      </defs>
      <g transform="translate(102.872526 112.93875)scale(0.24 -0.24)">
       <use xlink:href="#ArialMT-30"/>
      </g>
     </g>
    </g>
    <g id="xtick_2">
     <g id="line2d_2">
      <g>
       <use style="stroke:#000000;stroke-width:0.8;" x="222.434898" xlink:href="#m7b9e0ddaaf" y="88.76"/>
      </g>
     </g>
     <g id="text_2">
      <!-- 20 -->
      <defs>
       <path d="M 50.34375 8.453125 
L 50.34375 0 
L 3.03125 0 
Q 2.9375 3.171875 4.046875 6.109375 
Q 5.859375 10.9375 9.828125 15.625 
Q 13.8125 20.3125 21.34375 26.46875 
Q 33.015625 36.03125 37.109375 41.625 
Q 41.21875 47.21875 41.21875 52.203125 
Q 41.21875 57.421875 37.46875 61 
Q 33.734375 64.59375 27.734375 64.59375 
Q 21.390625 64.59375 17.578125 60.78125 
Q 13.765625 56.984375 13.71875 50.25 
L 4.6875 51.171875 
Q 5.609375 61.28125 11.65625 66.578125 
Q 17.71875 71.875 27.9375 71.875 
Q 38.234375 71.875 44.234375 66.15625 
Q 50.25 60.453125 50.25 52 
Q 50.25 47.703125 48.484375 43.546875 
Q 46.734375 39.40625 42.65625 34.8125 
Q 38.578125 30.21875 29.109375 22.21875 
Q 21.1875 15.578125 18.9375 13.203125 
Q 16.703125 10.84375 15.234375 8.453125 
z
" id="ArialMT-32"/>
      </defs>
      <g transform="translate(209.088648 112.93875)scale(0.24 -0.24)">
       <use xlink:href="#ArialMT-32"/>
       <use x="55.615234" xlink:href="#ArialMT-30"/>
      </g>
     </g>
    </g>
    <g id="xtick_3">
     <g id="line2d_3">
      <g>
       <use style="stroke:#000000;stroke-width:0.8;" x="335.324146" xlink:href="#m7b9e0ddaaf" y="88.76"/>
      </g>
     </g>
     <g id="text_3">
      <!-- 40 -->
      <defs>
       <path d="M 32.328125 0 
L 32.328125 17.140625 
L 1.265625 17.140625 
L 1.265625 25.203125 
L 33.9375 71.578125 
L 41.109375 71.578125 
L 41.109375 25.203125 
L 50.78125 25.203125 
L 50.78125 17.140625 
L 41.109375 17.140625 
L 41.109375 0 
z
M 32.328125 25.203125 
L 32.328125 57.46875 
L 9.90625 25.203125 
z
" id="ArialMT-34"/>
      </defs>
      <g transform="translate(321.977896 112.93875)scale(0.24 -0.24)">
       <use xlink:href="#ArialMT-34"/>
       <use x="55.615234" xlink:href="#ArialMT-30"/>
      </g>
     </g>
    </g>
    <g id="xtick_4">
     <g id="line2d_4">
      <g>
       <use style="stroke:#000000;stroke-width:0.8;" x="448.213393" xlink:href="#m7b9e0ddaaf" y="88.76"/>
      </g>
     </g>
     <g id="text_4">
      <!-- 60 -->
      <defs>
       <path d="M 49.75 54.046875 
L 41.015625 53.375 
Q 39.84375 58.546875 37.703125 60.890625 
Q 34.125 64.65625 28.90625 64.65625 
Q 24.703125 64.65625 21.53125 62.3125 
Q 17.390625 59.28125 14.984375 53.46875 
Q 12.59375 47.65625 12.5 36.921875 
Q 15.671875 41.75 20.265625 44.09375 
Q 24.859375 46.4375 29.890625 46.4375 
Q 38.671875 46.4375 44.84375 39.96875 
Q 51.03125 33.5 51.03125 23.25 
Q 51.03125 16.5 48.125 10.71875 
Q 45.21875 4.9375 40.140625 1.859375 
Q 35.0625 -1.21875 28.609375 -1.21875 
Q 17.625 -1.21875 10.6875 6.859375 
Q 3.765625 14.9375 3.765625 33.5 
Q 3.765625 54.25 11.421875 63.671875 
Q 18.109375 71.875 29.4375 71.875 
Q 37.890625 71.875 43.28125 67.140625 
Q 48.6875 62.40625 49.75 54.046875 
z
M 13.875 23.1875 
Q 13.875 18.65625 15.796875 14.5 
Q 17.71875 10.359375 21.1875 8.171875 
Q 24.65625 6 28.46875 6 
Q 34.03125 6 38.03125 10.484375 
Q 42.046875 14.984375 42.046875 22.703125 
Q 42.046875 30.125 38.078125 34.390625 
Q 34.125 38.671875 28.125 38.671875 
Q 22.171875 38.671875 18.015625 34.390625 
Q 13.875 30.125 13.875 23.1875 
z
" id="ArialMT-36"/>
      </defs>
      <g transform="translate(434.867143 112.93875)scale(0.24 -0.24)">
       <use xlink:href="#ArialMT-36"/>
       <use x="55.615234" xlink:href="#ArialMT-30"/>
      </g>
     </g>
    </g>
    <g id="xtick_5">
     <g id="line2d_5">
      <g>
       <use style="stroke:#000000;stroke-width:0.8;" x="561.102641" xlink:href="#m7b9e0ddaaf" y="88.76"/>
      </g>
     </g>
     <g id="text_5">
      <!-- 80 -->
      <defs>
       <path d="M 17.671875 38.8125 
Q 12.203125 40.828125 9.5625 44.53125 
Q 6.9375 48.25 6.9375 53.421875 
Q 6.9375 61.234375 12.546875 66.546875 
Q 18.171875 71.875 27.484375 71.875 
Q 36.859375 71.875 42.578125 66.421875 
Q 48.296875 60.984375 48.296875 53.171875 
Q 48.296875 48.1875 45.671875 44.5 
Q 43.0625 40.828125 37.75 38.8125 
Q 44.34375 36.671875 47.78125 31.875 
Q 51.21875 27.09375 51.21875 20.453125 
Q 51.21875 11.28125 44.71875 5.03125 
Q 38.234375 -1.21875 27.640625 -1.21875 
Q 17.046875 -1.21875 10.546875 5.046875 
Q 4.046875 11.328125 4.046875 20.703125 
Q 4.046875 27.6875 7.59375 32.390625 
Q 11.140625 37.109375 17.671875 38.8125 
z
M 15.921875 53.71875 
Q 15.921875 48.640625 19.1875 45.40625 
Q 22.46875 42.1875 27.6875 42.1875 
Q 32.765625 42.1875 36.015625 45.375 
Q 39.265625 48.578125 39.265625 53.21875 
Q 39.265625 58.0625 35.90625 61.359375 
Q 32.5625 64.65625 27.59375 64.65625 
Q 22.5625 64.65625 19.234375 61.421875 
Q 15.921875 58.203125 15.921875 53.71875 
z
M 13.09375 20.65625 
Q 13.09375 16.890625 14.875 13.375 
Q 16.65625 9.859375 20.171875 7.921875 
Q 23.6875 6 27.734375 6 
Q 34.03125 6 38.125 10.046875 
Q 42.234375 14.109375 42.234375 20.359375 
Q 42.234375 26.703125 38.015625 30.859375 
Q 33.796875 35.015625 27.4375 35.015625 
Q 21.234375 35.015625 17.15625 30.90625 
Q 13.09375 26.8125 13.09375 20.65625 
z
" id="ArialMT-38"/>
      </defs>
      <g transform="translate(547.756391 112.93875)scale(0.24 -0.24)">
       <use xlink:href="#ArialMT-38"/>
       <use x="55.615234" xlink:href="#ArialMT-30"/>
      </g>
     </g>
    </g>
    <g id="xtick_6">
     <g id="line2d_6">
      <g>
       <use style="stroke:#000000;stroke-width:0.8;" x="673.991889" xlink:href="#m7b9e0ddaaf" y="88.76"/>
      </g>
     </g>
     <g id="text_6">
      <!-- 100 -->
      <defs>
       <path d="M 37.25 0 
L 28.46875 0 
L 28.46875 56 
Q 25.296875 52.984375 20.140625 49.953125 
Q 14.984375 46.921875 10.890625 45.40625 
L 10.890625 53.90625 
Q 18.265625 57.375 23.78125 62.296875 
Q 29.296875 67.234375 31.59375 71.875 
L 37.25 71.875 
z
" id="ArialMT-31"/>
      </defs>
      <g transform="translate(653.972514 112.93875)scale(0.24 -0.24)">
       <use xlink:href="#ArialMT-31"/>
       <use x="55.615234" xlink:href="#ArialMT-30"/>
       <use x="111.230469" xlink:href="#ArialMT-30"/>
      </g>
     </g>
    </g>
   </g>
   <g id="matplotlib.axis_2">
    <g id="ytick_1">
     <g id="line2d_7">
      <defs>
       <path d="M 0 0 
L -3.5 0 
" id="m56fe91ec38" style="stroke:#000000;stroke-width:0.8;"/>
      </defs>
      <g>
       <use style="stroke:#000000;stroke-width:0.8;" x="79.63" xlink:href="#m56fe91ec38" y="88.76"/>
      </g>
     </g>
     <g id="text_7">
      <!-- 0.0 -->
      <defs>
       <path d="M 9.078125 0 
L 9.078125 10.015625 
L 19.09375 10.015625 
L 19.09375 0 
z
" id="ArialMT-2e"/>
      </defs>
      <g transform="translate(39.27 97.349375)scale(0.24 -0.24)">
       <use xlink:href="#ArialMT-30"/>
       <use x="55.615234" xlink:href="#ArialMT-2e"/>
       <use x="83.398438" xlink:href="#ArialMT-30"/>
      </g>
     </g>
    </g>
    <g id="ytick_2">
     <g id="line2d_8">
      <g>
       <use style="stroke:#000000;stroke-width:0.8;" x="79.63" xlink:href="#m56fe91ec38" y="34.56"/>
      </g>
     </g>
     <g id="text_8">
      <!-- 0.5 -->
      <defs>
       <path d="M 4.15625 18.75 
L 13.375 19.53125 
Q 14.40625 12.796875 18.140625 9.390625 
Q 21.875 6 27.15625 6 
Q 33.5 6 37.890625 10.78125 
Q 42.28125 15.578125 42.28125 23.484375 
Q 42.28125 31 38.0625 35.34375 
Q 33.84375 39.703125 27 39.703125 
Q 22.75 39.703125 19.328125 37.765625 
Q 15.921875 35.84375 13.96875 32.765625 
L 5.71875 33.84375 
L 12.640625 70.609375 
L 48.25 70.609375 
L 48.25 62.203125 
L 19.671875 62.203125 
L 15.828125 42.96875 
Q 22.265625 47.46875 29.34375 47.46875 
Q 38.71875 47.46875 45.15625 40.96875 
Q 51.609375 34.46875 51.609375 24.265625 
Q 51.609375 14.546875 45.953125 7.46875 
Q 39.0625 -1.21875 27.15625 -1.21875 
Q 17.390625 -1.21875 11.203125 4.25 
Q 5.03125 9.71875 4.15625 18.75 
z
" id="ArialMT-35"/>
      </defs>
      <g transform="translate(39.27 43.149375)scale(0.24 -0.24)">
       <use xlink:href="#ArialMT-30"/>
       <use x="55.615234" xlink:href="#ArialMT-2e"/>
       <use x="83.398438" xlink:href="#ArialMT-35"/>
      </g>
     </g>
    </g>
   </g>
   <g id="patch_99">
    <path d="M 79.63 88.76 
L 79.63 34.56 
" style="fill:none;stroke:#000000;stroke-linecap:square;stroke-linejoin:miter;stroke-width:0.8;"/>
   </g>
   <g id="patch_100">
    <path d="M 675.685227 88.76 
L 675.685227 34.56 
" style="fill:none;stroke:#000000;stroke-linecap:square;stroke-linejoin:miter;stroke-width:0.8;"/>
   </g>
   <g id="patch_101">
    <path d="M 79.63 88.76 
L 675.685227 88.76 
" style="fill:none;stroke:#000000;stroke-linecap:square;stroke-linejoin:miter;stroke-width:0.8;"/>
   </g>
   <g id="patch_102">
    <path d="M 79.63 34.56 
L 675.685227 34.56 
" style="fill:none;stroke:#000000;stroke-linecap:square;stroke-linejoin:miter;stroke-width:0.8;"/>
   </g>
  </g>
 </g>
 <defs>
  <clipPath id="pab9e224791">
   <rect height="54.2" width="596.055227" x="79.63" y="34.56"/>
  </clipPath>
 </defs>
</svg>
