<?xml version="1.0" encoding="utf-8" standalone="no"?>
<!DOCTYPE svg PUBLIC "-//W3C//DTD SVG 1.1//EN"
  "http://www.w3.org/Graphics/SVG/1.1/DTD/svg11.dtd">
<!-- Created with matplotlib (https://matplotlib.org/) -->
<svg height="720pt" version="1.1" viewBox="0 0 720 720" width="720pt" xmlns="http://www.w3.org/2000/svg" xmlns:xlink="http://www.w3.org/1999/xlink">
 <defs>
  <style type="text/css">
*{stroke-linecap:butt;stroke-linejoin:round;}
  </style>
 </defs>
 <g id="figure_1">
  <g id="patch_1">
   <path d="M 0 720 
L 720 720 
L 720 0 
L 0 0 
z
" style="fill:#ffffff;"/>
  </g>
  <g id="axes_1">
   <g id="patch_2">
    <path d="M 94.12 663.32 
L 659.655 663.32 
L 659.655 28.44 
L 94.12 28.44 
z
" style="fill:#ffffff;"/>
   </g>
   <g id="patch_3">
    <path clip-path="url(#p6cbecf05fc)" d="M 94.12 663.32 
L 99.77535 663.32 
L 99.77535 663.32 
L 94.12 663.32 
z
" style="fill:#1f77b4;"/>
   </g>
   <g id="patch_4">
    <path clip-path="url(#p6cbecf05fc)" d="M 99.77535 663.32 
L 105.4307 663.32 
L 105.4307 663.32 
L 99.77535 663.32 
z
" style="fill:#1f77b4;"/>
   </g>
   <g id="patch_5">
    <path clip-path="url(#p6cbecf05fc)" d="M 105.4307 663.32 
L 111.08605 663.32 
L 111.08605 663.32 
L 105.4307 663.32 
z
" style="fill:#1f77b4;"/>
   </g>
   <g id="patch_6">
    <path clip-path="url(#p6cbecf05fc)" d="M 111.08605 663.32 
L 116.7414 663.32 
L 116.7414 663.32 
L 111.08605 663.32 
z
" style="fill:#1f77b4;"/>
   </g>
   <g id="patch_7">
    <path clip-path="url(#p6cbecf05fc)" d="M 116.7414 663.32 
L 122.39675 663.32 
L 122.39675 663.32 
L 116.7414 663.32 
z
" style="fill:#1f77b4;"/>
   </g>
   <g id="patch_8">
    <path clip-path="url(#p6cbecf05fc)" d="M 122.39675 663.32 
L 128.0521 663.32 
L 128.0521 663.32 
L 122.39675 663.32 
z
" style="fill:#1f77b4;"/>
   </g>
   <g id="patch_9">
    <path clip-path="url(#p6cbecf05fc)" d="M 128.0521 663.32 
L 133.70745 663.32 
L 133.70745 663.32 
L 128.0521 663.32 
z
" style="fill:#1f77b4;"/>
   </g>
   <g id="patch_10">
    <path clip-path="url(#p6cbecf05fc)" d="M 133.70745 663.32 
L 139.3628 663.32 
L 139.3628 663.32 
L 133.70745 663.32 
z
" style="fill:#1f77b4;"/>
   </g>
   <g id="patch_11">
    <path clip-path="url(#p6cbecf05fc)" d="M 139.3628 663.32 
L 145.01815 663.32 
L 145.01815 663.32 
L 139.3628 663.32 
z
" style="fill:#1f77b4;"/>
   </g>
   <g id="patch_12">
    <path clip-path="url(#p6cbecf05fc)" d="M 145.01815 663.32 
L 150.6735 663.32 
L 150.6735 663.32 
L 145.01815 663.32 
z
" style="fill:#1f77b4;"/>
   </g>
   <g id="patch_13">
    <path clip-path="url(#p6cbecf05fc)" d="M 150.6735 663.32 
L 156.32885 663.32 
L 156.32885 663.32 
L 150.6735 663.32 
z
" style="fill:#1f77b4;"/>
   </g>
   <g id="patch_14">
    <path clip-path="url(#p6cbecf05fc)" d="M 156.32885 663.32 
L 161.9842 663.32 
L 161.9842 663.32 
L 156.32885 663.32 
z
" style="fill:#1f77b4;"/>
   </g>
   <g id="patch_15">
    <path clip-path="url(#p6cbecf05fc)" d="M 161.9842 663.32 
L 167.63955 663.32 
L 167.63955 663.32 
L 161.9842 663.32 
z
" style="fill:#1f77b4;"/>
   </g>
   <g id="patch_16">
    <path clip-path="url(#p6cbecf05fc)" d="M 167.63955 663.32 
L 173.2949 663.32 
L 173.2949 663.32 
L 167.63955 663.32 
z
" style="fill:#1f77b4;"/>
   </g>
   <g id="patch_17">
    <path clip-path="url(#p6cbecf05fc)" d="M 173.2949 663.32 
L 178.95025 663.32 
L 178.95025 663.32 
L 173.2949 663.32 
z
" style="fill:#1f77b4;"/>
   </g>
   <g id="patch_18">
    <path clip-path="url(#p6cbecf05fc)" d="M 178.95025 663.32 
L 184.6056 663.32 
L 184.6056 662.855906 
L 178.95025 662.855906 
z
" style="fill:#1f77b4;"/>
   </g>
   <g id="patch_19">
    <path clip-path="url(#p6cbecf05fc)" d="M 184.6056 663.32 
L 190.26095 663.32 
L 190.26095 662.855906 
L 184.6056 662.855906 
z
" style="fill:#1f77b4;"/>
   </g>
   <g id="patch_20">
    <path clip-path="url(#p6cbecf05fc)" d="M 190.26095 663.32 
L 195.9163 663.32 
L 195.9163 662.391813 
L 190.26095 662.391813 
z
" style="fill:#1f77b4;"/>
   </g>
   <g id="patch_21">
    <path clip-path="url(#p6cbecf05fc)" d="M 195.9163 663.32 
L 201.57165 663.32 
L 201.57165 661.463626 
L 195.9163 661.463626 
z
" style="fill:#1f77b4;"/>
   </g>
   <g id="patch_22">
    <path clip-path="url(#p6cbecf05fc)" d="M 201.57165 663.32 
L 207.227 663.32 
L 207.227 657.750877 
L 201.57165 657.750877 
z
" style="fill:#1f77b4;"/>
   </g>
   <g id="patch_23">
    <path clip-path="url(#p6cbecf05fc)" d="M 207.227 663.32 
L 212.88235 663.32 
L 212.88235 659.143158 
L 207.227 659.143158 
z
" style="fill:#1f77b4;"/>
   </g>
   <g id="patch_24">
    <path clip-path="url(#p6cbecf05fc)" d="M 212.88235 663.32 
L 218.5377 663.32 
L 218.5377 651.717661 
L 212.88235 651.717661 
z
" style="fill:#1f77b4;"/>
   </g>
   <g id="patch_25">
    <path clip-path="url(#p6cbecf05fc)" d="M 218.5377 663.32 
L 224.19305 663.32 
L 224.19305 659.143158 
L 218.5377 659.143158 
z
" style="fill:#1f77b4;"/>
   </g>
   <g id="patch_26">
    <path clip-path="url(#p6cbecf05fc)" d="M 224.19305 663.32 
L 229.8484 663.32 
L 229.8484 656.82269 
L 224.19305 656.82269 
z
" style="fill:#1f77b4;"/>
   </g>
   <g id="patch_27">
    <path clip-path="url(#p6cbecf05fc)" d="M 229.8484 663.32 
L 235.50375 663.32 
L 235.50375 652.645848 
L 229.8484 652.645848 
z
" style="fill:#1f77b4;"/>
   </g>
   <g id="patch_28">
    <path clip-path="url(#p6cbecf05fc)" d="M 235.50375 663.32 
L 241.1591 663.32 
L 241.1591 653.574035 
L 235.50375 653.574035 
z
" style="fill:#1f77b4;"/>
   </g>
   <g id="patch_29">
    <path clip-path="url(#p6cbecf05fc)" d="M 241.1591 663.32 
L 246.81445 663.32 
L 246.81445 655.894503 
L 241.1591 655.894503 
z
" style="fill:#1f77b4;"/>
   </g>
   <g id="patch_30">
    <path clip-path="url(#p6cbecf05fc)" d="M 246.81445 663.32 
L 252.4698 663.32 
L 252.4698 657.286784 
L 246.81445 657.286784 
z
" style="fill:#1f77b4;"/>
   </g>
   <g id="patch_31">
    <path clip-path="url(#p6cbecf05fc)" d="M 252.4698 663.32 
L 258.12515 663.32 
L 258.12515 656.82269 
L 252.4698 656.82269 
z
" style="fill:#1f77b4;"/>
   </g>
   <g id="patch_32">
    <path clip-path="url(#p6cbecf05fc)" d="M 258.12515 663.32 
L 263.7805 663.32 
L 263.7805 658.679064 
L 258.12515 658.679064 
z
" style="fill:#1f77b4;"/>
   </g>
   <g id="patch_33">
    <path clip-path="url(#p6cbecf05fc)" d="M 263.7805 663.32 
L 269.43585 663.32 
L 269.43585 654.966316 
L 263.7805 654.966316 
z
" style="fill:#1f77b4;"/>
   </g>
   <g id="patch_34">
    <path clip-path="url(#p6cbecf05fc)" d="M 269.43585 663.32 
L 275.0912 663.32 
L 275.0912 657.750877 
L 269.43585 657.750877 
z
" style="fill:#1f77b4;"/>
   </g>
   <g id="patch_35">
    <path clip-path="url(#p6cbecf05fc)" d="M 275.0912 663.32 
L 280.74655 663.32 
L 280.74655 658.214971 
L 275.0912 658.214971 
z
" style="fill:#1f77b4;"/>
   </g>
   <g id="patch_36">
    <path clip-path="url(#p6cbecf05fc)" d="M 280.74655 663.32 
L 286.4019 663.32 
L 286.4019 659.143158 
L 280.74655 659.143158 
z
" style="fill:#1f77b4;"/>
   </g>
   <g id="patch_37">
    <path clip-path="url(#p6cbecf05fc)" d="M 286.4019 663.32 
L 292.05725 663.32 
L 292.05725 656.82269 
L 286.4019 656.82269 
z
" style="fill:#1f77b4;"/>
   </g>
   <g id="patch_38">
    <path clip-path="url(#p6cbecf05fc)" d="M 292.05725 663.32 
L 297.7126 663.32 
L 297.7126 656.82269 
L 292.05725 656.82269 
z
" style="fill:#1f77b4;"/>
   </g>
   <g id="patch_39">
    <path clip-path="url(#p6cbecf05fc)" d="M 297.7126 663.32 
L 303.36795 663.32 
L 303.36795 657.286784 
L 297.7126 657.286784 
z
" style="fill:#1f77b4;"/>
   </g>
   <g id="patch_40">
    <path clip-path="url(#p6cbecf05fc)" d="M 303.36795 663.32 
L 309.0233 663.32 
L 309.0233 656.358596 
L 303.36795 656.358596 
z
" style="fill:#1f77b4;"/>
   </g>
   <g id="patch_41">
    <path clip-path="url(#p6cbecf05fc)" d="M 309.0233 663.32 
L 314.67865 663.32 
L 314.67865 656.358596 
L 309.0233 656.358596 
z
" style="fill:#1f77b4;"/>
   </g>
   <g id="patch_42">
    <path clip-path="url(#p6cbecf05fc)" d="M 314.67865 663.32 
L 320.334 663.32 
L 320.334 655.894503 
L 314.67865 655.894503 
z
" style="fill:#1f77b4;"/>
   </g>
   <g id="patch_43">
    <path clip-path="url(#p6cbecf05fc)" d="M 320.334 663.32 
L 325.98935 663.32 
L 325.98935 655.894503 
L 320.334 655.894503 
z
" style="fill:#1f77b4;"/>
   </g>
   <g id="patch_44">
    <path clip-path="url(#p6cbecf05fc)" d="M 325.98935 663.32 
L 331.6447 663.32 
L 331.6447 651.717661 
L 325.98935 651.717661 
z
" style="fill:#1f77b4;"/>
   </g>
   <g id="patch_45">
    <path clip-path="url(#p6cbecf05fc)" d="M 331.6447 663.32 
L 337.30005 663.32 
L 337.30005 648.004912 
L 331.6447 648.004912 
z
" style="fill:#1f77b4;"/>
   </g>
   <g id="patch_46">
    <path clip-path="url(#p6cbecf05fc)" d="M 337.30005 663.32 
L 342.9554 663.32 
L 342.9554 642.899883 
L 337.30005 642.899883 
z
" style="fill:#1f77b4;"/>
   </g>
   <g id="patch_47">
    <path clip-path="url(#p6cbecf05fc)" d="M 342.9554 663.32 
L 348.61075 663.32 
L 348.61075 638.258947 
L 342.9554 638.258947 
z
" style="fill:#1f77b4;"/>
   </g>
   <g id="patch_48">
    <path clip-path="url(#p6cbecf05fc)" d="M 348.61075 663.32 
L 354.2661 663.32 
L 354.2661 632.225731 
L 348.61075 632.225731 
z
" style="fill:#1f77b4;"/>
   </g>
   <g id="patch_49">
    <path clip-path="url(#p6cbecf05fc)" d="M 354.2661 663.32 
L 359.92145 663.32 
L 359.92145 620.623392 
L 354.2661 620.623392 
z
" style="fill:#1f77b4;"/>
   </g>
   <g id="patch_50">
    <path clip-path="url(#p6cbecf05fc)" d="M 359.92145 663.32 
L 365.5768 663.32 
L 365.5768 601.131462 
L 359.92145 601.131462 
z
" style="fill:#1f77b4;"/>
   </g>
   <g id="patch_51">
    <path clip-path="url(#p6cbecf05fc)" d="M 365.5768 663.32 
L 371.23215 663.32 
L 371.23215 527.804678 
L 365.5768 527.804678 
z
" style="fill:#1f77b4;"/>
   </g>
   <g id="patch_52">
    <path clip-path="url(#p6cbecf05fc)" d="M 371.23215 663.32 
L 376.8875 663.32 
L 376.8875 125.435556 
L 371.23215 125.435556 
z
" style="fill:#1f77b4;"/>
   </g>
   <g id="patch_53">
    <path clip-path="url(#p6cbecf05fc)" d="M 376.8875 663.32 
L 382.54285 663.32 
L 382.54285 49.324211 
L 376.8875 49.324211 
z
" style="fill:#1f77b4;"/>
   </g>
   <g id="patch_54">
    <path clip-path="url(#p6cbecf05fc)" d="M 382.54285 663.32 
L 388.1982 663.32 
L 388.1982 523.627836 
L 382.54285 523.627836 
z
" style="fill:#1f77b4;"/>
   </g>
   <g id="patch_55">
    <path clip-path="url(#p6cbecf05fc)" d="M 388.1982 663.32 
L 393.85355 663.32 
L 393.85355 595.562339 
L 388.1982 595.562339 
z
" style="fill:#1f77b4;"/>
   </g>
   <g id="patch_56">
    <path clip-path="url(#p6cbecf05fc)" d="M 393.85355 663.32 
L 399.5089 663.32 
L 399.5089 609.94924 
L 393.85355 609.94924 
z
" style="fill:#1f77b4;"/>
   </g>
   <g id="patch_57">
    <path clip-path="url(#p6cbecf05fc)" d="M 399.5089 663.32 
L 405.16425 663.32 
L 405.16425 626.192515 
L 399.5089 626.192515 
z
" style="fill:#1f77b4;"/>
   </g>
   <g id="patch_58">
    <path clip-path="url(#p6cbecf05fc)" d="M 405.16425 663.32 
L 410.8196 663.32 
L 410.8196 635.93848 
L 405.16425 635.93848 
z
" style="fill:#1f77b4;"/>
   </g>
   <g id="patch_59">
    <path clip-path="url(#p6cbecf05fc)" d="M 410.8196 663.32 
L 416.47495 663.32 
L 416.47495 640.579415 
L 410.8196 640.579415 
z
" style="fill:#1f77b4;"/>
   </g>
   <g id="patch_60">
    <path clip-path="url(#p6cbecf05fc)" d="M 416.47495 663.32 
L 422.1303 663.32 
L 422.1303 644.756257 
L 416.47495 644.756257 
z
" style="fill:#1f77b4;"/>
   </g>
   <g id="patch_61">
    <path clip-path="url(#p6cbecf05fc)" d="M 422.1303 663.32 
L 427.78565 663.32 
L 427.78565 648.004912 
L 422.1303 648.004912 
z
" style="fill:#1f77b4;"/>
   </g>
   <g id="patch_62">
    <path clip-path="url(#p6cbecf05fc)" d="M 427.78565 663.32 
L 433.441 663.32 
L 433.441 648.469006 
L 427.78565 648.469006 
z
" style="fill:#1f77b4;"/>
   </g>
   <g id="patch_63">
    <path clip-path="url(#p6cbecf05fc)" d="M 433.441 663.32 
L 439.09635 663.32 
L 439.09635 647.540819 
L 433.441 647.540819 
z
" style="fill:#1f77b4;"/>
   </g>
   <g id="patch_64">
    <path clip-path="url(#p6cbecf05fc)" d="M 439.09635 663.32 
L 444.7517 663.32 
L 444.7517 650.789474 
L 439.09635 650.789474 
z
" style="fill:#1f77b4;"/>
   </g>
   <g id="patch_65">
    <path clip-path="url(#p6cbecf05fc)" d="M 444.7517 663.32 
L 450.40705 663.32 
L 450.40705 652.181754 
L 444.7517 652.181754 
z
" style="fill:#1f77b4;"/>
   </g>
   <g id="patch_66">
    <path clip-path="url(#p6cbecf05fc)" d="M 450.40705 663.32 
L 456.0624 663.32 
L 456.0624 657.286784 
L 450.40705 657.286784 
z
" style="fill:#1f77b4;"/>
   </g>
   <g id="patch_67">
    <path clip-path="url(#p6cbecf05fc)" d="M 456.0624 663.32 
L 461.71775 663.32 
L 461.71775 657.286784 
L 456.0624 657.286784 
z
" style="fill:#1f77b4;"/>
   </g>
   <g id="patch_68">
    <path clip-path="url(#p6cbecf05fc)" d="M 461.71775 663.32 
L 467.3731 663.32 
L 467.3731 661.463626 
L 461.71775 661.463626 
z
" style="fill:#1f77b4;"/>
   </g>
   <g id="patch_69">
    <path clip-path="url(#p6cbecf05fc)" d="M 467.3731 663.32 
L 473.02845 663.32 
L 473.02845 658.679064 
L 467.3731 658.679064 
z
" style="fill:#1f77b4;"/>
   </g>
   <g id="patch_70">
    <path clip-path="url(#p6cbecf05fc)" d="M 473.02845 663.32 
L 478.6838 663.32 
L 478.6838 661.463626 
L 473.02845 661.463626 
z
" style="fill:#1f77b4;"/>
   </g>
   <g id="patch_71">
    <path clip-path="url(#p6cbecf05fc)" d="M 478.6838 663.32 
L 484.33915 663.32 
L 484.33915 659.607251 
L 478.6838 659.607251 
z
" style="fill:#1f77b4;"/>
   </g>
   <g id="patch_72">
    <path clip-path="url(#p6cbecf05fc)" d="M 484.33915 663.32 
L 489.9945 663.32 
L 489.9945 659.607251 
L 484.33915 659.607251 
z
" style="fill:#1f77b4;"/>
   </g>
   <g id="patch_73">
    <path clip-path="url(#p6cbecf05fc)" d="M 489.9945 663.32 
L 495.64985 663.32 
L 495.64985 662.855906 
L 489.9945 662.855906 
z
" style="fill:#1f77b4;"/>
   </g>
   <g id="patch_74">
    <path clip-path="url(#p6cbecf05fc)" d="M 495.64985 663.32 
L 501.3052 663.32 
L 501.3052 661.927719 
L 495.64985 661.927719 
z
" style="fill:#1f77b4;"/>
   </g>
   <g id="patch_75">
    <path clip-path="url(#p6cbecf05fc)" d="M 501.3052 663.32 
L 506.96055 663.32 
L 506.96055 662.855906 
L 501.3052 662.855906 
z
" style="fill:#1f77b4;"/>
   </g>
   <g id="patch_76">
    <path clip-path="url(#p6cbecf05fc)" d="M 506.96055 663.32 
L 512.6159 663.32 
L 512.6159 663.32 
L 506.96055 663.32 
z
" style="fill:#1f77b4;"/>
   </g>
   <g id="patch_77">
    <path clip-path="url(#p6cbecf05fc)" d="M 512.6159 663.32 
L 518.27125 663.32 
L 518.27125 663.32 
L 512.6159 663.32 
z
" style="fill:#1f77b4;"/>
   </g>
   <g id="patch_78">
    <path clip-path="url(#p6cbecf05fc)" d="M 518.27125 663.32 
L 523.9266 663.32 
L 523.9266 662.855906 
L 518.27125 662.855906 
z
" style="fill:#1f77b4;"/>
   </g>
   <g id="patch_79">
    <path clip-path="url(#p6cbecf05fc)" d="M 523.9266 663.32 
L 529.58195 663.32 
L 529.58195 662.855906 
L 523.9266 662.855906 
z
" style="fill:#1f77b4;"/>
   </g>
   <g id="patch_80">
    <path clip-path="url(#p6cbecf05fc)" d="M 529.58195 663.32 
L 535.2373 663.32 
L 535.2373 662.855906 
L 529.58195 662.855906 
z
" style="fill:#1f77b4;"/>
   </g>
   <g id="patch_81">
    <path clip-path="url(#p6cbecf05fc)" d="M 535.2373 663.32 
L 540.89265 663.32 
L 540.89265 662.855906 
L 535.2373 662.855906 
z
" style="fill:#1f77b4;"/>
   </g>
   <g id="patch_82">
    <path clip-path="url(#p6cbecf05fc)" d="M 540.89265 663.32 
L 546.548 663.32 
L 546.548 663.32 
L 540.89265 663.32 
z
" style="fill:#1f77b4;"/>
   </g>
   <g id="patch_83">
    <path clip-path="url(#p6cbecf05fc)" d="M 546.548 663.32 
L 552.20335 663.32 
L 552.20335 663.32 
L 546.548 663.32 
z
" style="fill:#1f77b4;"/>
   </g>
   <g id="patch_84">
    <path clip-path="url(#p6cbecf05fc)" d="M 552.20335 663.32 
L 557.8587 663.32 
L 557.8587 663.32 
L 552.20335 663.32 
z
" style="fill:#1f77b4;"/>
   </g>
   <g id="patch_85">
    <path clip-path="url(#p6cbecf05fc)" d="M 557.8587 663.32 
L 563.51405 663.32 
L 563.51405 663.32 
L 557.8587 663.32 
z
" style="fill:#1f77b4;"/>
   </g>
   <g id="patch_86">
    <path clip-path="url(#p6cbecf05fc)" d="M 563.51405 663.32 
L 569.1694 663.32 
L 569.1694 662.855906 
L 563.51405 662.855906 
z
" style="fill:#1f77b4;"/>
   </g>
   <g id="patch_87">
    <path clip-path="url(#p6cbecf05fc)" d="M 569.1694 663.32 
L 574.82475 663.32 
L 574.82475 663.32 
L 569.1694 663.32 
z
" style="fill:#1f77b4;"/>
   </g>
   <g id="patch_88">
    <path clip-path="url(#p6cbecf05fc)" d="M 574.82475 663.32 
L 580.4801 663.32 
L 580.4801 663.32 
L 574.82475 663.32 
z
" style="fill:#1f77b4;"/>
   </g>
   <g id="patch_89">
    <path clip-path="url(#p6cbecf05fc)" d="M 580.4801 663.32 
L 586.13545 663.32 
L 586.13545 663.32 
L 580.4801 663.32 
z
" style="fill:#1f77b4;"/>
   </g>
   <g id="patch_90">
    <path clip-path="url(#p6cbecf05fc)" d="M 586.13545 663.32 
L 591.7908 663.32 
L 591.7908 663.32 
L 586.13545 663.32 
z
" style="fill:#1f77b4;"/>
   </g>
   <g id="patch_91">
    <path clip-path="url(#p6cbecf05fc)" d="M 591.7908 663.32 
L 597.44615 663.32 
L 597.44615 663.32 
L 591.7908 663.32 
z
" style="fill:#1f77b4;"/>
   </g>
   <g id="patch_92">
    <path clip-path="url(#p6cbecf05fc)" d="M 597.44615 663.32 
L 603.1015 663.32 
L 603.1015 663.32 
L 597.44615 663.32 
z
" style="fill:#1f77b4;"/>
   </g>
   <g id="patch_93">
    <path clip-path="url(#p6cbecf05fc)" d="M 603.1015 663.32 
L 608.75685 663.32 
L 608.75685 663.32 
L 603.1015 663.32 
z
" style="fill:#1f77b4;"/>
   </g>
   <g id="patch_94">
    <path clip-path="url(#p6cbecf05fc)" d="M 608.75685 663.32 
L 614.4122 663.32 
L 614.4122 663.32 
L 608.75685 663.32 
z
" style="fill:#1f77b4;"/>
   </g>
   <g id="patch_95">
    <path clip-path="url(#p6cbecf05fc)" d="M 614.4122 663.32 
L 620.06755 663.32 
L 620.06755 663.32 
L 614.4122 663.32 
z
" style="fill:#1f77b4;"/>
   </g>
   <g id="patch_96">
    <path clip-path="url(#p6cbecf05fc)" d="M 620.06755 663.32 
L 625.7229 663.32 
L 625.7229 663.32 
L 620.06755 663.32 
z
" style="fill:#1f77b4;"/>
   </g>
   <g id="patch_97">
    <path clip-path="url(#p6cbecf05fc)" d="M 625.7229 663.32 
L 631.37825 663.32 
L 631.37825 663.32 
L 625.7229 663.32 
z
" style="fill:#1f77b4;"/>
   </g>
   <g id="patch_98">
    <path clip-path="url(#p6cbecf05fc)" d="M 631.37825 663.32 
L 637.0336 663.32 
L 637.0336 663.32 
L 631.37825 663.32 
z
" style="fill:#1f77b4;"/>
   </g>
   <g id="patch_99">
    <path clip-path="url(#p6cbecf05fc)" d="M 637.0336 663.32 
L 642.68895 663.32 
L 642.68895 663.32 
L 637.0336 663.32 
z
" style="fill:#1f77b4;"/>
   </g>
   <g id="patch_100">
    <path clip-path="url(#p6cbecf05fc)" d="M 642.68895 663.32 
L 648.3443 663.32 
L 648.3443 663.32 
L 642.68895 663.32 
z
" style="fill:#1f77b4;"/>
   </g>
   <g id="patch_101">
    <path clip-path="url(#p6cbecf05fc)" d="M 648.3443 663.32 
L 653.99965 663.32 
L 653.99965 663.32 
L 648.3443 663.32 
z
" style="fill:#1f77b4;"/>
   </g>
   <g id="patch_102">
    <path clip-path="url(#p6cbecf05fc)" d="M 653.99965 663.32 
L 659.655 663.32 
L 659.655 663.32 
L 653.99965 663.32 
z
" style="fill:#1f77b4;"/>
   </g>
   <g id="matplotlib.axis_1">
    <g id="xtick_1">
     <g id="line2d_1">
      <defs>
       <path d="M 0 0 
L 0 3.5 
" id="m7b3d90e455" style="stroke:#000000;stroke-width:0.8;"/>
      </defs>
      <g>
       <use style="stroke:#000000;stroke-width:0.8;" x="94.12" xlink:href="#m7b3d90e455" y="663.32"/>
      </g>
     </g>
     <g id="text_1">
      <!-- −0.010 -->
      <defs>
       <path d="M 10.59375 35.5 
L 73.1875 35.5 
L 73.1875 27.203125 
L 10.59375 27.203125 
z
" id="DejaVuSans-8722"/>
       <path d="M 31.78125 66.40625 
Q 24.171875 66.40625 20.328125 58.90625 
Q 16.5 51.421875 16.5 36.375 
Q 16.5 21.390625 20.328125 13.890625 
Q 24.171875 6.390625 31.78125 6.390625 
Q 39.453125 6.390625 43.28125 13.890625 
Q 47.125 21.390625 47.125 36.375 
Q 47.125 51.421875 43.28125 58.90625 
Q 39.453125 66.40625 31.78125 66.40625 
z
M 31.78125 74.21875 
Q 44.046875 74.21875 50.515625 64.515625 
Q 56.984375 54.828125 56.984375 36.375 
Q 56.984375 17.96875 50.515625 8.265625 
Q 44.046875 -1.421875 31.78125 -1.421875 
Q 19.53125 -1.421875 13.0625 8.265625 
Q 6.59375 17.96875 6.59375 36.375 
Q 6.59375 54.828125 13.0625 64.515625 
Q 19.53125 74.21875 31.78125 74.21875 
z
" id="DejaVuSans-48"/>
       <path d="M 10.6875 12.40625 
L 21 12.40625 
L 21 0 
L 10.6875 0 
z
" id="DejaVuSans-46"/>
       <path d="M 12.40625 8.296875 
L 28.515625 8.296875 
L 28.515625 63.921875 
L 10.984375 60.40625 
L 10.984375 69.390625 
L 28.421875 72.90625 
L 38.28125 72.90625 
L 38.28125 8.296875 
L 54.390625 8.296875 
L 54.390625 0 
L 12.40625 0 
z
" id="DejaVuSans-49"/>
      </defs>
      <g transform="translate(49.710625 688.55625)scale(0.24 -0.24)">
       <use xlink:href="#DejaVuSans-8722"/>
       <use x="83.789062" xlink:href="#DejaVuSans-48"/>
       <use x="147.412109" xlink:href="#DejaVuSans-46"/>
       <use x="179.199219" xlink:href="#DejaVuSans-48"/>
       <use x="242.822266" xlink:href="#DejaVuSans-49"/>
       <use x="306.445312" xlink:href="#DejaVuSans-48"/>
      </g>
     </g>
    </g>
    <g id="xtick_2">
     <g id="line2d_2">
      <g>
       <use style="stroke:#000000;stroke-width:0.8;" x="235.50375" xlink:href="#m7b3d90e455" y="663.32"/>
      </g>
     </g>
     <g id="text_2">
      <!-- −0.005 -->
      <defs>
       <path d="M 10.796875 72.90625 
L 49.515625 72.90625 
L 49.515625 64.59375 
L 19.828125 64.59375 
L 19.828125 46.734375 
Q 21.96875 47.46875 24.109375 47.828125 
Q 26.265625 48.1875 28.421875 48.1875 
Q 40.625 48.1875 47.75 41.5 
Q 54.890625 34.8125 54.890625 23.390625 
Q 54.890625 11.625 47.5625 5.09375 
Q 40.234375 -1.421875 26.90625 -1.421875 
Q 22.3125 -1.421875 17.546875 -0.640625 
Q 12.796875 0.140625 7.71875 1.703125 
L 7.71875 11.625 
Q 12.109375 9.234375 16.796875 8.0625 
Q 21.484375 6.890625 26.703125 6.890625 
Q 35.15625 6.890625 40.078125 11.328125 
Q 45.015625 15.765625 45.015625 23.390625 
Q 45.015625 31 40.078125 35.4375 
Q 35.15625 39.890625 26.703125 39.890625 
Q 22.75 39.890625 18.8125 39.015625 
Q 14.890625 38.140625 10.796875 36.28125 
z
" id="DejaVuSans-53"/>
      </defs>
      <g transform="translate(191.094375 688.55625)scale(0.24 -0.24)">
       <use xlink:href="#DejaVuSans-8722"/>
       <use x="83.789062" xlink:href="#DejaVuSans-48"/>
       <use x="147.412109" xlink:href="#DejaVuSans-46"/>
       <use x="179.199219" xlink:href="#DejaVuSans-48"/>
       <use x="242.822266" xlink:href="#DejaVuSans-48"/>
       <use x="306.445312" xlink:href="#DejaVuSans-53"/>
      </g>
     </g>
    </g>
    <g id="xtick_3">
     <g id="line2d_3">
      <g>
       <use style="stroke:#000000;stroke-width:0.8;" x="376.8875" xlink:href="#m7b3d90e455" y="663.32"/>
      </g>
     </g>
     <g id="text_3">
      <!-- 0.000 -->
      <g transform="translate(342.53375 688.55625)scale(0.24 -0.24)">
       <use xlink:href="#DejaVuSans-48"/>
       <use x="63.623047" xlink:href="#DejaVuSans-46"/>
       <use x="95.410156" xlink:href="#DejaVuSans-48"/>
       <use x="159.033203" xlink:href="#DejaVuSans-48"/>
       <use x="222.65625" xlink:href="#DejaVuSans-48"/>
      </g>
     </g>
    </g>
    <g id="xtick_4">
     <g id="line2d_4">
      <g>
       <use style="stroke:#000000;stroke-width:0.8;" x="518.27125" xlink:href="#m7b3d90e455" y="663.32"/>
      </g>
     </g>
     <g id="text_4">
      <!-- 0.005 -->
      <g transform="translate(483.9175 688.55625)scale(0.24 -0.24)">
       <use xlink:href="#DejaVuSans-48"/>
       <use x="63.623047" xlink:href="#DejaVuSans-46"/>
       <use x="95.410156" xlink:href="#DejaVuSans-48"/>
       <use x="159.033203" xlink:href="#DejaVuSans-48"/>
       <use x="222.65625" xlink:href="#DejaVuSans-53"/>
      </g>
     </g>
    </g>
    <g id="xtick_5">
     <g id="line2d_5">
      <g>
       <use style="stroke:#000000;stroke-width:0.8;" x="659.655" xlink:href="#m7b3d90e455" y="663.32"/>
      </g>
     </g>
     <g id="text_5">
      <!-- 0.010 -->
      <g transform="translate(625.30125 688.55625)scale(0.24 -0.24)">
       <use xlink:href="#DejaVuSans-48"/>
       <use x="63.623047" xlink:href="#DejaVuSans-46"/>
       <use x="95.410156" xlink:href="#DejaVuSans-48"/>
       <use x="159.033203" xlink:href="#DejaVuSans-49"/>
       <use x="222.65625" xlink:href="#DejaVuSans-48"/>
      </g>
     </g>
    </g>
   </g>
   <g id="matplotlib.axis_2">
    <g id="ytick_1">
     <g id="line2d_6">
      <defs>
       <path d="M 0 0 
L -3.5 0 
" id="m911bdd2939" style="stroke:#000000;stroke-width:0.8;"/>
      </defs>
      <g>
       <use style="stroke:#000000;stroke-width:0.8;" x="94.12" xlink:href="#m911bdd2939" y="663.32"/>
      </g>
     </g>
     <g id="text_6">
      <!-- 0 -->
      <g transform="translate(71.85 672.438125)scale(0.24 -0.24)">
       <use xlink:href="#DejaVuSans-48"/>
      </g>
     </g>
    </g>
    <g id="ytick_2">
     <g id="line2d_7">
      <g>
       <use style="stroke:#000000;stroke-width:0.8;" x="94.12" xlink:href="#m911bdd2939" y="578.669333"/>
      </g>
     </g>
     <g id="text_7">
      <!-- 200 -->
      <defs>
       <path d="M 19.1875 8.296875 
L 53.609375 8.296875 
L 53.609375 0 
L 7.328125 0 
L 7.328125 8.296875 
Q 12.9375 14.109375 22.625 23.890625 
Q 32.328125 33.6875 34.8125 36.53125 
Q 39.546875 41.84375 41.421875 45.53125 
Q 43.3125 49.21875 43.3125 52.78125 
Q 43.3125 58.59375 39.234375 62.25 
Q 35.15625 65.921875 28.609375 65.921875 
Q 23.96875 65.921875 18.8125 64.3125 
Q 13.671875 62.703125 7.8125 59.421875 
L 7.8125 69.390625 
Q 13.765625 71.78125 18.9375 73 
Q 24.125 74.21875 28.421875 74.21875 
Q 39.75 74.21875 46.484375 68.546875 
Q 53.21875 62.890625 53.21875 53.421875 
Q 53.21875 48.921875 51.53125 44.890625 
Q 49.859375 40.875 45.40625 35.40625 
Q 44.1875 33.984375 37.640625 27.21875 
Q 31.109375 20.453125 19.1875 8.296875 
z
" id="DejaVuSans-50"/>
      </defs>
      <g transform="translate(41.31 587.787458)scale(0.24 -0.24)">
       <use xlink:href="#DejaVuSans-50"/>
       <use x="63.623047" xlink:href="#DejaVuSans-48"/>
       <use x="127.246094" xlink:href="#DejaVuSans-48"/>
      </g>
     </g>
    </g>
    <g id="ytick_3">
     <g id="line2d_8">
      <g>
       <use style="stroke:#000000;stroke-width:0.8;" x="94.12" xlink:href="#m911bdd2939" y="494.018667"/>
      </g>
     </g>
     <g id="text_8">
      <!-- 400 -->
      <defs>
       <path d="M 37.796875 64.3125 
L 12.890625 25.390625 
L 37.796875 25.390625 
z
M 35.203125 72.90625 
L 47.609375 72.90625 
L 47.609375 25.390625 
L 58.015625 25.390625 
L 58.015625 17.1875 
L 47.609375 17.1875 
L 47.609375 0 
L 37.796875 0 
L 37.796875 17.1875 
L 4.890625 17.1875 
L 4.890625 26.703125 
z
" id="DejaVuSans-52"/>
      </defs>
      <g transform="translate(41.31 503.136792)scale(0.24 -0.24)">
       <use xlink:href="#DejaVuSans-52"/>
       <use x="63.623047" xlink:href="#DejaVuSans-48"/>
       <use x="127.246094" xlink:href="#DejaVuSans-48"/>
      </g>
     </g>
    </g>
    <g id="ytick_4">
     <g id="line2d_9">
      <g>
       <use style="stroke:#000000;stroke-width:0.8;" x="94.12" xlink:href="#m911bdd2939" y="409.368"/>
      </g>
     </g>
     <g id="text_9">
      <!-- 600 -->
      <defs>
       <path d="M 33.015625 40.375 
Q 26.375 40.375 22.484375 35.828125 
Q 18.609375 31.296875 18.609375 23.390625 
Q 18.609375 15.53125 22.484375 10.953125 
Q 26.375 6.390625 33.015625 6.390625 
Q 39.65625 6.390625 43.53125 10.953125 
Q 47.40625 15.53125 47.40625 23.390625 
Q 47.40625 31.296875 43.53125 35.828125 
Q 39.65625 40.375 33.015625 40.375 
z
M 52.59375 71.296875 
L 52.59375 62.3125 
Q 48.875 64.0625 45.09375 64.984375 
Q 41.3125 65.921875 37.59375 65.921875 
Q 27.828125 65.921875 22.671875 59.328125 
Q 17.53125 52.734375 16.796875 39.40625 
Q 19.671875 43.65625 24.015625 45.921875 
Q 28.375 48.1875 33.59375 48.1875 
Q 44.578125 48.1875 50.953125 41.515625 
Q 57.328125 34.859375 57.328125 23.390625 
Q 57.328125 12.15625 50.6875 5.359375 
Q 44.046875 -1.421875 33.015625 -1.421875 
Q 20.359375 -1.421875 13.671875 8.265625 
Q 6.984375 17.96875 6.984375 36.375 
Q 6.984375 53.65625 15.1875 63.9375 
Q 23.390625 74.21875 37.203125 74.21875 
Q 40.921875 74.21875 44.703125 73.484375 
Q 48.484375 72.75 52.59375 71.296875 
z
" id="DejaVuSans-54"/>
      </defs>
      <g transform="translate(41.31 418.486125)scale(0.24 -0.24)">
       <use xlink:href="#DejaVuSans-54"/>
       <use x="63.623047" xlink:href="#DejaVuSans-48"/>
       <use x="127.246094" xlink:href="#DejaVuSans-48"/>
      </g>
     </g>
    </g>
    <g id="ytick_5">
     <g id="line2d_10">
      <g>
       <use style="stroke:#000000;stroke-width:0.8;" x="94.12" xlink:href="#m911bdd2939" y="324.717333"/>
      </g>
     </g>
     <g id="text_10">
      <!-- 800 -->
      <defs>
       <path d="M 31.78125 34.625 
Q 24.75 34.625 20.71875 30.859375 
Q 16.703125 27.09375 16.703125 20.515625 
Q 16.703125 13.921875 20.71875 10.15625 
Q 24.75 6.390625 31.78125 6.390625 
Q 38.8125 6.390625 42.859375 10.171875 
Q 46.921875 13.96875 46.921875 20.515625 
Q 46.921875 27.09375 42.890625 30.859375 
Q 38.875 34.625 31.78125 34.625 
z
M 21.921875 38.8125 
Q 15.578125 40.375 12.03125 44.71875 
Q 8.5 49.078125 8.5 55.328125 
Q 8.5 64.0625 14.71875 69.140625 
Q 20.953125 74.21875 31.78125 74.21875 
Q 42.671875 74.21875 48.875 69.140625 
Q 55.078125 64.0625 55.078125 55.328125 
Q 55.078125 49.078125 51.53125 44.71875 
Q 48 40.375 41.703125 38.8125 
Q 48.828125 37.15625 52.796875 32.3125 
Q 56.78125 27.484375 56.78125 20.515625 
Q 56.78125 9.90625 50.3125 4.234375 
Q 43.84375 -1.421875 31.78125 -1.421875 
Q 19.734375 -1.421875 13.25 4.234375 
Q 6.78125 9.90625 6.78125 20.515625 
Q 6.78125 27.484375 10.78125 32.3125 
Q 14.796875 37.15625 21.921875 38.8125 
z
M 18.3125 54.390625 
Q 18.3125 48.734375 21.84375 45.5625 
Q 25.390625 42.390625 31.78125 42.390625 
Q 38.140625 42.390625 41.71875 45.5625 
Q 45.3125 48.734375 45.3125 54.390625 
Q 45.3125 60.0625 41.71875 63.234375 
Q 38.140625 66.40625 31.78125 66.40625 
Q 25.390625 66.40625 21.84375 63.234375 
Q 18.3125 60.0625 18.3125 54.390625 
z
" id="DejaVuSans-56"/>
      </defs>
      <g transform="translate(41.31 333.835458)scale(0.24 -0.24)">
       <use xlink:href="#DejaVuSans-56"/>
       <use x="63.623047" xlink:href="#DejaVuSans-48"/>
       <use x="127.246094" xlink:href="#DejaVuSans-48"/>
      </g>
     </g>
    </g>
    <g id="ytick_6">
     <g id="line2d_11">
      <g>
       <use style="stroke:#000000;stroke-width:0.8;" x="94.12" xlink:href="#m911bdd2939" y="240.066667"/>
      </g>
     </g>
     <g id="text_11">
      <!-- 1000 -->
      <g transform="translate(26.04 249.184792)scale(0.24 -0.24)">
       <use xlink:href="#DejaVuSans-49"/>
       <use x="63.623047" xlink:href="#DejaVuSans-48"/>
       <use x="127.246094" xlink:href="#DejaVuSans-48"/>
       <use x="190.869141" xlink:href="#DejaVuSans-48"/>
      </g>
     </g>
    </g>
    <g id="ytick_7">
     <g id="line2d_12">
      <g>
       <use style="stroke:#000000;stroke-width:0.8;" x="94.12" xlink:href="#m911bdd2939" y="155.416"/>
      </g>
     </g>
     <g id="text_12">
      <!-- 1200 -->
      <g transform="translate(26.04 164.534125)scale(0.24 -0.24)">
       <use xlink:href="#DejaVuSans-49"/>
       <use x="63.623047" xlink:href="#DejaVuSans-50"/>
       <use x="127.246094" xlink:href="#DejaVuSans-48"/>
       <use x="190.869141" xlink:href="#DejaVuSans-48"/>
      </g>
     </g>
    </g>
    <g id="ytick_8">
     <g id="line2d_13">
      <g>
       <use style="stroke:#000000;stroke-width:0.8;" x="94.12" xlink:href="#m911bdd2939" y="70.765333"/>
      </g>
     </g>
     <g id="text_13">
      <!-- 1400 -->
      <g transform="translate(26.04 79.883458)scale(0.24 -0.24)">
       <use xlink:href="#DejaVuSans-49"/>
       <use x="63.623047" xlink:href="#DejaVuSans-52"/>
       <use x="127.246094" xlink:href="#DejaVuSans-48"/>
       <use x="190.869141" xlink:href="#DejaVuSans-48"/>
      </g>
     </g>
    </g>
   </g>
   <g id="patch_103">
    <path d="M 94.12 663.32 
L 94.12 28.44 
" style="fill:none;stroke:#000000;stroke-linecap:square;stroke-linejoin:miter;stroke-width:0.8;"/>
   </g>
   <g id="patch_104">
    <path d="M 659.655 663.32 
L 659.655 28.44 
" style="fill:none;stroke:#000000;stroke-linecap:square;stroke-linejoin:miter;stroke-width:0.8;"/>
   </g>
   <g id="patch_105">
    <path d="M 94.12 663.32 
L 659.655 663.32 
" style="fill:none;stroke:#000000;stroke-linecap:square;stroke-linejoin:miter;stroke-width:0.8;"/>
   </g>
   <g id="patch_106">
    <path d="M 94.12 28.44 
L 659.655 28.44 
" style="fill:none;stroke:#000000;stroke-linecap:square;stroke-linejoin:miter;stroke-width:0.8;"/>
   </g>
  </g>
 </g>
 <defs>
  <clipPath id="p6cbecf05fc">
   <rect height="634.88" width="565.535" x="94.12" y="28.44"/>
  </clipPath>
 </defs>
</svg>
