<?xml version="1.0" encoding="utf-8" standalone="no"?>
<!DOCTYPE svg PUBLIC "-//W3C//DTD SVG 1.1//EN"
  "http://www.w3.org/Graphics/SVG/1.1/DTD/svg11.dtd">
<!-- Created with matplotlib (http://matplotlib.org/) -->
<svg height="720pt" version="1.1" viewBox="0 0 720 720" width="720pt" xmlns="http://www.w3.org/2000/svg" xmlns:xlink="http://www.w3.org/1999/xlink">
 <defs>
  <style type="text/css">
*{stroke-linecap:butt;stroke-linejoin:round;}
  </style>
 </defs>
 <g id="figure_1">
  <g id="patch_1">
   <path d="M 0 720 
L 720 720 
L 720 0 
L 0 0 
z
" style="fill:#ffffff;"/>
  </g>
  <g id="axes_1">
   <g id="patch_2">
    <path d="M 86.2 664.76 
L 664.11 664.76 
L 664.11 28.44 
L 86.2 28.44 
z
" style="fill:#ffffff;"/>
   </g>
   <g id="patch_3">
    <path clip-path="url(#p45a44b1cba)" d="M 86.2 664.76 
L 91.9791 664.76 
L 91.9791 664.76 
L 86.2 664.76 
z
" style="fill:#1f77b4;"/>
   </g>
   <g id="patch_4">
    <path clip-path="url(#p45a44b1cba)" d="M 91.9791 664.76 
L 97.7582 664.76 
L 97.7582 664.76 
L 91.9791 664.76 
z
" style="fill:#1f77b4;"/>
   </g>
   <g id="patch_5">
    <path clip-path="url(#p45a44b1cba)" d="M 97.7582 664.76 
L 103.5373 664.76 
L 103.5373 664.76 
L 97.7582 664.76 
z
" style="fill:#1f77b4;"/>
   </g>
   <g id="patch_6">
    <path clip-path="url(#p45a44b1cba)" d="M 103.5373 664.76 
L 109.3164 664.76 
L 109.3164 664.76 
L 103.5373 664.76 
z
" style="fill:#1f77b4;"/>
   </g>
   <g id="patch_7">
    <path clip-path="url(#p45a44b1cba)" d="M 109.3164 664.76 
L 115.0955 664.76 
L 115.0955 664.76 
L 109.3164 664.76 
z
" style="fill:#1f77b4;"/>
   </g>
   <g id="patch_8">
    <path clip-path="url(#p45a44b1cba)" d="M 115.0955 664.76 
L 120.8746 664.76 
L 120.8746 664.76 
L 115.0955 664.76 
z
" style="fill:#1f77b4;"/>
   </g>
   <g id="patch_9">
    <path clip-path="url(#p45a44b1cba)" d="M 120.8746 664.76 
L 126.6537 664.76 
L 126.6537 664.76 
L 120.8746 664.76 
z
" style="fill:#1f77b4;"/>
   </g>
   <g id="patch_10">
    <path clip-path="url(#p45a44b1cba)" d="M 126.6537 664.76 
L 132.4328 664.76 
L 132.4328 664.76 
L 126.6537 664.76 
z
" style="fill:#1f77b4;"/>
   </g>
   <g id="patch_11">
    <path clip-path="url(#p45a44b1cba)" d="M 132.4328 664.76 
L 138.2119 664.76 
L 138.2119 664.76 
L 132.4328 664.76 
z
" style="fill:#1f77b4;"/>
   </g>
   <g id="patch_12">
    <path clip-path="url(#p45a44b1cba)" d="M 138.2119 664.76 
L 143.991 664.76 
L 143.991 664.76 
L 138.2119 664.76 
z
" style="fill:#1f77b4;"/>
   </g>
   <g id="patch_13">
    <path clip-path="url(#p45a44b1cba)" d="M 143.991 664.76 
L 149.7701 664.76 
L 149.7701 664.76 
L 143.991 664.76 
z
" style="fill:#1f77b4;"/>
   </g>
   <g id="patch_14">
    <path clip-path="url(#p45a44b1cba)" d="M 149.7701 664.76 
L 155.5492 664.76 
L 155.5492 664.76 
L 149.7701 664.76 
z
" style="fill:#1f77b4;"/>
   </g>
   <g id="patch_15">
    <path clip-path="url(#p45a44b1cba)" d="M 155.5492 664.76 
L 161.3283 664.76 
L 161.3283 664.76 
L 155.5492 664.76 
z
" style="fill:#1f77b4;"/>
   </g>
   <g id="patch_16">
    <path clip-path="url(#p45a44b1cba)" d="M 161.3283 664.76 
L 167.1074 664.76 
L 167.1074 664.76 
L 161.3283 664.76 
z
" style="fill:#1f77b4;"/>
   </g>
   <g id="patch_17">
    <path clip-path="url(#p45a44b1cba)" d="M 167.1074 664.76 
L 172.8865 664.76 
L 172.8865 664.76 
L 167.1074 664.76 
z
" style="fill:#1f77b4;"/>
   </g>
   <g id="patch_18">
    <path clip-path="url(#p45a44b1cba)" d="M 172.8865 664.76 
L 178.6656 664.76 
L 178.6656 664.294854 
L 172.8865 664.294854 
z
" style="fill:#1f77b4;"/>
   </g>
   <g id="patch_19">
    <path clip-path="url(#p45a44b1cba)" d="M 178.6656 664.76 
L 184.4447 664.76 
L 184.4447 664.294854 
L 178.6656 664.294854 
z
" style="fill:#1f77b4;"/>
   </g>
   <g id="patch_20">
    <path clip-path="url(#p45a44b1cba)" d="M 184.4447 664.76 
L 190.2238 664.76 
L 190.2238 663.829708 
L 184.4447 663.829708 
z
" style="fill:#1f77b4;"/>
   </g>
   <g id="patch_21">
    <path clip-path="url(#p45a44b1cba)" d="M 190.2238 664.76 
L 196.0029 664.76 
L 196.0029 662.899415 
L 190.2238 662.899415 
z
" style="fill:#1f77b4;"/>
   </g>
   <g id="patch_22">
    <path clip-path="url(#p45a44b1cba)" d="M 196.0029 664.76 
L 201.782 664.76 
L 201.782 659.178246 
L 196.0029 659.178246 
z
" style="fill:#1f77b4;"/>
   </g>
   <g id="patch_23">
    <path clip-path="url(#p45a44b1cba)" d="M 201.782 664.76 
L 207.5611 664.76 
L 207.5611 660.573684 
L 201.782 660.573684 
z
" style="fill:#1f77b4;"/>
   </g>
   <g id="patch_24">
    <path clip-path="url(#p45a44b1cba)" d="M 207.5611 664.76 
L 213.3402 664.76 
L 213.3402 653.131345 
L 207.5611 653.131345 
z
" style="fill:#1f77b4;"/>
   </g>
   <g id="patch_25">
    <path clip-path="url(#p45a44b1cba)" d="M 213.3402 664.76 
L 219.1193 664.76 
L 219.1193 660.573684 
L 213.3402 660.573684 
z
" style="fill:#1f77b4;"/>
   </g>
   <g id="patch_26">
    <path clip-path="url(#p45a44b1cba)" d="M 219.1193 664.76 
L 224.8984 664.76 
L 224.8984 658.247953 
L 219.1193 658.247953 
z
" style="fill:#1f77b4;"/>
   </g>
   <g id="patch_27">
    <path clip-path="url(#p45a44b1cba)" d="M 224.8984 664.76 
L 230.6775 664.76 
L 230.6775 654.061637 
L 224.8984 654.061637 
z
" style="fill:#1f77b4;"/>
   </g>
   <g id="patch_28">
    <path clip-path="url(#p45a44b1cba)" d="M 230.6775 664.76 
L 236.4566 664.76 
L 236.4566 654.99193 
L 230.6775 654.99193 
z
" style="fill:#1f77b4;"/>
   </g>
   <g id="patch_29">
    <path clip-path="url(#p45a44b1cba)" d="M 236.4566 664.76 
L 242.2357 664.76 
L 242.2357 657.317661 
L 236.4566 657.317661 
z
" style="fill:#1f77b4;"/>
   </g>
   <g id="patch_30">
    <path clip-path="url(#p45a44b1cba)" d="M 242.2357 664.76 
L 248.0148 664.76 
L 248.0148 658.713099 
L 242.2357 658.713099 
z
" style="fill:#1f77b4;"/>
   </g>
   <g id="patch_31">
    <path clip-path="url(#p45a44b1cba)" d="M 248.0148 664.76 
L 253.7939 664.76 
L 253.7939 658.247953 
L 248.0148 658.247953 
z
" style="fill:#1f77b4;"/>
   </g>
   <g id="patch_32">
    <path clip-path="url(#p45a44b1cba)" d="M 253.7939 664.76 
L 259.573 664.76 
L 259.573 660.108538 
L 253.7939 660.108538 
z
" style="fill:#1f77b4;"/>
   </g>
   <g id="patch_33">
    <path clip-path="url(#p45a44b1cba)" d="M 259.573 664.76 
L 265.3521 664.76 
L 265.3521 656.387368 
L 259.573 656.387368 
z
" style="fill:#1f77b4;"/>
   </g>
   <g id="patch_34">
    <path clip-path="url(#p45a44b1cba)" d="M 265.3521 664.76 
L 271.1312 664.76 
L 271.1312 659.178246 
L 265.3521 659.178246 
z
" style="fill:#1f77b4;"/>
   </g>
   <g id="patch_35">
    <path clip-path="url(#p45a44b1cba)" d="M 271.1312 664.76 
L 276.9103 664.76 
L 276.9103 659.643392 
L 271.1312 659.643392 
z
" style="fill:#1f77b4;"/>
   </g>
   <g id="patch_36">
    <path clip-path="url(#p45a44b1cba)" d="M 276.9103 664.76 
L 282.6894 664.76 
L 282.6894 660.573684 
L 276.9103 660.573684 
z
" style="fill:#1f77b4;"/>
   </g>
   <g id="patch_37">
    <path clip-path="url(#p45a44b1cba)" d="M 282.6894 664.76 
L 288.4685 664.76 
L 288.4685 658.247953 
L 282.6894 658.247953 
z
" style="fill:#1f77b4;"/>
   </g>
   <g id="patch_38">
    <path clip-path="url(#p45a44b1cba)" d="M 288.4685 664.76 
L 294.2476 664.76 
L 294.2476 658.247953 
L 288.4685 658.247953 
z
" style="fill:#1f77b4;"/>
   </g>
   <g id="patch_39">
    <path clip-path="url(#p45a44b1cba)" d="M 294.2476 664.76 
L 300.0267 664.76 
L 300.0267 658.713099 
L 294.2476 658.713099 
z
" style="fill:#1f77b4;"/>
   </g>
   <g id="patch_40">
    <path clip-path="url(#p45a44b1cba)" d="M 300.0267 664.76 
L 305.8058 664.76 
L 305.8058 657.782807 
L 300.0267 657.782807 
z
" style="fill:#1f77b4;"/>
   </g>
   <g id="patch_41">
    <path clip-path="url(#p45a44b1cba)" d="M 305.8058 664.76 
L 311.5849 664.76 
L 311.5849 657.782807 
L 305.8058 657.782807 
z
" style="fill:#1f77b4;"/>
   </g>
   <g id="patch_42">
    <path clip-path="url(#p45a44b1cba)" d="M 311.5849 664.76 
L 317.364 664.76 
L 317.364 657.317661 
L 311.5849 657.317661 
z
" style="fill:#1f77b4;"/>
   </g>
   <g id="patch_43">
    <path clip-path="url(#p45a44b1cba)" d="M 317.364 664.76 
L 323.1431 664.76 
L 323.1431 657.317661 
L 317.364 657.317661 
z
" style="fill:#1f77b4;"/>
   </g>
   <g id="patch_44">
    <path clip-path="url(#p45a44b1cba)" d="M 323.1431 664.76 
L 328.9222 664.76 
L 328.9222 653.131345 
L 323.1431 653.131345 
z
" style="fill:#1f77b4;"/>
   </g>
   <g id="patch_45">
    <path clip-path="url(#p45a44b1cba)" d="M 328.9222 664.76 
L 334.7013 664.76 
L 334.7013 649.410175 
L 328.9222 649.410175 
z
" style="fill:#1f77b4;"/>
   </g>
   <g id="patch_46">
    <path clip-path="url(#p45a44b1cba)" d="M 334.7013 664.76 
L 340.4804 664.76 
L 340.4804 644.293567 
L 334.7013 644.293567 
z
" style="fill:#1f77b4;"/>
   </g>
   <g id="patch_47">
    <path clip-path="url(#p45a44b1cba)" d="M 340.4804 664.76 
L 346.2595 664.76 
L 346.2595 639.642105 
L 340.4804 639.642105 
z
" style="fill:#1f77b4;"/>
   </g>
   <g id="patch_48">
    <path clip-path="url(#p45a44b1cba)" d="M 346.2595 664.76 
L 352.0386 664.76 
L 352.0386 633.595205 
L 346.2595 633.595205 
z
" style="fill:#1f77b4;"/>
   </g>
   <g id="patch_49">
    <path clip-path="url(#p45a44b1cba)" d="M 352.0386 664.76 
L 357.8177 664.76 
L 357.8177 621.96655 
L 352.0386 621.96655 
z
" style="fill:#1f77b4;"/>
   </g>
   <g id="patch_50">
    <path clip-path="url(#p45a44b1cba)" d="M 357.8177 664.76 
L 363.5968 664.76 
L 363.5968 602.430409 
L 357.8177 602.430409 
z
" style="fill:#1f77b4;"/>
   </g>
   <g id="patch_51">
    <path clip-path="url(#p45a44b1cba)" d="M 363.5968 664.76 
L 369.3759 664.76 
L 369.3759 528.93731 
L 363.5968 528.93731 
z
" style="fill:#1f77b4;"/>
   </g>
   <g id="patch_52">
    <path clip-path="url(#p45a44b1cba)" d="M 369.3759 664.76 
L 375.155 664.76 
L 375.155 125.655556 
L 369.3759 125.655556 
z
" style="fill:#1f77b4;"/>
   </g>
   <g id="patch_53">
    <path clip-path="url(#p45a44b1cba)" d="M 375.155 664.76 
L 380.9341 664.76 
L 380.9341 49.371579 
L 375.155 49.371579 
z
" style="fill:#1f77b4;"/>
   </g>
   <g id="patch_54">
    <path clip-path="url(#p45a44b1cba)" d="M 380.9341 664.76 
L 386.7132 664.76 
L 386.7132 524.750994 
L 380.9341 524.750994 
z
" style="fill:#1f77b4;"/>
   </g>
   <g id="patch_55">
    <path clip-path="url(#p45a44b1cba)" d="M 386.7132 664.76 
L 392.4923 664.76 
L 392.4923 596.848655 
L 386.7132 596.848655 
z
" style="fill:#1f77b4;"/>
   </g>
   <g id="patch_56">
    <path clip-path="url(#p45a44b1cba)" d="M 392.4923 664.76 
L 398.2714 664.76 
L 398.2714 611.268187 
L 392.4923 611.268187 
z
" style="fill:#1f77b4;"/>
   </g>
   <g id="patch_57">
    <path clip-path="url(#p45a44b1cba)" d="M 398.2714 664.76 
L 404.0505 664.76 
L 404.0505 627.548304 
L 398.2714 627.548304 
z
" style="fill:#1f77b4;"/>
   </g>
   <g id="patch_58">
    <path clip-path="url(#p45a44b1cba)" d="M 404.0505 664.76 
L 409.8296 664.76 
L 409.8296 637.316374 
L 404.0505 637.316374 
z
" style="fill:#1f77b4;"/>
   </g>
   <g id="patch_59">
    <path clip-path="url(#p45a44b1cba)" d="M 409.8296 664.76 
L 415.6087 664.76 
L 415.6087 641.967836 
L 409.8296 641.967836 
z
" style="fill:#1f77b4;"/>
   </g>
   <g id="patch_60">
    <path clip-path="url(#p45a44b1cba)" d="M 415.6087 664.76 
L 421.3878 664.76 
L 421.3878 646.154152 
L 415.6087 646.154152 
z
" style="fill:#1f77b4;"/>
   </g>
   <g id="patch_61">
    <path clip-path="url(#p45a44b1cba)" d="M 421.3878 664.76 
L 427.1669 664.76 
L 427.1669 649.410175 
L 421.3878 649.410175 
z
" style="fill:#1f77b4;"/>
   </g>
   <g id="patch_62">
    <path clip-path="url(#p45a44b1cba)" d="M 427.1669 664.76 
L 432.946 664.76 
L 432.946 649.875322 
L 427.1669 649.875322 
z
" style="fill:#1f77b4;"/>
   </g>
   <g id="patch_63">
    <path clip-path="url(#p45a44b1cba)" d="M 432.946 664.76 
L 438.7251 664.76 
L 438.7251 648.945029 
L 432.946 648.945029 
z
" style="fill:#1f77b4;"/>
   </g>
   <g id="patch_64">
    <path clip-path="url(#p45a44b1cba)" d="M 438.7251 664.76 
L 444.5042 664.76 
L 444.5042 652.201053 
L 438.7251 652.201053 
z
" style="fill:#1f77b4;"/>
   </g>
   <g id="patch_65">
    <path clip-path="url(#p45a44b1cba)" d="M 444.5042 664.76 
L 450.2833 664.76 
L 450.2833 653.596491 
L 444.5042 653.596491 
z
" style="fill:#1f77b4;"/>
   </g>
   <g id="patch_66">
    <path clip-path="url(#p45a44b1cba)" d="M 450.2833 664.76 
L 456.0624 664.76 
L 456.0624 658.713099 
L 450.2833 658.713099 
z
" style="fill:#1f77b4;"/>
   </g>
   <g id="patch_67">
    <path clip-path="url(#p45a44b1cba)" d="M 456.0624 664.76 
L 461.8415 664.76 
L 461.8415 658.713099 
L 456.0624 658.713099 
z
" style="fill:#1f77b4;"/>
   </g>
   <g id="patch_68">
    <path clip-path="url(#p45a44b1cba)" d="M 461.8415 664.76 
L 467.6206 664.76 
L 467.6206 662.899415 
L 461.8415 662.899415 
z
" style="fill:#1f77b4;"/>
   </g>
   <g id="patch_69">
    <path clip-path="url(#p45a44b1cba)" d="M 467.6206 664.76 
L 473.3997 664.76 
L 473.3997 660.108538 
L 467.6206 660.108538 
z
" style="fill:#1f77b4;"/>
   </g>
   <g id="patch_70">
    <path clip-path="url(#p45a44b1cba)" d="M 473.3997 664.76 
L 479.1788 664.76 
L 479.1788 662.899415 
L 473.3997 662.899415 
z
" style="fill:#1f77b4;"/>
   </g>
   <g id="patch_71">
    <path clip-path="url(#p45a44b1cba)" d="M 479.1788 664.76 
L 484.9579 664.76 
L 484.9579 661.03883 
L 479.1788 661.03883 
z
" style="fill:#1f77b4;"/>
   </g>
   <g id="patch_72">
    <path clip-path="url(#p45a44b1cba)" d="M 484.9579 664.76 
L 490.737 664.76 
L 490.737 661.03883 
L 484.9579 661.03883 
z
" style="fill:#1f77b4;"/>
   </g>
   <g id="patch_73">
    <path clip-path="url(#p45a44b1cba)" d="M 490.737 664.76 
L 496.5161 664.76 
L 496.5161 664.294854 
L 490.737 664.294854 
z
" style="fill:#1f77b4;"/>
   </g>
   <g id="patch_74">
    <path clip-path="url(#p45a44b1cba)" d="M 496.5161 664.76 
L 502.2952 664.76 
L 502.2952 663.364561 
L 496.5161 663.364561 
z
" style="fill:#1f77b4;"/>
   </g>
   <g id="patch_75">
    <path clip-path="url(#p45a44b1cba)" d="M 502.2952 664.76 
L 508.0743 664.76 
L 508.0743 664.294854 
L 502.2952 664.294854 
z
" style="fill:#1f77b4;"/>
   </g>
   <g id="patch_76">
    <path clip-path="url(#p45a44b1cba)" d="M 508.0743 664.76 
L 513.8534 664.76 
L 513.8534 664.76 
L 508.0743 664.76 
z
" style="fill:#1f77b4;"/>
   </g>
   <g id="patch_77">
    <path clip-path="url(#p45a44b1cba)" d="M 513.8534 664.76 
L 519.6325 664.76 
L 519.6325 664.76 
L 513.8534 664.76 
z
" style="fill:#1f77b4;"/>
   </g>
   <g id="patch_78">
    <path clip-path="url(#p45a44b1cba)" d="M 519.6325 664.76 
L 525.4116 664.76 
L 525.4116 664.294854 
L 519.6325 664.294854 
z
" style="fill:#1f77b4;"/>
   </g>
   <g id="patch_79">
    <path clip-path="url(#p45a44b1cba)" d="M 525.4116 664.76 
L 531.1907 664.76 
L 531.1907 664.294854 
L 525.4116 664.294854 
z
" style="fill:#1f77b4;"/>
   </g>
   <g id="patch_80">
    <path clip-path="url(#p45a44b1cba)" d="M 531.1907 664.76 
L 536.9698 664.76 
L 536.9698 664.294854 
L 531.1907 664.294854 
z
" style="fill:#1f77b4;"/>
   </g>
   <g id="patch_81">
    <path clip-path="url(#p45a44b1cba)" d="M 536.9698 664.76 
L 542.7489 664.76 
L 542.7489 664.294854 
L 536.9698 664.294854 
z
" style="fill:#1f77b4;"/>
   </g>
   <g id="patch_82">
    <path clip-path="url(#p45a44b1cba)" d="M 542.7489 664.76 
L 548.528 664.76 
L 548.528 664.76 
L 542.7489 664.76 
z
" style="fill:#1f77b4;"/>
   </g>
   <g id="patch_83">
    <path clip-path="url(#p45a44b1cba)" d="M 548.528 664.76 
L 554.3071 664.76 
L 554.3071 664.76 
L 548.528 664.76 
z
" style="fill:#1f77b4;"/>
   </g>
   <g id="patch_84">
    <path clip-path="url(#p45a44b1cba)" d="M 554.3071 664.76 
L 560.0862 664.76 
L 560.0862 664.76 
L 554.3071 664.76 
z
" style="fill:#1f77b4;"/>
   </g>
   <g id="patch_85">
    <path clip-path="url(#p45a44b1cba)" d="M 560.0862 664.76 
L 565.8653 664.76 
L 565.8653 664.76 
L 560.0862 664.76 
z
" style="fill:#1f77b4;"/>
   </g>
   <g id="patch_86">
    <path clip-path="url(#p45a44b1cba)" d="M 565.8653 664.76 
L 571.6444 664.76 
L 571.6444 664.294854 
L 565.8653 664.294854 
z
" style="fill:#1f77b4;"/>
   </g>
   <g id="patch_87">
    <path clip-path="url(#p45a44b1cba)" d="M 571.6444 664.76 
L 577.4235 664.76 
L 577.4235 664.76 
L 571.6444 664.76 
z
" style="fill:#1f77b4;"/>
   </g>
   <g id="patch_88">
    <path clip-path="url(#p45a44b1cba)" d="M 577.4235 664.76 
L 583.2026 664.76 
L 583.2026 664.76 
L 577.4235 664.76 
z
" style="fill:#1f77b4;"/>
   </g>
   <g id="patch_89">
    <path clip-path="url(#p45a44b1cba)" d="M 583.2026 664.76 
L 588.9817 664.76 
L 588.9817 664.76 
L 583.2026 664.76 
z
" style="fill:#1f77b4;"/>
   </g>
   <g id="patch_90">
    <path clip-path="url(#p45a44b1cba)" d="M 588.9817 664.76 
L 594.7608 664.76 
L 594.7608 664.76 
L 588.9817 664.76 
z
" style="fill:#1f77b4;"/>
   </g>
   <g id="patch_91">
    <path clip-path="url(#p45a44b1cba)" d="M 594.7608 664.76 
L 600.5399 664.76 
L 600.5399 664.76 
L 594.7608 664.76 
z
" style="fill:#1f77b4;"/>
   </g>
   <g id="patch_92">
    <path clip-path="url(#p45a44b1cba)" d="M 600.5399 664.76 
L 606.319 664.76 
L 606.319 664.76 
L 600.5399 664.76 
z
" style="fill:#1f77b4;"/>
   </g>
   <g id="patch_93">
    <path clip-path="url(#p45a44b1cba)" d="M 606.319 664.76 
L 612.0981 664.76 
L 612.0981 664.76 
L 606.319 664.76 
z
" style="fill:#1f77b4;"/>
   </g>
   <g id="patch_94">
    <path clip-path="url(#p45a44b1cba)" d="M 612.0981 664.76 
L 617.8772 664.76 
L 617.8772 664.76 
L 612.0981 664.76 
z
" style="fill:#1f77b4;"/>
   </g>
   <g id="patch_95">
    <path clip-path="url(#p45a44b1cba)" d="M 617.8772 664.76 
L 623.6563 664.76 
L 623.6563 664.76 
L 617.8772 664.76 
z
" style="fill:#1f77b4;"/>
   </g>
   <g id="patch_96">
    <path clip-path="url(#p45a44b1cba)" d="M 623.6563 664.76 
L 629.4354 664.76 
L 629.4354 664.76 
L 623.6563 664.76 
z
" style="fill:#1f77b4;"/>
   </g>
   <g id="patch_97">
    <path clip-path="url(#p45a44b1cba)" d="M 629.4354 664.76 
L 635.2145 664.76 
L 635.2145 664.76 
L 629.4354 664.76 
z
" style="fill:#1f77b4;"/>
   </g>
   <g id="patch_98">
    <path clip-path="url(#p45a44b1cba)" d="M 635.2145 664.76 
L 640.9936 664.76 
L 640.9936 664.76 
L 635.2145 664.76 
z
" style="fill:#1f77b4;"/>
   </g>
   <g id="patch_99">
    <path clip-path="url(#p45a44b1cba)" d="M 640.9936 664.76 
L 646.7727 664.76 
L 646.7727 664.76 
L 640.9936 664.76 
z
" style="fill:#1f77b4;"/>
   </g>
   <g id="patch_100">
    <path clip-path="url(#p45a44b1cba)" d="M 646.7727 664.76 
L 652.5518 664.76 
L 652.5518 664.76 
L 646.7727 664.76 
z
" style="fill:#1f77b4;"/>
   </g>
   <g id="patch_101">
    <path clip-path="url(#p45a44b1cba)" d="M 652.5518 664.76 
L 658.3309 664.76 
L 658.3309 664.76 
L 652.5518 664.76 
z
" style="fill:#1f77b4;"/>
   </g>
   <g id="patch_102">
    <path clip-path="url(#p45a44b1cba)" d="M 658.3309 664.76 
L 664.11 664.76 
L 664.11 664.76 
L 658.3309 664.76 
z
" style="fill:#1f77b4;"/>
   </g>
   <g id="matplotlib.axis_1">
    <g id="xtick_1">
     <g id="line2d_1">
      <defs>
       <path d="M 0 0 
L 0 3.5 
" id="md58ae8928a" style="stroke:#000000;stroke-width:0.8;"/>
      </defs>
      <g>
       <use style="stroke:#000000;stroke-width:0.8;" x="86.2" xlink:href="#md58ae8928a" y="664.76"/>
      </g>
     </g>
     <g id="text_1">
      <!-- −0.010 -->
      <defs>
       <path d="M 52.828125 31.203125 
L 5.5625 31.203125 
L 5.5625 39.40625 
L 52.828125 39.40625 
z
" id="ArialMT-2212"/>
       <path d="M 4.15625 35.296875 
Q 4.15625 48 6.765625 55.734375 
Q 9.375 63.484375 14.515625 67.671875 
Q 19.671875 71.875 27.484375 71.875 
Q 33.25 71.875 37.59375 69.546875 
Q 41.9375 67.234375 44.765625 62.859375 
Q 47.609375 58.5 49.21875 52.21875 
Q 50.828125 45.953125 50.828125 35.296875 
Q 50.828125 22.703125 48.234375 14.96875 
Q 45.65625 7.234375 40.5 3 
Q 35.359375 -1.21875 27.484375 -1.21875 
Q 17.140625 -1.21875 11.234375 6.203125 
Q 4.15625 15.140625 4.15625 35.296875 
z
M 13.1875 35.296875 
Q 13.1875 17.671875 17.3125 11.828125 
Q 21.4375 6 27.484375 6 
Q 33.546875 6 37.671875 11.859375 
Q 41.796875 17.71875 41.796875 35.296875 
Q 41.796875 52.984375 37.671875 58.78125 
Q 33.546875 64.59375 27.390625 64.59375 
Q 21.34375 64.59375 17.71875 59.46875 
Q 13.1875 52.9375 13.1875 35.296875 
z
" id="ArialMT-30"/>
       <path d="M 9.078125 0 
L 9.078125 10.015625 
L 19.09375 10.015625 
L 19.09375 0 
z
" id="ArialMT-2e"/>
       <path d="M 37.25 0 
L 28.46875 0 
L 28.46875 56 
Q 25.296875 52.984375 20.140625 49.953125 
Q 14.984375 46.921875 10.890625 45.40625 
L 10.890625 53.90625 
Q 18.265625 57.375 23.78125 62.296875 
Q 29.296875 67.234375 31.59375 71.875 
L 37.25 71.875 
z
" id="ArialMT-31"/>
      </defs>
      <g transform="translate(49.165 688.93875)scale(0.24 -0.24)">
       <use xlink:href="#ArialMT-2212"/>
       <use x="58.398438" xlink:href="#ArialMT-30"/>
       <use x="114.013672" xlink:href="#ArialMT-2e"/>
       <use x="141.796875" xlink:href="#ArialMT-30"/>
       <use x="197.412109" xlink:href="#ArialMT-31"/>
       <use x="253.027344" xlink:href="#ArialMT-30"/>
      </g>
     </g>
    </g>
    <g id="xtick_2">
     <g id="line2d_2">
      <g>
       <use style="stroke:#000000;stroke-width:0.8;" x="230.6775" xlink:href="#md58ae8928a" y="664.76"/>
      </g>
     </g>
     <g id="text_2">
      <!-- −0.005 -->
      <defs>
       <path d="M 4.15625 18.75 
L 13.375 19.53125 
Q 14.40625 12.796875 18.140625 9.390625 
Q 21.875 6 27.15625 6 
Q 33.5 6 37.890625 10.78125 
Q 42.28125 15.578125 42.28125 23.484375 
Q 42.28125 31 38.0625 35.34375 
Q 33.84375 39.703125 27 39.703125 
Q 22.75 39.703125 19.328125 37.765625 
Q 15.921875 35.84375 13.96875 32.765625 
L 5.71875 33.84375 
L 12.640625 70.609375 
L 48.25 70.609375 
L 48.25 62.203125 
L 19.671875 62.203125 
L 15.828125 42.96875 
Q 22.265625 47.46875 29.34375 47.46875 
Q 38.71875 47.46875 45.15625 40.96875 
Q 51.609375 34.46875 51.609375 24.265625 
Q 51.609375 14.546875 45.953125 7.46875 
Q 39.0625 -1.21875 27.15625 -1.21875 
Q 17.390625 -1.21875 11.203125 4.25 
Q 5.03125 9.71875 4.15625 18.75 
z
" id="ArialMT-35"/>
      </defs>
      <g transform="translate(193.6425 688.93875)scale(0.24 -0.24)">
       <use xlink:href="#ArialMT-2212"/>
       <use x="58.398438" xlink:href="#ArialMT-30"/>
       <use x="114.013672" xlink:href="#ArialMT-2e"/>
       <use x="141.796875" xlink:href="#ArialMT-30"/>
       <use x="197.412109" xlink:href="#ArialMT-30"/>
       <use x="253.027344" xlink:href="#ArialMT-35"/>
      </g>
     </g>
    </g>
    <g id="xtick_3">
     <g id="line2d_3">
      <g>
       <use style="stroke:#000000;stroke-width:0.8;" x="375.155" xlink:href="#md58ae8928a" y="664.76"/>
      </g>
     </g>
     <g id="text_3">
      <!-- 0.000 -->
      <g transform="translate(345.12875 688.93875)scale(0.24 -0.24)">
       <use xlink:href="#ArialMT-30"/>
       <use x="55.615234" xlink:href="#ArialMT-2e"/>
       <use x="83.398438" xlink:href="#ArialMT-30"/>
       <use x="139.013672" xlink:href="#ArialMT-30"/>
       <use x="194.628906" xlink:href="#ArialMT-30"/>
      </g>
     </g>
    </g>
    <g id="xtick_4">
     <g id="line2d_4">
      <g>
       <use style="stroke:#000000;stroke-width:0.8;" x="519.6325" xlink:href="#md58ae8928a" y="664.76"/>
      </g>
     </g>
     <g id="text_4">
      <!-- 0.005 -->
      <g transform="translate(489.60625 688.93875)scale(0.24 -0.24)">
       <use xlink:href="#ArialMT-30"/>
       <use x="55.615234" xlink:href="#ArialMT-2e"/>
       <use x="83.398438" xlink:href="#ArialMT-30"/>
       <use x="139.013672" xlink:href="#ArialMT-30"/>
       <use x="194.628906" xlink:href="#ArialMT-35"/>
      </g>
     </g>
    </g>
    <g id="xtick_5">
     <g id="line2d_5">
      <g>
       <use style="stroke:#000000;stroke-width:0.8;" x="664.11" xlink:href="#md58ae8928a" y="664.76"/>
      </g>
     </g>
     <g id="text_5">
      <!-- 0.010 -->
      <g transform="translate(634.08375 688.93875)scale(0.24 -0.24)">
       <use xlink:href="#ArialMT-30"/>
       <use x="55.615234" xlink:href="#ArialMT-2e"/>
       <use x="83.398438" xlink:href="#ArialMT-30"/>
       <use x="139.013672" xlink:href="#ArialMT-31"/>
       <use x="194.628906" xlink:href="#ArialMT-30"/>
      </g>
     </g>
    </g>
   </g>
   <g id="matplotlib.axis_2">
    <g id="ytick_1">
     <g id="line2d_6">
      <defs>
       <path d="M 0 0 
L -3.5 0 
" id="ma51b524f1c" style="stroke:#000000;stroke-width:0.8;"/>
      </defs>
      <g>
       <use style="stroke:#000000;stroke-width:0.8;" x="86.2" xlink:href="#ma51b524f1c" y="664.76"/>
      </g>
     </g>
     <g id="text_6">
      <!-- 0 -->
      <g transform="translate(65.85375 673.349375)scale(0.24 -0.24)">
       <use xlink:href="#ArialMT-30"/>
      </g>
     </g>
    </g>
    <g id="ytick_2">
     <g id="line2d_7">
      <g>
       <use style="stroke:#000000;stroke-width:0.8;" x="86.2" xlink:href="#ma51b524f1c" y="579.917333"/>
      </g>
     </g>
     <g id="text_7">
      <!-- 200 -->
      <defs>
       <path d="M 50.34375 8.453125 
L 50.34375 0 
L 3.03125 0 
Q 2.9375 3.171875 4.046875 6.109375 
Q 5.859375 10.9375 9.828125 15.625 
Q 13.8125 20.3125 21.34375 26.46875 
Q 33.015625 36.03125 37.109375 41.625 
Q 41.21875 47.21875 41.21875 52.203125 
Q 41.21875 57.421875 37.46875 61 
Q 33.734375 64.59375 27.734375 64.59375 
Q 21.390625 64.59375 17.578125 60.78125 
Q 13.765625 56.984375 13.71875 50.25 
L 4.6875 51.171875 
Q 5.609375 61.28125 11.65625 66.578125 
Q 17.71875 71.875 27.9375 71.875 
Q 38.234375 71.875 44.234375 66.15625 
Q 50.25 60.453125 50.25 52 
Q 50.25 47.703125 48.484375 43.546875 
Q 46.734375 39.40625 42.65625 34.8125 
Q 38.578125 30.21875 29.109375 22.21875 
Q 21.1875 15.578125 18.9375 13.203125 
Q 16.703125 10.84375 15.234375 8.453125 
z
" id="ArialMT-32"/>
      </defs>
      <g transform="translate(39.16125 588.506708)scale(0.24 -0.24)">
       <use xlink:href="#ArialMT-32"/>
       <use x="55.615234" xlink:href="#ArialMT-30"/>
       <use x="111.230469" xlink:href="#ArialMT-30"/>
      </g>
     </g>
    </g>
    <g id="ytick_3">
     <g id="line2d_8">
      <g>
       <use style="stroke:#000000;stroke-width:0.8;" x="86.2" xlink:href="#ma51b524f1c" y="495.074667"/>
      </g>
     </g>
     <g id="text_8">
      <!-- 400 -->
      <defs>
       <path d="M 32.328125 0 
L 32.328125 17.140625 
L 1.265625 17.140625 
L 1.265625 25.203125 
L 33.9375 71.578125 
L 41.109375 71.578125 
L 41.109375 25.203125 
L 50.78125 25.203125 
L 50.78125 17.140625 
L 41.109375 17.140625 
L 41.109375 0 
z
M 32.328125 25.203125 
L 32.328125 57.46875 
L 9.90625 25.203125 
z
" id="ArialMT-34"/>
      </defs>
      <g transform="translate(39.16125 503.664042)scale(0.24 -0.24)">
       <use xlink:href="#ArialMT-34"/>
       <use x="55.615234" xlink:href="#ArialMT-30"/>
       <use x="111.230469" xlink:href="#ArialMT-30"/>
      </g>
     </g>
    </g>
    <g id="ytick_4">
     <g id="line2d_9">
      <g>
       <use style="stroke:#000000;stroke-width:0.8;" x="86.2" xlink:href="#ma51b524f1c" y="410.232"/>
      </g>
     </g>
     <g id="text_9">
      <!-- 600 -->
      <defs>
       <path d="M 49.75 54.046875 
L 41.015625 53.375 
Q 39.84375 58.546875 37.703125 60.890625 
Q 34.125 64.65625 28.90625 64.65625 
Q 24.703125 64.65625 21.53125 62.3125 
Q 17.390625 59.28125 14.984375 53.46875 
Q 12.59375 47.65625 12.5 36.921875 
Q 15.671875 41.75 20.265625 44.09375 
Q 24.859375 46.4375 29.890625 46.4375 
Q 38.671875 46.4375 44.84375 39.96875 
Q 51.03125 33.5 51.03125 23.25 
Q 51.03125 16.5 48.125 10.71875 
Q 45.21875 4.9375 40.140625 1.859375 
Q 35.0625 -1.21875 28.609375 -1.21875 
Q 17.625 -1.21875 10.6875 6.859375 
Q 3.765625 14.9375 3.765625 33.5 
Q 3.765625 54.25 11.421875 63.671875 
Q 18.109375 71.875 29.4375 71.875 
Q 37.890625 71.875 43.28125 67.140625 
Q 48.6875 62.40625 49.75 54.046875 
z
M 13.875 23.1875 
Q 13.875 18.65625 15.796875 14.5 
Q 17.71875 10.359375 21.1875 8.171875 
Q 24.65625 6 28.46875 6 
Q 34.03125 6 38.03125 10.484375 
Q 42.046875 14.984375 42.046875 22.703125 
Q 42.046875 30.125 38.078125 34.390625 
Q 34.125 38.671875 28.125 38.671875 
Q 22.171875 38.671875 18.015625 34.390625 
Q 13.875 30.125 13.875 23.1875 
z
" id="ArialMT-36"/>
      </defs>
      <g transform="translate(39.16125 418.821375)scale(0.24 -0.24)">
       <use xlink:href="#ArialMT-36"/>
       <use x="55.615234" xlink:href="#ArialMT-30"/>
       <use x="111.230469" xlink:href="#ArialMT-30"/>
      </g>
     </g>
    </g>
    <g id="ytick_5">
     <g id="line2d_10">
      <g>
       <use style="stroke:#000000;stroke-width:0.8;" x="86.2" xlink:href="#ma51b524f1c" y="325.389333"/>
      </g>
     </g>
     <g id="text_10">
      <!-- 800 -->
      <defs>
       <path d="M 17.671875 38.8125 
Q 12.203125 40.828125 9.5625 44.53125 
Q 6.9375 48.25 6.9375 53.421875 
Q 6.9375 61.234375 12.546875 66.546875 
Q 18.171875 71.875 27.484375 71.875 
Q 36.859375 71.875 42.578125 66.421875 
Q 48.296875 60.984375 48.296875 53.171875 
Q 48.296875 48.1875 45.671875 44.5 
Q 43.0625 40.828125 37.75 38.8125 
Q 44.34375 36.671875 47.78125 31.875 
Q 51.21875 27.09375 51.21875 20.453125 
Q 51.21875 11.28125 44.71875 5.03125 
Q 38.234375 -1.21875 27.640625 -1.21875 
Q 17.046875 -1.21875 10.546875 5.046875 
Q 4.046875 11.328125 4.046875 20.703125 
Q 4.046875 27.6875 7.59375 32.390625 
Q 11.140625 37.109375 17.671875 38.8125 
z
M 15.921875 53.71875 
Q 15.921875 48.640625 19.1875 45.40625 
Q 22.46875 42.1875 27.6875 42.1875 
Q 32.765625 42.1875 36.015625 45.375 
Q 39.265625 48.578125 39.265625 53.21875 
Q 39.265625 58.0625 35.90625 61.359375 
Q 32.5625 64.65625 27.59375 64.65625 
Q 22.5625 64.65625 19.234375 61.421875 
Q 15.921875 58.203125 15.921875 53.71875 
z
M 13.09375 20.65625 
Q 13.09375 16.890625 14.875 13.375 
Q 16.65625 9.859375 20.171875 7.921875 
Q 23.6875 6 27.734375 6 
Q 34.03125 6 38.125 10.046875 
Q 42.234375 14.109375 42.234375 20.359375 
Q 42.234375 26.703125 38.015625 30.859375 
Q 33.796875 35.015625 27.4375 35.015625 
Q 21.234375 35.015625 17.15625 30.90625 
Q 13.09375 26.8125 13.09375 20.65625 
z
" id="ArialMT-38"/>
      </defs>
      <g transform="translate(39.16125 333.978708)scale(0.24 -0.24)">
       <use xlink:href="#ArialMT-38"/>
       <use x="55.615234" xlink:href="#ArialMT-30"/>
       <use x="111.230469" xlink:href="#ArialMT-30"/>
      </g>
     </g>
    </g>
    <g id="ytick_6">
     <g id="line2d_11">
      <g>
       <use style="stroke:#000000;stroke-width:0.8;" x="86.2" xlink:href="#ma51b524f1c" y="240.546667"/>
      </g>
     </g>
     <g id="text_11">
      <!-- 1000 -->
      <g transform="translate(25.815 249.136042)scale(0.24 -0.24)">
       <use xlink:href="#ArialMT-31"/>
       <use x="55.615234" xlink:href="#ArialMT-30"/>
       <use x="111.230469" xlink:href="#ArialMT-30"/>
       <use x="166.845703" xlink:href="#ArialMT-30"/>
      </g>
     </g>
    </g>
    <g id="ytick_7">
     <g id="line2d_12">
      <g>
       <use style="stroke:#000000;stroke-width:0.8;" x="86.2" xlink:href="#ma51b524f1c" y="155.704"/>
      </g>
     </g>
     <g id="text_12">
      <!-- 1200 -->
      <g transform="translate(25.815 164.293375)scale(0.24 -0.24)">
       <use xlink:href="#ArialMT-31"/>
       <use x="55.615234" xlink:href="#ArialMT-32"/>
       <use x="111.230469" xlink:href="#ArialMT-30"/>
       <use x="166.845703" xlink:href="#ArialMT-30"/>
      </g>
     </g>
    </g>
    <g id="ytick_8">
     <g id="line2d_13">
      <g>
       <use style="stroke:#000000;stroke-width:0.8;" x="86.2" xlink:href="#ma51b524f1c" y="70.861333"/>
      </g>
     </g>
     <g id="text_13">
      <!-- 1400 -->
      <g transform="translate(25.815 79.450708)scale(0.24 -0.24)">
       <use xlink:href="#ArialMT-31"/>
       <use x="55.615234" xlink:href="#ArialMT-34"/>
       <use x="111.230469" xlink:href="#ArialMT-30"/>
       <use x="166.845703" xlink:href="#ArialMT-30"/>
      </g>
     </g>
    </g>
   </g>
   <g id="patch_103">
    <path d="M 86.2 664.76 
L 86.2 28.44 
" style="fill:none;stroke:#000000;stroke-linecap:square;stroke-linejoin:miter;stroke-width:0.8;"/>
   </g>
   <g id="patch_104">
    <path d="M 664.11 664.76 
L 664.11 28.44 
" style="fill:none;stroke:#000000;stroke-linecap:square;stroke-linejoin:miter;stroke-width:0.8;"/>
   </g>
   <g id="patch_105">
    <path d="M 86.2 664.76 
L 664.11 664.76 
" style="fill:none;stroke:#000000;stroke-linecap:square;stroke-linejoin:miter;stroke-width:0.8;"/>
   </g>
   <g id="patch_106">
    <path d="M 86.2 28.44 
L 664.11 28.44 
" style="fill:none;stroke:#000000;stroke-linecap:square;stroke-linejoin:miter;stroke-width:0.8;"/>
   </g>
  </g>
 </g>
 <defs>
  <clipPath id="p45a44b1cba">
   <rect height="636.32" width="577.91" x="86.2" y="28.44"/>
  </clipPath>
 </defs>
</svg>
