<?xml version="1.0" encoding="utf-8" standalone="no"?>
<!DOCTYPE svg PUBLIC "-//W3C//DTD SVG 1.1//EN"
  "http://www.w3.org/Graphics/SVG/1.1/DTD/svg11.dtd">
<!-- Created with matplotlib (https://matplotlib.org/) -->
<svg height="144pt" version="1.1" viewBox="0 0 720 144" width="720pt" xmlns="http://www.w3.org/2000/svg" xmlns:xlink="http://www.w3.org/1999/xlink">
 <defs>
  <style type="text/css">
*{stroke-linecap:butt;stroke-linejoin:round;}
  </style>
 </defs>
 <g id="figure_1">
  <g id="patch_1">
   <path d="M 0 144 
L 720 144 
L 720 0 
L 0 0 
z
" style="fill:#ffffff;"/>
  </g>
  <g id="axes_1">
   <g id="patch_2">
    <path d="M 86.47 87.32 
L 672.715227 87.32 
L 672.715227 35.28 
L 86.47 35.28 
z
" style="fill:#ffffff;"/>
   </g>
   <g id="patch_3">
    <path clip-path="url(#p0e494049cf)" d="M 113.11751 87.32 
L 118.669075 87.32 
L 118.669075 71.053753 
L 113.11751 71.053753 
z
" style="fill:#ff0000;"/>
   </g>
   <g id="patch_4">
    <path clip-path="url(#p0e494049cf)" d="M 118.669075 87.32 
L 124.22064 87.32 
L 124.22064 54.568522 
L 118.669075 54.568522 
z
" style="fill:#ff0000;"/>
   </g>
   <g id="patch_5">
    <path clip-path="url(#p0e494049cf)" d="M 124.22064 87.32 
L 129.772204 87.32 
L 129.772204 62.034388 
L 124.22064 62.034388 
z
" style="fill:#ff0000;"/>
   </g>
   <g id="patch_6">
    <path clip-path="url(#p0e494049cf)" d="M 129.772204 87.32 
L 135.323769 87.32 
L 135.323769 57.374519 
L 129.772204 57.374519 
z
" style="fill:#ff0000;"/>
   </g>
   <g id="patch_7">
    <path clip-path="url(#p0e494049cf)" d="M 135.323769 87.32 
L 140.875334 87.32 
L 140.875334 65.55656 
L 135.323769 65.55656 
z
" style="fill:#ff0000;"/>
   </g>
   <g id="patch_8">
    <path clip-path="url(#p0e494049cf)" d="M 140.875334 87.32 
L 146.426898 87.32 
L 146.426898 54.872644 
L 140.875334 54.872644 
z
" style="fill:#ff0000;"/>
   </g>
   <g id="patch_9">
    <path clip-path="url(#p0e494049cf)" d="M 146.426898 87.32 
L 151.978463 87.32 
L 151.978463 58.998791 
L 146.426898 58.998791 
z
" style="fill:#ff0000;"/>
   </g>
   <g id="patch_10">
    <path clip-path="url(#p0e494049cf)" d="M 151.978463 87.32 
L 157.530028 87.32 
L 157.530028 55.243689 
L 151.978463 55.243689 
z
" style="fill:#ff0000;"/>
   </g>
   <g id="patch_11">
    <path clip-path="url(#p0e494049cf)" d="M 157.530028 87.32 
L 163.081592 87.32 
L 163.081592 58.148666 
L 157.530028 58.148666 
z
" style="fill:#ff0000;"/>
   </g>
   <g id="patch_12">
    <path clip-path="url(#p0e494049cf)" d="M 163.081592 87.32 
L 168.633157 87.32 
L 168.633157 65.408766 
L 163.081592 65.408766 
z
" style="fill:#ff0000;"/>
   </g>
   <g id="patch_13">
    <path clip-path="url(#p0e494049cf)" d="M 168.633157 87.32 
L 174.184722 87.32 
L 174.184722 61.99463 
L 168.633157 61.99463 
z
" style="fill:#ff0000;"/>
   </g>
   <g id="patch_14">
    <path clip-path="url(#p0e494049cf)" d="M 174.184722 87.32 
L 179.736286 87.32 
L 179.736286 55.332157 
L 174.184722 55.332157 
z
" style="fill:#ff0000;"/>
   </g>
   <g id="patch_15">
    <path clip-path="url(#p0e494049cf)" d="M 179.736286 87.32 
L 185.287851 87.32 
L 185.287851 60.182493 
L 179.736286 60.182493 
z
" style="fill:#ff0000;"/>
   </g>
   <g id="patch_16">
    <path clip-path="url(#p0e494049cf)" d="M 185.287851 87.32 
L 190.839415 87.32 
L 190.839415 62.925313 
L 185.287851 62.925313 
z
" style="fill:#ff0000;"/>
   </g>
   <g id="patch_17">
    <path clip-path="url(#p0e494049cf)" d="M 190.839415 87.32 
L 196.39098 87.32 
L 196.39098 56.535009 
L 190.839415 56.535009 
z
" style="fill:#ff0000;"/>
   </g>
   <g id="patch_18">
    <path clip-path="url(#p0e494049cf)" d="M 196.39098 87.32 
L 201.942545 87.32 
L 201.942545 64.10173 
L 196.39098 64.10173 
z
" style="fill:#ff0000;"/>
   </g>
   <g id="patch_19">
    <path clip-path="url(#p0e494049cf)" d="M 201.942545 87.32 
L 207.494109 87.32 
L 207.494109 64.552916 
L 201.942545 64.552916 
z
" style="fill:#ff0000;"/>
   </g>
   <g id="patch_20">
    <path clip-path="url(#p0e494049cf)" d="M 207.494109 87.32 
L 213.045674 87.32 
L 213.045674 64.770652 
L 207.494109 64.770652 
z
" style="fill:#ff0000;"/>
   </g>
   <g id="patch_21">
    <path clip-path="url(#p0e494049cf)" d="M 213.045674 87.32 
L 218.597239 87.32 
L 218.597239 52.059361 
L 213.045674 52.059361 
z
" style="fill:#ff0000;"/>
   </g>
   <g id="patch_22">
    <path clip-path="url(#p0e494049cf)" d="M 218.597239 87.32 
L 224.148803 87.32 
L 224.148803 54.391274 
L 218.597239 54.391274 
z
" style="fill:#ff0000;"/>
   </g>
   <g id="patch_23">
    <path clip-path="url(#p0e494049cf)" d="M 224.148803 87.32 
L 229.700368 87.32 
L 229.700368 56.654493 
L 224.148803 56.654493 
z
" style="fill:#ff0000;"/>
   </g>
   <g id="patch_24">
    <path clip-path="url(#p0e494049cf)" d="M 229.700368 87.32 
L 235.251933 87.32 
L 235.251933 59.682493 
L 229.700368 59.682493 
z
" style="fill:#ff0000;"/>
   </g>
   <g id="patch_25">
    <path clip-path="url(#p0e494049cf)" d="M 235.251933 87.32 
L 240.803497 87.32 
L 240.803497 61.787719 
L 235.251933 61.787719 
z
" style="fill:#ff0000;"/>
   </g>
   <g id="patch_26">
    <path clip-path="url(#p0e494049cf)" d="M 240.803497 87.32 
L 246.355062 87.32 
L 246.355062 53.797393 
L 240.803497 53.797393 
z
" style="fill:#ff0000;"/>
   </g>
   <g id="patch_27">
    <path clip-path="url(#p0e494049cf)" d="M 246.355062 87.32 
L 251.906627 87.32 
L 251.906627 63.588927 
L 246.355062 63.588927 
z
" style="fill:#ff0000;"/>
   </g>
   <g id="patch_28">
    <path clip-path="url(#p0e494049cf)" d="M 251.906627 87.32 
L 257.458191 87.32 
L 257.458191 58.578828 
L 251.906627 58.578828 
z
" style="fill:#ff0000;"/>
   </g>
   <g id="patch_29">
    <path clip-path="url(#p0e494049cf)" d="M 257.458191 87.32 
L 263.009756 87.32 
L 263.009756 55.996604 
L 257.458191 55.996604 
z
" style="fill:#ff0000;"/>
   </g>
   <g id="patch_30">
    <path clip-path="url(#p0e494049cf)" d="M 263.009756 87.32 
L 268.561321 87.32 
L 268.561321 61.178018 
L 263.009756 61.178018 
z
" style="fill:#ff0000;"/>
   </g>
   <g id="patch_31">
    <path clip-path="url(#p0e494049cf)" d="M 268.561321 87.32 
L 274.112885 87.32 
L 274.112885 59.307076 
L 268.561321 59.307076 
z
" style="fill:#ff0000;"/>
   </g>
   <g id="patch_32">
    <path clip-path="url(#p0e494049cf)" d="M 274.112885 87.32 
L 279.66445 87.32 
L 279.66445 51.887837 
L 274.112885 51.887837 
z
" style="fill:#ff0000;"/>
   </g>
   <g id="patch_33">
    <path clip-path="url(#p0e494049cf)" d="M 279.66445 87.32 
L 285.216015 87.32 
L 285.216015 56.53834 
L 279.66445 56.53834 
z
" style="fill:#ff0000;"/>
   </g>
   <g id="patch_34">
    <path clip-path="url(#p0e494049cf)" d="M 285.216015 87.32 
L 290.767579 87.32 
L 290.767579 66.167718 
L 285.216015 66.167718 
z
" style="fill:#ff0000;"/>
   </g>
   <g id="patch_35">
    <path clip-path="url(#p0e494049cf)" d="M 290.767579 87.32 
L 296.319144 87.32 
L 296.319144 61.69769 
L 290.767579 61.69769 
z
" style="fill:#ff0000;"/>
   </g>
   <g id="patch_36">
    <path clip-path="url(#p0e494049cf)" d="M 296.319144 87.32 
L 301.870709 87.32 
L 301.870709 56.606096 
L 296.319144 56.606096 
z
" style="fill:#ff0000;"/>
   </g>
   <g id="patch_37">
    <path clip-path="url(#p0e494049cf)" d="M 301.870709 87.32 
L 307.422273 87.32 
L 307.422273 63.508994 
L 301.870709 63.508994 
z
" style="fill:#ff0000;"/>
   </g>
   <g id="patch_38">
    <path clip-path="url(#p0e494049cf)" d="M 307.422273 87.32 
L 312.973838 87.32 
L 312.973838 62.769506 
L 307.422273 62.769506 
z
" style="fill:#ff0000;"/>
   </g>
   <g id="patch_39">
    <path clip-path="url(#p0e494049cf)" d="M 312.973838 87.32 
L 318.525402 87.32 
L 318.525402 57.367025 
L 312.973838 57.367025 
z
" style="fill:#ff0000;"/>
   </g>
   <g id="patch_40">
    <path clip-path="url(#p0e494049cf)" d="M 318.525402 87.32 
L 324.076967 87.32 
L 324.076967 61.037718 
L 318.525402 61.037718 
z
" style="fill:#ff0000;"/>
   </g>
   <g id="patch_41">
    <path clip-path="url(#p0e494049cf)" d="M 324.076967 87.32 
L 329.628532 87.32 
L 329.628532 65.635556 
L 324.076967 65.635556 
z
" style="fill:#ff0000;"/>
   </g>
   <g id="patch_42">
    <path clip-path="url(#p0e494049cf)" d="M 329.628532 87.32 
L 335.180096 87.32 
L 335.180096 67.205395 
L 329.628532 67.205395 
z
" style="fill:#ff0000;"/>
   </g>
   <g id="patch_43">
    <path clip-path="url(#p0e494049cf)" d="M 335.180096 87.32 
L 340.731661 87.32 
L 340.731661 52.192688 
L 335.180096 52.192688 
z
" style="fill:#ff0000;"/>
   </g>
   <g id="patch_44">
    <path clip-path="url(#p0e494049cf)" d="M 340.731661 87.32 
L 346.283226 87.32 
L 346.283226 54.198518 
L 340.731661 54.198518 
z
" style="fill:#ff0000;"/>
   </g>
   <g id="patch_45">
    <path clip-path="url(#p0e494049cf)" d="M 346.283226 87.32 
L 351.83479 87.32 
L 351.83479 53.449766 
L 346.283226 53.449766 
z
" style="fill:#ff0000;"/>
   </g>
   <g id="patch_46">
    <path clip-path="url(#p0e494049cf)" d="M 351.83479 87.32 
L 357.386355 87.32 
L 357.386355 55.000246 
L 351.83479 55.000246 
z
" style="fill:#ff0000;"/>
   </g>
   <g id="patch_47">
    <path clip-path="url(#p0e494049cf)" d="M 357.386355 87.32 
L 362.93792 87.32 
L 362.93792 54.141586 
L 357.386355 54.141586 
z
" style="fill:#ff0000;"/>
   </g>
   <g id="patch_48">
    <path clip-path="url(#p0e494049cf)" d="M 362.93792 87.32 
L 368.489484 87.32 
L 368.489484 59.707576 
L 362.93792 59.707576 
z
" style="fill:#ff0000;"/>
   </g>
   <g id="patch_49">
    <path clip-path="url(#p0e494049cf)" d="M 368.489484 87.32 
L 374.041049 87.32 
L 374.041049 53.606406 
L 368.489484 53.606406 
z
" style="fill:#ff0000;"/>
   </g>
   <g id="patch_50">
    <path clip-path="url(#p0e494049cf)" d="M 374.041049 87.32 
L 379.592614 87.32 
L 379.592614 51.46392 
L 374.041049 51.46392 
z
" style="fill:#ff0000;"/>
   </g>
   <g id="patch_51">
    <path clip-path="url(#p0e494049cf)" d="M 379.592614 87.32 
L 385.144178 87.32 
L 385.144178 53.003887 
L 379.592614 53.003887 
z
" style="fill:#ff0000;"/>
   </g>
   <g id="patch_52">
    <path clip-path="url(#p0e494049cf)" d="M 385.144178 87.32 
L 390.695743 87.32 
L 390.695743 56.995355 
L 385.144178 56.995355 
z
" style="fill:#ff0000;"/>
   </g>
   <g id="patch_53">
    <path clip-path="url(#p0e494049cf)" d="M 390.695743 87.32 
L 396.247308 87.32 
L 396.247308 53.634924 
L 390.695743 53.634924 
z
" style="fill:#ff0000;"/>
   </g>
   <g id="patch_54">
    <path clip-path="url(#p0e494049cf)" d="M 396.247308 87.32 
L 401.798872 87.32 
L 401.798872 63.03491 
L 396.247308 63.03491 
z
" style="fill:#ff0000;"/>
   </g>
   <g id="patch_55">
    <path clip-path="url(#p0e494049cf)" d="M 401.798872 87.32 
L 407.350437 87.32 
L 407.350437 63.070401 
L 401.798872 63.070401 
z
" style="fill:#ff0000;"/>
   </g>
   <g id="patch_56">
    <path clip-path="url(#p0e494049cf)" d="M 407.350437 87.32 
L 412.902002 87.32 
L 412.902002 59.837156 
L 407.350437 59.837156 
z
" style="fill:#ff0000;"/>
   </g>
   <g id="patch_57">
    <path clip-path="url(#p0e494049cf)" d="M 412.902002 87.32 
L 418.453566 87.32 
L 418.453566 62.246087 
L 412.902002 62.246087 
z
" style="fill:#ff0000;"/>
   </g>
   <g id="patch_58">
    <path clip-path="url(#p0e494049cf)" d="M 418.453566 87.32 
L 424.005131 87.32 
L 424.005131 56.584031 
L 418.453566 56.584031 
z
" style="fill:#ff0000;"/>
   </g>
   <g id="patch_59">
    <path clip-path="url(#p0e494049cf)" d="M 424.005131 87.32 
L 429.556696 87.32 
L 429.556696 63.51732 
L 424.005131 63.51732 
z
" style="fill:#ff0000;"/>
   </g>
   <g id="patch_60">
    <path clip-path="url(#p0e494049cf)" d="M 429.556696 87.32 
L 435.10826 87.32 
L 435.10826 59.464341 
L 429.556696 59.464341 
z
" style="fill:#ff0000;"/>
   </g>
   <g id="patch_61">
    <path clip-path="url(#p0e494049cf)" d="M 435.10826 87.32 
L 440.659825 87.32 
L 440.659825 60.833409 
L 435.10826 60.833409 
z
" style="fill:#ff0000;"/>
   </g>
   <g id="patch_62">
    <path clip-path="url(#p0e494049cf)" d="M 440.659825 87.32 
L 446.211389 87.32 
L 446.211389 70.029606 
L 440.659825 70.029606 
z
" style="fill:#ff0000;"/>
   </g>
   <g id="patch_63">
    <path clip-path="url(#p0e494049cf)" d="M 446.211389 87.32 
L 451.762954 87.32 
L 451.762954 54.238796 
L 446.211389 54.238796 
z
" style="fill:#ff0000;"/>
   </g>
   <g id="patch_64">
    <path clip-path="url(#p0e494049cf)" d="M 451.762954 87.32 
L 457.314519 87.32 
L 457.314519 59.749937 
L 451.762954 59.749937 
z
" style="fill:#ff0000;"/>
   </g>
   <g id="patch_65">
    <path clip-path="url(#p0e494049cf)" d="M 457.314519 87.32 
L 462.866083 87.32 
L 462.866083 60.031265 
L 457.314519 60.031265 
z
" style="fill:#ff0000;"/>
   </g>
   <g id="patch_66">
    <path clip-path="url(#p0e494049cf)" d="M 462.866083 87.32 
L 468.417648 87.32 
L 468.417648 52.93405 
L 462.866083 52.93405 
z
" style="fill:#ff0000;"/>
   </g>
   <g id="patch_67">
    <path clip-path="url(#p0e494049cf)" d="M 468.417648 87.32 
L 473.969213 87.32 
L 473.969213 56.34881 
L 468.417648 56.34881 
z
" style="fill:#ff0000;"/>
   </g>
   <g id="patch_68">
    <path clip-path="url(#p0e494049cf)" d="M 473.969213 87.32 
L 479.520777 87.32 
L 479.520777 59.066755 
L 473.969213 59.066755 
z
" style="fill:#ff0000;"/>
   </g>
   <g id="patch_69">
    <path clip-path="url(#p0e494049cf)" d="M 479.520777 87.32 
L 485.072342 87.32 
L 485.072342 60.881286 
L 479.520777 60.881286 
z
" style="fill:#ff0000;"/>
   </g>
   <g id="patch_70">
    <path clip-path="url(#p0e494049cf)" d="M 485.072342 87.32 
L 490.623907 87.32 
L 490.623907 59.564466 
L 485.072342 59.564466 
z
" style="fill:#ff0000;"/>
   </g>
   <g id="patch_71">
    <path clip-path="url(#p0e494049cf)" d="M 490.623907 87.32 
L 496.175471 87.32 
L 496.175471 61.463197 
L 490.623907 61.463197 
z
" style="fill:#ff0000;"/>
   </g>
   <g id="patch_72">
    <path clip-path="url(#p0e494049cf)" d="M 496.175471 87.32 
L 501.727036 87.32 
L 501.727036 54.710695 
L 496.175471 54.710695 
z
" style="fill:#ff0000;"/>
   </g>
   <g id="patch_73">
    <path clip-path="url(#p0e494049cf)" d="M 501.727036 87.32 
L 507.278601 87.32 
L 507.278601 63.962679 
L 501.727036 63.962679 
z
" style="fill:#ff0000;"/>
   </g>
   <g id="patch_74">
    <path clip-path="url(#p0e494049cf)" d="M 507.278601 87.32 
L 512.830165 87.32 
L 512.830165 59.179786 
L 507.278601 59.179786 
z
" style="fill:#ff0000;"/>
   </g>
   <g id="patch_75">
    <path clip-path="url(#p0e494049cf)" d="M 512.830165 87.32 
L 518.38173 87.32 
L 518.38173 66.607456 
L 512.830165 66.607456 
z
" style="fill:#ff0000;"/>
   </g>
   <g id="patch_76">
    <path clip-path="url(#p0e494049cf)" d="M 518.38173 87.32 
L 523.933295 87.32 
L 523.933295 58.730057 
L 518.38173 58.730057 
z
" style="fill:#ff0000;"/>
   </g>
   <g id="patch_77">
    <path clip-path="url(#p0e494049cf)" d="M 523.933295 87.32 
L 529.484859 87.32 
L 529.484859 71.460081 
L 523.933295 71.460081 
z
" style="fill:#ff0000;"/>
   </g>
   <g id="patch_78">
    <path clip-path="url(#p0e494049cf)" d="M 529.484859 87.32 
L 535.036424 87.32 
L 535.036424 62.688323 
L 529.484859 62.688323 
z
" style="fill:#ff0000;"/>
   </g>
   <g id="patch_79">
    <path clip-path="url(#p0e494049cf)" d="M 535.036424 87.32 
L 540.587989 87.32 
L 540.587989 59.12733 
L 535.036424 59.12733 
z
" style="fill:#ff0000;"/>
   </g>
   <g id="patch_80">
    <path clip-path="url(#p0e494049cf)" d="M 540.587989 87.32 
L 546.139553 87.32 
L 546.139553 65.680207 
L 540.587989 65.680207 
z
" style="fill:#ff0000;"/>
   </g>
   <g id="patch_81">
    <path clip-path="url(#p0e494049cf)" d="M 546.139553 87.32 
L 551.691118 87.32 
L 551.691118 58.787717 
L 546.139553 58.787717 
z
" style="fill:#ff0000;"/>
   </g>
   <g id="patch_82">
    <path clip-path="url(#p0e494049cf)" d="M 551.691118 87.32 
L 557.242683 87.32 
L 557.242683 59.349437 
L 551.691118 59.349437 
z
" style="fill:#ff0000;"/>
   </g>
   <g id="patch_83">
    <path clip-path="url(#p0e494049cf)" d="M 557.242683 87.32 
L 562.794247 87.32 
L 562.794247 60.253476 
L 557.242683 60.253476 
z
" style="fill:#ff0000;"/>
   </g>
   <g id="patch_84">
    <path clip-path="url(#p0e494049cf)" d="M 562.794247 87.32 
L 568.345812 87.32 
L 568.345812 63.387116 
L 562.794247 63.387116 
z
" style="fill:#ff0000;"/>
   </g>
   <g id="patch_85">
    <path clip-path="url(#p0e494049cf)" d="M 568.345812 87.32 
L 573.897376 87.32 
L 573.897376 57.746084 
L 568.345812 57.746084 
z
" style="fill:#ff0000;"/>
   </g>
   <g id="patch_86">
    <path clip-path="url(#p0e494049cf)" d="M 573.897376 87.32 
L 579.448941 87.32 
L 579.448941 61.661574 
L 573.897376 61.661574 
z
" style="fill:#ff0000;"/>
   </g>
   <g id="patch_87">
    <path clip-path="url(#p0e494049cf)" d="M 579.448941 87.32 
L 585.000506 87.32 
L 585.000506 58.420835 
L 579.448941 58.420835 
z
" style="fill:#ff0000;"/>
   </g>
   <g id="patch_88">
    <path clip-path="url(#p0e494049cf)" d="M 585.000506 87.32 
L 590.55207 87.32 
L 590.55207 69.076858 
L 585.000506 69.076858 
z
" style="fill:#ff0000;"/>
   </g>
   <g id="patch_89">
    <path clip-path="url(#p0e494049cf)" d="M 590.55207 87.32 
L 596.103635 87.32 
L 596.103635 55.26055 
L 590.55207 55.26055 
z
" style="fill:#ff0000;"/>
   </g>
   <g id="patch_90">
    <path clip-path="url(#p0e494049cf)" d="M 596.103635 87.32 
L 601.6552 87.32 
L 601.6552 63.196858 
L 596.103635 63.196858 
z
" style="fill:#ff0000;"/>
   </g>
   <g id="patch_91">
    <path clip-path="url(#p0e494049cf)" d="M 601.6552 87.32 
L 607.206764 87.32 
L 607.206764 60.997648 
L 601.6552 60.997648 
z
" style="fill:#ff0000;"/>
   </g>
   <g id="patch_92">
    <path clip-path="url(#p0e494049cf)" d="M 607.206764 87.32 
L 612.758329 87.32 
L 612.758329 59.539695 
L 607.206764 59.539695 
z
" style="fill:#ff0000;"/>
   </g>
   <g id="patch_93">
    <path clip-path="url(#p0e494049cf)" d="M 612.758329 87.32 
L 618.309894 87.32 
L 618.309894 60.934887 
L 612.758329 60.934887 
z
" style="fill:#ff0000;"/>
   </g>
   <g id="patch_94">
    <path clip-path="url(#p0e494049cf)" d="M 618.309894 87.32 
L 623.861458 87.32 
L 623.861458 62.427186 
L 618.309894 62.427186 
z
" style="fill:#ff0000;"/>
   </g>
   <g id="patch_95">
    <path clip-path="url(#p0e494049cf)" d="M 623.861458 87.32 
L 629.413023 87.32 
L 629.413023 62.774397 
L 623.861458 62.774397 
z
" style="fill:#ff0000;"/>
   </g>
   <g id="patch_96">
    <path clip-path="url(#p0e494049cf)" d="M 629.413023 87.32 
L 634.964588 87.32 
L 634.964588 59.233492 
L 629.413023 59.233492 
z
" style="fill:#ff0000;"/>
   </g>
   <g id="patch_97">
    <path clip-path="url(#p0e494049cf)" d="M 634.964588 87.32 
L 640.516152 87.32 
L 640.516152 60.871294 
L 634.964588 60.871294 
z
" style="fill:#ff0000;"/>
   </g>
   <g id="patch_98">
    <path clip-path="url(#p0e494049cf)" d="M 640.516152 87.32 
L 646.067717 87.32 
L 646.067717 61.078206 
L 640.516152 61.078206 
z
" style="fill:#ff0000;"/>
   </g>
   <g id="matplotlib.axis_1">
    <g id="xtick_1">
     <g id="line2d_1">
      <defs>
       <path d="M 0 0 
L 0 3.5 
" id="m8823487b9e" style="stroke:#000000;stroke-width:0.8;"/>
      </defs>
      <g>
       <use style="stroke:#000000;stroke-width:0.8;" x="115.893293" xlink:href="#m8823487b9e" y="87.32"/>
      </g>
     </g>
     <g id="text_1">
      <!-- 0 -->
      <defs>
       <path d="M 31.78125 66.40625 
Q 24.171875 66.40625 20.328125 58.90625 
Q 16.5 51.421875 16.5 36.375 
Q 16.5 21.390625 20.328125 13.890625 
Q 24.171875 6.390625 31.78125 6.390625 
Q 39.453125 6.390625 43.28125 13.890625 
Q 47.125 21.390625 47.125 36.375 
Q 47.125 51.421875 43.28125 58.90625 
Q 39.453125 66.40625 31.78125 66.40625 
z
M 31.78125 74.21875 
Q 44.046875 74.21875 50.515625 64.515625 
Q 56.984375 54.828125 56.984375 36.375 
Q 56.984375 17.96875 50.515625 8.265625 
Q 44.046875 -1.421875 31.78125 -1.421875 
Q 19.53125 -1.421875 13.0625 8.265625 
Q 6.59375 17.96875 6.59375 36.375 
Q 6.59375 54.828125 13.0625 64.515625 
Q 19.53125 74.21875 31.78125 74.21875 
z
" id="DejaVuSans-48"/>
      </defs>
      <g transform="translate(108.258293 112.55625)scale(0.24 -0.24)">
       <use xlink:href="#DejaVuSans-48"/>
      </g>
     </g>
    </g>
    <g id="xtick_2">
     <g id="line2d_2">
      <g>
       <use style="stroke:#000000;stroke-width:0.8;" x="226.924586" xlink:href="#m8823487b9e" y="87.32"/>
      </g>
     </g>
     <g id="text_2">
      <!-- 20 -->
      <defs>
       <path d="M 19.1875 8.296875 
L 53.609375 8.296875 
L 53.609375 0 
L 7.328125 0 
L 7.328125 8.296875 
Q 12.9375 14.109375 22.625 23.890625 
Q 32.328125 33.6875 34.8125 36.53125 
Q 39.546875 41.84375 41.421875 45.53125 
Q 43.3125 49.21875 43.3125 52.78125 
Q 43.3125 58.59375 39.234375 62.25 
Q 35.15625 65.921875 28.609375 65.921875 
Q 23.96875 65.921875 18.8125 64.3125 
Q 13.671875 62.703125 7.8125 59.421875 
L 7.8125 69.390625 
Q 13.765625 71.78125 18.9375 73 
Q 24.125 74.21875 28.421875 74.21875 
Q 39.75 74.21875 46.484375 68.546875 
Q 53.21875 62.890625 53.21875 53.421875 
Q 53.21875 48.921875 51.53125 44.890625 
Q 49.859375 40.875 45.40625 35.40625 
Q 44.1875 33.984375 37.640625 27.21875 
Q 31.109375 20.453125 19.1875 8.296875 
z
" id="DejaVuSans-50"/>
      </defs>
      <g transform="translate(211.654586 112.55625)scale(0.24 -0.24)">
       <use xlink:href="#DejaVuSans-50"/>
       <use x="63.623047" xlink:href="#DejaVuSans-48"/>
      </g>
     </g>
    </g>
    <g id="xtick_3">
     <g id="line2d_3">
      <g>
       <use style="stroke:#000000;stroke-width:0.8;" x="337.955879" xlink:href="#m8823487b9e" y="87.32"/>
      </g>
     </g>
     <g id="text_3">
      <!-- 40 -->
      <defs>
       <path d="M 37.796875 64.3125 
L 12.890625 25.390625 
L 37.796875 25.390625 
z
M 35.203125 72.90625 
L 47.609375 72.90625 
L 47.609375 25.390625 
L 58.015625 25.390625 
L 58.015625 17.1875 
L 47.609375 17.1875 
L 47.609375 0 
L 37.796875 0 
L 37.796875 17.1875 
L 4.890625 17.1875 
L 4.890625 26.703125 
z
" id="DejaVuSans-52"/>
      </defs>
      <g transform="translate(322.685879 112.55625)scale(0.24 -0.24)">
       <use xlink:href="#DejaVuSans-52"/>
       <use x="63.623047" xlink:href="#DejaVuSans-48"/>
      </g>
     </g>
    </g>
    <g id="xtick_4">
     <g id="line2d_4">
      <g>
       <use style="stroke:#000000;stroke-width:0.8;" x="448.987172" xlink:href="#m8823487b9e" y="87.32"/>
      </g>
     </g>
     <g id="text_4">
      <!-- 60 -->
      <defs>
       <path d="M 33.015625 40.375 
Q 26.375 40.375 22.484375 35.828125 
Q 18.609375 31.296875 18.609375 23.390625 
Q 18.609375 15.53125 22.484375 10.953125 
Q 26.375 6.390625 33.015625 6.390625 
Q 39.65625 6.390625 43.53125 10.953125 
Q 47.40625 15.53125 47.40625 23.390625 
Q 47.40625 31.296875 43.53125 35.828125 
Q 39.65625 40.375 33.015625 40.375 
z
M 52.59375 71.296875 
L 52.59375 62.3125 
Q 48.875 64.0625 45.09375 64.984375 
Q 41.3125 65.921875 37.59375 65.921875 
Q 27.828125 65.921875 22.671875 59.328125 
Q 17.53125 52.734375 16.796875 39.40625 
Q 19.671875 43.65625 24.015625 45.921875 
Q 28.375 48.1875 33.59375 48.1875 
Q 44.578125 48.1875 50.953125 41.515625 
Q 57.328125 34.859375 57.328125 23.390625 
Q 57.328125 12.15625 50.6875 5.359375 
Q 44.046875 -1.421875 33.015625 -1.421875 
Q 20.359375 -1.421875 13.671875 8.265625 
Q 6.984375 17.96875 6.984375 36.375 
Q 6.984375 53.65625 15.1875 63.9375 
Q 23.390625 74.21875 37.203125 74.21875 
Q 40.921875 74.21875 44.703125 73.484375 
Q 48.484375 72.75 52.59375 71.296875 
z
" id="DejaVuSans-54"/>
      </defs>
      <g transform="translate(433.717172 112.55625)scale(0.24 -0.24)">
       <use xlink:href="#DejaVuSans-54"/>
       <use x="63.623047" xlink:href="#DejaVuSans-48"/>
      </g>
     </g>
    </g>
    <g id="xtick_5">
     <g id="line2d_5">
      <g>
       <use style="stroke:#000000;stroke-width:0.8;" x="560.018465" xlink:href="#m8823487b9e" y="87.32"/>
      </g>
     </g>
     <g id="text_5">
      <!-- 80 -->
      <defs>
       <path d="M 31.78125 34.625 
Q 24.75 34.625 20.71875 30.859375 
Q 16.703125 27.09375 16.703125 20.515625 
Q 16.703125 13.921875 20.71875 10.15625 
Q 24.75 6.390625 31.78125 6.390625 
Q 38.8125 6.390625 42.859375 10.171875 
Q 46.921875 13.96875 46.921875 20.515625 
Q 46.921875 27.09375 42.890625 30.859375 
Q 38.875 34.625 31.78125 34.625 
z
M 21.921875 38.8125 
Q 15.578125 40.375 12.03125 44.71875 
Q 8.5 49.078125 8.5 55.328125 
Q 8.5 64.0625 14.71875 69.140625 
Q 20.953125 74.21875 31.78125 74.21875 
Q 42.671875 74.21875 48.875 69.140625 
Q 55.078125 64.0625 55.078125 55.328125 
Q 55.078125 49.078125 51.53125 44.71875 
Q 48 40.375 41.703125 38.8125 
Q 48.828125 37.15625 52.796875 32.3125 
Q 56.78125 27.484375 56.78125 20.515625 
Q 56.78125 9.90625 50.3125 4.234375 
Q 43.84375 -1.421875 31.78125 -1.421875 
Q 19.734375 -1.421875 13.25 4.234375 
Q 6.78125 9.90625 6.78125 20.515625 
Q 6.78125 27.484375 10.78125 32.3125 
Q 14.796875 37.15625 21.921875 38.8125 
z
M 18.3125 54.390625 
Q 18.3125 48.734375 21.84375 45.5625 
Q 25.390625 42.390625 31.78125 42.390625 
Q 38.140625 42.390625 41.71875 45.5625 
Q 45.3125 48.734375 45.3125 54.390625 
Q 45.3125 60.0625 41.71875 63.234375 
Q 38.140625 66.40625 31.78125 66.40625 
Q 25.390625 66.40625 21.84375 63.234375 
Q 18.3125 60.0625 18.3125 54.390625 
z
" id="DejaVuSans-56"/>
      </defs>
      <g transform="translate(544.748465 112.55625)scale(0.24 -0.24)">
       <use xlink:href="#DejaVuSans-56"/>
       <use x="63.623047" xlink:href="#DejaVuSans-48"/>
      </g>
     </g>
    </g>
    <g id="xtick_6">
     <g id="line2d_6">
      <g>
       <use style="stroke:#000000;stroke-width:0.8;" x="671.049758" xlink:href="#m8823487b9e" y="87.32"/>
      </g>
     </g>
     <g id="text_6">
      <!-- 100 -->
      <defs>
       <path d="M 12.40625 8.296875 
L 28.515625 8.296875 
L 28.515625 63.921875 
L 10.984375 60.40625 
L 10.984375 69.390625 
L 28.421875 72.90625 
L 38.28125 72.90625 
L 38.28125 8.296875 
L 54.390625 8.296875 
L 54.390625 0 
L 12.40625 0 
z
" id="DejaVuSans-49"/>
      </defs>
      <g transform="translate(648.144758 112.55625)scale(0.24 -0.24)">
       <use xlink:href="#DejaVuSans-49"/>
       <use x="63.623047" xlink:href="#DejaVuSans-48"/>
       <use x="127.246094" xlink:href="#DejaVuSans-48"/>
      </g>
     </g>
    </g>
   </g>
   <g id="matplotlib.axis_2">
    <g id="ytick_1">
     <g id="line2d_7">
      <defs>
       <path d="M 0 0 
L -3.5 0 
" id="mc9156dd274" style="stroke:#000000;stroke-width:0.8;"/>
      </defs>
      <g>
       <use style="stroke:#000000;stroke-width:0.8;" x="86.47" xlink:href="#mc9156dd274" y="87.32"/>
      </g>
     </g>
     <g id="text_7">
      <!-- 0.0 -->
      <defs>
       <path d="M 10.6875 12.40625 
L 21 12.40625 
L 21 0 
L 10.6875 0 
z
" id="DejaVuSans-46"/>
      </defs>
      <g transform="translate(41.3025 96.438125)scale(0.24 -0.24)">
       <use xlink:href="#DejaVuSans-48"/>
       <use x="63.623047" xlink:href="#DejaVuSans-46"/>
       <use x="95.410156" xlink:href="#DejaVuSans-48"/>
      </g>
     </g>
    </g>
    <g id="ytick_2">
     <g id="line2d_8">
      <g>
       <use style="stroke:#000000;stroke-width:0.8;" x="86.47" xlink:href="#mc9156dd274" y="35.28"/>
      </g>
     </g>
     <g id="text_8">
      <!-- 0.5 -->
      <defs>
       <path d="M 10.796875 72.90625 
L 49.515625 72.90625 
L 49.515625 64.59375 
L 19.828125 64.59375 
L 19.828125 46.734375 
Q 21.96875 47.46875 24.109375 47.828125 
Q 26.265625 48.1875 28.421875 48.1875 
Q 40.625 48.1875 47.75 41.5 
Q 54.890625 34.8125 54.890625 23.390625 
Q 54.890625 11.625 47.5625 5.09375 
Q 40.234375 -1.421875 26.90625 -1.421875 
Q 22.3125 -1.421875 17.546875 -0.640625 
Q 12.796875 0.140625 7.71875 1.703125 
L 7.71875 11.625 
Q 12.109375 9.234375 16.796875 8.0625 
Q 21.484375 6.890625 26.703125 6.890625 
Q 35.15625 6.890625 40.078125 11.328125 
Q 45.015625 15.765625 45.015625 23.390625 
Q 45.015625 31 40.078125 35.4375 
Q 35.15625 39.890625 26.703125 39.890625 
Q 22.75 39.890625 18.8125 39.015625 
Q 14.890625 38.140625 10.796875 36.28125 
z
" id="DejaVuSans-53"/>
      </defs>
      <g transform="translate(41.3025 44.398125)scale(0.24 -0.24)">
       <use xlink:href="#DejaVuSans-48"/>
       <use x="63.623047" xlink:href="#DejaVuSans-46"/>
       <use x="95.410156" xlink:href="#DejaVuSans-53"/>
      </g>
     </g>
    </g>
   </g>
   <g id="patch_99">
    <path d="M 86.47 87.32 
L 86.47 35.28 
" style="fill:none;stroke:#000000;stroke-linecap:square;stroke-linejoin:miter;stroke-width:0.8;"/>
   </g>
   <g id="patch_100">
    <path d="M 672.715227 87.32 
L 672.715227 35.28 
" style="fill:none;stroke:#000000;stroke-linecap:square;stroke-linejoin:miter;stroke-width:0.8;"/>
   </g>
   <g id="patch_101">
    <path d="M 86.47 87.32 
L 672.715227 87.32 
" style="fill:none;stroke:#000000;stroke-linecap:square;stroke-linejoin:miter;stroke-width:0.8;"/>
   </g>
   <g id="patch_102">
    <path d="M 86.47 35.28 
L 672.715227 35.28 
" style="fill:none;stroke:#000000;stroke-linecap:square;stroke-linejoin:miter;stroke-width:0.8;"/>
   </g>
  </g>
 </g>
 <defs>
  <clipPath id="p0e494049cf">
   <rect height="52.04" width="586.245227" x="86.47" y="35.28"/>
  </clipPath>
 </defs>
</svg>
